<svg width="155" height="63" viewBox="0 0 155 63" fill="none" xmlns="http://www.w3.org/2000/svg">
<g clip-path="url(#clip0_1_225)">
<path d="M55 44L54 43C53.4109 42.7907 53 42.3488 53 42C53 41.6163 53.595 42 54 42C54.6995 42 54.5582 42.407 55 43L57 42C56.4846 40.9884 55.5831 40 54 40C52.1223 40 50 41.4302 50 43C50 44.2209 51.5273 44.407 53 45L54 46C54.6259 46.2791 55 45.5814 55 46C55 46.4186 54.5891 47 54 47C52.9691 47 52.4786 46.5581 52 46L50 47C50.6627 48.186 52.3432 49 54 49C55.8777 49 57 47.7093 57 46C57.0368 44.7093 56.5095 44.6279 55 44Z" fill="white"/>
<path d="M74 43L72 40H69L72 46V49H75V46L78 40H75L74 43Z" fill="white"/>
<path d="M82 45H85V44H82V42H86V40H80V49H86V47H82V45Z" fill="white"/>
<path d="M96 45L91 40H90V49H92V44L97 49H98V40H96V45Z" fill="white"/>
<path d="M111 40H108L105 44V40H103V49H105V45L108 49H111L108 44L111 40Z" fill="white"/>
<path d="M117 40C114.515 40 113 42.4535 113 45C113 47.5814 114.515 49 117 49C119.485 49 122 47.5465 122 45C122 42.4535 119.519 40 117 40ZM118 47C116.657 47 115 46.5 115 45C115 43.5349 116.657 42 118 42C119.31 42 120 43.5349 120 45C120 46.5 119.276 47 118 47Z" fill="white"/>
<path d="M63 40L59 49H61L62 48H65L66 49H68L64 40H63ZM62 46L63 43H64L65 46H62Z" fill="white"/>
<path d="M58 53H55L52 57V53H50V62H52V58L55 62H58L55 57L58 53Z" fill="white"/>
<path d="M97 58H100V57H97V55H101V53H95V62H101V60H97V58Z" fill="white"/>
<path d="M111 58L106 53H105V62H107V57L112 62H113V53H111V58Z" fill="white"/>
<path d="M125 53H122L119 57V53H117V62H119V58L122 62H125L122 57L125 53Z" fill="white"/>
<path d="M132 53C129.239 53 127 55.4535 127 58C127 60.5814 129.239 62 132 62C134.761 62 137 60.5465 137 58C137 55.4535 134.761 53 132 53ZM132 60C130.507 60 129 59.5 129 58C129 56.5349 130.507 55 132 55C133.455 55 134 56.5349 134 58C134 59.5 133.455 60 132 60Z" fill="white"/>
<path d="M67 57H63V53H61V62H63V59H67V62H69V53H67V57Z" fill="white"/>
<path d="M91 56C91 54.0843 89.9548 53 88 53H84V62H86V59H88L89 62H92L90 59C90.8688 58.5301 91 57.1566 91 56ZM88 57H86V55H88C88.6516 55 89 55.3855 89 56C89 56.6506 88.6878 57 88 57Z" fill="white"/>
<path d="M76 53L72 62H74L75 61H78L79 62H81L77 53H76ZM75 60L76 56V56L78 60H75Z" fill="white"/>
<path d="M36 50L40 45C40.2495 45.6541 41 46.1737 41 47H42C42 46.6901 42.0356 46.3099 42 46C41.8931 45.1737 41.3564 44.723 41 44L43 42L41 40L40 42C38.717 40.8294 36.2809 40 34 40C31.6478 40 30.3543 40.7606 29 42L27 40L26 41L28 43C27.1447 44.1362 26 45.4507 26 47H28C28 45.7261 28.3941 44.8607 29 44L39 55C38.5723 57.4789 37.3145 60 34 60C30.4004 60 29 57.0297 29 54H26C26 58.579 29.0105 62 34 62C39.239 62 42 58.4413 42 54H40L36 50ZM34 41C35.782 41 37.7883 41.8983 39 43L34 48L29 43C30.2474 41.8638 32.1824 41 34 41Z" fill="white"/>
</g>
<path d="M29.4593 28.8428V31.7971C28.4931 32.0386 27.3969 32.1594 26.1706 32.1594C23.6808 32.1594 21.3768 31.6299 19.2586 30.5708C17.159 29.5117 15.3753 27.9417 13.9075 25.8606C12.9041 26.1765 11.8729 26.3344 10.8138 26.3344C9.0301 26.3344 7.39502 25.9164 5.90858 25.0803C4.42215 24.2441 3.24229 23.1015 2.36901 21.6522C1.49573 20.1843 1.05909 18.5678 1.05909 16.8027C1.05909 15.0375 1.49573 13.4303 2.36901 11.9811C3.24229 10.5132 4.42215 9.36121 5.90858 8.52509C7.39502 7.68897 9.0301 7.27091 10.8138 7.27091C12.5975 7.27091 14.2326 7.68897 15.7191 8.52509C17.2241 9.36121 18.4132 10.5132 19.2865 11.9811C20.1784 13.4303 20.6243 15.0375 20.6243 16.8027C20.6243 18.3077 20.2991 19.7012 19.6488 20.9833C19.0171 22.2653 18.1438 23.343 17.029 24.2163C18.2739 25.8328 19.686 27.0219 21.2653 27.7837C22.8447 28.5641 24.7213 28.9543 26.8952 28.9543C27.2668 28.9543 28.1215 28.9171 29.4593 28.8428ZM4.93311 16.8027C4.93311 17.9732 5.18394 19.023 5.68562 19.9521C6.20587 20.8625 6.91193 21.5779 7.80379 22.0981C8.69565 22.5998 9.70828 22.8506 10.8417 22.8506C11.9565 22.8506 12.9599 22.5998 13.8517 22.0981C14.7622 21.5779 15.4682 20.8625 15.9699 19.9521C16.4901 19.023 16.7503 17.9732 16.7503 16.8027C16.7503 15.6507 16.4901 14.6195 15.9699 13.709C15.4682 12.78 14.7622 12.0554 13.8517 11.5351C12.9599 11.0149 11.9565 10.7547 10.8417 10.7547C9.70828 10.7547 8.69565 11.0149 7.80379 11.5351C6.91193 12.0368 6.20587 12.7521 5.68562 13.6812C5.18394 14.5916 4.93311 15.6321 4.93311 16.8027ZM29.8027 26.3344C28.5949 26.3344 27.4987 26.0743 26.5139 25.5541C25.5477 25.0152 24.786 24.2627 24.2285 23.2965C23.6897 22.3304 23.4203 21.2062 23.4203 19.9242V12.204H27.1828V20.2308C27.1828 21.0297 27.4244 21.6708 27.9075 22.1538C28.4091 22.6369 29.0409 22.8785 29.8027 22.8785C30.5273 22.8785 31.1312 22.6369 31.6143 22.1538C32.1159 21.6708 32.3668 21.0297 32.3668 20.2308V12.204H36.1293V19.9242C36.1293 21.2062 35.8506 22.3304 35.2932 23.2965C34.7544 24.2627 34.0019 25.0152 33.0357 25.5541C32.0695 26.0743 30.9918 26.3344 29.8027 26.3344ZM39.7268 12.204H43.4893V26H39.7268V12.204ZM41.5941 9.50057C40.9252 9.50057 40.3585 9.2776 39.894 8.83167C39.4295 8.38574 39.1973 7.83761 39.1973 7.1873C39.1973 6.5184 39.4295 5.96099 39.894 5.51506C40.3585 5.06913 40.9252 4.84616 41.5941 4.84616C42.263 4.84616 42.8297 5.06913 43.2943 5.51506C43.7773 5.96099 44.0189 6.5184 44.0189 7.1873C44.0189 7.83761 43.7773 8.38574 43.2943 8.83167C42.8297 9.2776 42.263 9.50057 41.5941 9.50057ZM53.817 26.3344C52.4606 26.3344 51.2157 26.0186 50.0823 25.3868C48.9675 24.7365 48.0756 23.8632 47.4067 22.767C46.7564 21.6522 46.4312 20.4259 46.4312 19.0881C46.4312 17.7503 46.7564 16.5333 47.4067 15.437C48.0756 14.3408 48.9675 13.4768 50.0823 12.845C51.2157 12.2133 52.4606 11.8974 53.817 11.8974C55.1733 11.8974 56.3625 12.204 57.3844 12.8172C58.4063 13.4117 59.2146 14.2386 59.8091 15.2977L57.1893 17.3322C56.762 16.7005 56.2789 16.2081 55.74 15.8551C55.2198 15.502 54.5973 15.3255 53.8727 15.3255C52.8136 15.3255 51.9403 15.6879 51.2529 16.4125C50.584 17.1185 50.2495 18.0104 50.2495 19.0881C50.2495 20.1843 50.584 21.0948 51.2529 21.8194C51.9403 22.5255 52.8136 22.8785 53.8727 22.8785C54.5788 22.8785 55.1919 22.7113 55.7122 22.3768C56.251 22.0238 56.7434 21.5314 57.1893 20.8997L59.8091 22.9064C59.2146 23.9654 58.397 24.8016 57.3565 25.4147C56.3346 26.0279 55.1547 26.3344 53.817 26.3344ZM71.8983 26L66.352 18.3634V26H62.5895V5.097H66.352V18.0847L71.313 12.204H75.7723L70.5883 18.3077L76.1903 26H71.8983ZM78.4359 7.60536H84.456C86.4069 7.60536 88.1442 7.98626 89.6678 8.74806C91.1914 9.50986 92.3712 10.5782 93.2074 11.9532C94.0621 13.3281 94.4894 14.9261 94.4894 16.7469C94.4894 18.5307 94.0621 20.1286 93.2074 21.5407C92.3712 22.9342 91.1914 24.0305 89.6678 24.8294C88.1442 25.6098 86.4069 26 84.456 26H78.4359V7.60536ZM84.4281 22.5998C85.6544 22.5998 86.7321 22.3582 87.6611 21.8751C88.6087 21.392 89.3333 20.7139 89.835 19.8406C90.3553 18.9487 90.6154 17.9175 90.6154 16.7469C90.6154 14.9632 90.0487 13.5604 88.9153 12.5385C87.8004 11.5165 86.3047 11.0056 84.4281 11.0056H82.1984V22.5998H84.4281ZM105.9 12.204V15.5206H104.897C103.764 15.5206 102.863 15.8272 102.194 16.4404C101.525 17.0349 101.19 17.9268 101.19 19.1159V26H97.4278V12.204H100.884V13.8484C101.348 13.2724 101.906 12.8265 102.556 12.5106C103.206 12.1947 103.912 12.0368 104.674 12.0368C105.139 12.0368 105.547 12.0925 105.9 12.204ZM113.619 11.8974C115.421 11.8974 116.852 12.4084 117.911 13.4303C118.988 14.4337 119.527 15.8922 119.527 17.806V26H116.071V24.6622C115.57 25.1825 114.956 25.5912 114.232 25.8885C113.526 26.1858 112.736 26.3344 111.863 26.3344C110.395 26.3344 109.234 25.9535 108.379 25.1918C107.524 24.4114 107.097 23.4173 107.097 22.2096C107.097 20.9647 107.561 19.9892 108.49 19.2832C109.438 18.5585 110.711 18.1962 112.309 18.1962H115.765V17.5831C115.765 16.8213 115.542 16.2267 115.096 15.7993C114.668 15.372 114.037 15.1583 113.201 15.1583C112.495 15.1583 111.863 15.3162 111.305 15.6321C110.748 15.9294 110.163 16.4032 109.55 17.0535L107.599 14.7403C109.197 12.845 111.203 11.8974 113.619 11.8974ZM112.866 23.5753C113.684 23.5753 114.371 23.3244 114.929 22.8227C115.486 22.3025 115.765 21.6429 115.765 20.8439V20.6767H112.81C112.197 20.6767 111.723 20.7975 111.389 21.039C111.055 21.262 110.887 21.6057 110.887 22.0702C110.887 22.5347 111.064 22.9064 111.417 23.1851C111.789 23.4452 112.272 23.5753 112.866 23.5753ZM130.06 8.1349C129.206 8.1349 128.574 8.30213 128.165 8.63657C127.756 8.95244 127.552 9.50057 127.552 10.2809V12.204H130.59V15.3813H127.552V26H123.789V15.3813H121.838V12.204H123.789V9.9465C123.789 8.21851 124.263 6.92717 125.211 6.07247C126.158 5.19919 127.459 4.76255 129.113 4.76255C129.837 4.76255 130.525 4.86474 131.175 5.06913V8.21851C130.766 8.16277 130.395 8.1349 130.06 8.1349ZM140.83 22.8506V26C139.938 26.223 139.074 26.3344 138.238 26.3344C136.491 26.3344 135.135 25.9071 134.169 25.0524C133.202 24.1791 132.719 22.8785 132.719 21.1505V15.3813H130.545V12.204H132.719V8.72019H136.482V12.204H140.384V15.3813H136.482V20.8161C136.482 21.5964 136.686 22.1538 137.095 22.4883C137.504 22.8042 138.154 22.9621 139.046 22.9621C139.269 22.9621 139.863 22.9249 140.83 22.8506Z" fill="white"/>
<path d="M11 50C11.8661 50.923 12 52.5839 12 54C12 55.4161 11.8661 56.0644 11 57C10.1339 57.923 8.32467 59 7 59C5.66259 59 4.68781 57.923 4 57V58H2V44H5V50C5.68781 49.254 5.8027 49 7 49C8.32467 49 10.1339 49.0644 11 50ZM9 54C9 53.2414 9.47128 52.4804 9 52C8.54146 51.5196 7.70055 51 7 51C6.31219 51 5.45854 51.5322 5 52C4.5542 52.4552 5 53.1908 5 54C5 54.8092 4.5542 55.5448 5 56C5.45854 56.4552 6.31219 56 7 56C7.71328 56 8.54146 55.4804 9 55C9.45854 54.5196 9 54.7712 9 54Z" fill="white"/>
<path d="M20 49H23L18 59C17.5669 59.9735 17.5986 60.5448 17 61C16.4014 61.4552 15.8789 62 15 62C14.465 62 13.5732 62.1517 13 62V60C13.5222 60.0506 13.7835 60 14 60C14.484 60 14.6943 59.1897 15 59C15.3057 58.8103 15.7835 58.4678 16 58V58L13 49H16L18 55L20 49Z" fill="white"/>
<defs>
<clipPath id="clip0_1_225">
<rect width="111" height="22" fill="white" transform="translate(26 40)"/>
</clipPath>
</defs>
</svg>
