<svg width="469" height="309" viewBox="0 0 469 309" fill="none" xmlns="http://www.w3.org/2000/svg">
<mask id="mask0_1_396" style="mask-type:alpha" maskUnits="userSpaceOnUse" x="0" y="0" width="469" height="309">
<path d="M0 5C0 2.23858 2.23858 0 5 0H464C466.761 0 469 2.23858 469 5V304C469 306.761 466.761 309 464 309H5.00001C2.23859 309 0 306.761 0 304V5Z" fill="#D6D6E7"/>
</mask>
<g mask="url(#mask0_1_396)">
<rect x="-6" y="-52" width="481" height="364" fill="#474864"/>
</g>
<path d="M363 251C363 251 389.344 257.484 402 230C418.41 194.33 394.738 159.427 355 157C297.701 153.487 329.422 62.2752 239 87C213.567 93.95 158.548 58.1981 126 119C120.459 129.342 104.041 129.361 81.9998 147C43.109 178.117 56.2401 251.668 88.9998 252C121.759 252.317 363 251 363 251Z" fill="white"/>
<path d="M94 252C94 252 94.7207 244.072 110 242C125.279 239.928 139.813 222.585 165 225C190.187 227.415 211.323 242.651 240 238C268.677 233.364 286.567 239.334 293 244C299.433 248.666 326.027 243.458 328 252H94Z" fill="#DDDDDD"/>
<path d="M149.99 65.3186L149.99 65.3188H150H259.681V145.681H140.606C144.434 139.935 144.887 132.844 144.379 127.166C144.117 124.239 143.598 121.674 143.145 119.84C142.918 118.923 142.708 118.189 142.554 117.682C142.477 117.429 142.414 117.233 142.37 117.1C142.348 117.033 142.331 116.982 142.319 116.948L142.309 116.919C137.518 90.6856 139.534 77.7779 142.686 71.442C144.257 68.282 146.11 66.7587 147.546 66.021C148.266 65.6511 148.886 65.4758 149.322 65.3928C149.54 65.3513 149.712 65.3329 149.827 65.3248C149.885 65.3208 149.928 65.3193 149.956 65.3188C149.969 65.3185 149.979 65.3185 149.985 65.3186L149.99 65.3186Z" fill="white" stroke="#35354E" stroke-width="0.637608"/>
<path d="M169 201C169 201 160.521 191.805 168 186C168 186 173.549 182.747 178 183C178 183 171.956 193.958 174 195C176.044 196.042 180 182 180 182C180 182 193.003 181.11 197 183C197 183 185.759 191.479 188 192C190.241 192.506 202 184 202 184C202 184 213.606 186.064 213 193C212.394 199.936 208.756 202.179 207 202C205.244 201.821 194.227 198.586 194 200C193.773 201.414 200.685 205.792 205 206C205 206 196.42 215.545 191 213C185.58 210.44 185.376 205.518 182 204C178.624 202.482 175.607 202.452 177 204C178.393 205.548 184.062 207.636 186 211C187.938 214.364 189.601 216.834 184 216C178.383 215.166 169.394 210.614 169 206C168.606 201.386 169 201 169 201Z" fill="#599DAD"/>
<path d="M207 193C207 193 175.879 191.874 169 201C169 201 167.686 205.76 163 210L162 212C162 212 167.077 206.353 169 206C169 205.985 166.311 194.367 207 193Z" fill="#599DAD"/>
<path d="M162 210C162 210 155.496 214.887 155 224H156C156 224 157.872 214.689 162 211C166.112 207.327 162 210 162 210Z" fill="#B8B8B8"/>
<path d="M139 190C139 190 150.834 182.643 145 173C145 173 141.011 167.516 136 166C136 166 138.678 179.666 136 180C133.322 180.334 134 164 134 164C134 164 122.176 157.5 117 158C117 158 125.678 172.349 123 172C120.322 171.666 111 157 111 157C111 157 97.184 154.874 95 163C92.816 171.126 95.9955 175.484 98 176C100.005 176.5 113.344 176.302 113 178C112.671 179.698 103.847 182.516 99 181C99 181 103.984 193.682 111 193C118.016 192.318 120.647 188.334 125 188C129.338 187.666 130.169 188.817 128 190C125.831 191.183 120.515 189.983 117 193C113.5 196.017 110.493 197.635 117 199C123.507 200.349 133.666 200.079 136 195C138.334 189.921 139 190 139 190Z" fill="#DDDDDD"/>
<path d="M101 165C101 165 136.936 176.221 141 189C141 189 140.452 194.452 144 201V204C144 204 140.031 195.189 138 194C138.015 194 146.198 183.153 101 165Z" fill="#B8B8B8"/>
<path d="M144 202C144 202 149.074 209.673 146 220H145C145 220 145.807 208.727 143 203C140.208 197.273 144 202 144 202Z" fill="#B8B8B8"/>
<path d="M161 179C161 179 144.239 169.72 152 157C152 157 158.339 149.016 165 147C165 147 161.443 166.545 165 167C168.557 167.44 167 145 167 145C167 145 185.128 137.333 192 138C192 138 180.458 156.455 184 156C187.542 155.545 200 136 200 136C200 136 218.106 133.281 221 144C223.878 154.719 219.652 160.333 217 161C214.348 161.667 196.563 160.756 197 163C197.437 165.229 209.565 169.016 216 167C216 167 208.314 184.895 199 184C189.686 183.105 186.757 177.44 181 177C175.228 176.56 171.122 177.438 174 179C176.878 180.562 187.343 180.012 192 184C196.657 187.987 199.651 190.226 191 192C182.349 193.789 167.12 192.686 164 186C160.895 179.283 161 179 161 179Z" fill="#DDDDDD"/>
<path d="M213 148C213 148 165.383 162.966 160 180C160 180 160.712 188.247 156 197V200C156 200 161.316 188.568 164 187C163.985 186.985 153.057 172.204 213 148Z" fill="#B8B8B8"/>
<path d="M157 196C157 196 148.67 206.703 153 220H155C155 220 153.036 205.365 157 198C160.964 190.65 157 196 157 196Z" fill="#B8B8B8"/>
<path d="M160 249C178.221 249 193 234.232 193 216H127C127 234.232 141.779 249 160 249Z" fill="#B8B8B8"/>
<path d="M168 249C166.661 249.167 165.385 249 164 249C145.827 249 131 234.15 131 216H139C139 232.752 151.76 246.98 168 249Z" fill="#DDDDDD"/>
<path d="M193 216H126V217H193V216Z" fill="#B8B8B8"/>
<path fill-rule="evenodd" clip-rule="evenodd" d="M279 92L278.999 92.0004C278.997 92.0028 278.983 92.0158 278.96 92.0608C278.619 92.5697 276.088 96.1728 271 99C271 99 263.399 103.374 261 112H262C262 112 266.412 103.678 271 101C272.828 99.9259 273.189 99.3917 272.967 99.1371C274.786 98.0707 276.96 96.9519 278 97C278 97 278 96.9958 278.001 96.9876C278.003 96.952 278.01 96.8405 278.045 96.6708C278.03 96.778 278.015 96.8878 278 97C277.364 101.729 285.719 107.919 291 110C295.825 111.902 295.285 110.157 294.29 106.946L294.29 106.946C294.196 106.643 294.098 106.327 294 106C293.288 103.62 290.722 101.42 288.657 99.6496C287.429 98.5969 286.378 97.6962 286 97C284.986 95.1329 288.049 95.735 291 98C292.309 99.0047 292.905 100.542 293.575 102.269C294.416 104.437 295.373 106.905 298 109C302.721 112.749 313 105 313 105C308.824 103.822 303.47 98.362 304 97C304.374 96.0383 309.372 98.6371 312.864 100.453C314.318 101.209 315.511 101.829 316 102C317.664 102.582 321.851 100.826 324 94C326.149 87.1743 315 83 315 83C315 83 302.073 89.0101 300 88C297.927 86.9899 310 81 310 81C306.535 78.2299 294 76 294 76C294 76 286.755 88.4845 285 87C283.245 85.5155 292 76 292 76C287.718 74.745 282 77 282 77C273.424 81.1538 278.976 91.9537 279 91.9998L279 92Z" fill="#DDDDDD"/>
<path d="M241 72C241 72 224.574 63.8165 232 51C232 51 238.377 43.1911 245 41C245 41 241.423 59.6698 245 60C248.577 60.3301 247 38 247 38C247 38 264.074 29.5347 271 30C271 30 260.438 48.5552 264 48C267.562 47.4597 280 29 280 29C280 29 297.787 24.4946 301 35C304.213 45.5203 299.652 51.2646 297 52C294.348 52.7353 277.485 52.7938 278 55C278.515 57.1911 289.589 60.1761 296 58C296 58 289.396 76.6003 280 76C270.604 75.3997 267.82 69.2701 262 69C256.195 68.7298 252.06 70.5292 255 72C257.94 73.4707 267.211 72.203 272 76C276.804 79.7969 280.654 81.9739 272 84C263.361 86.026 248.334 85.5283 245 79C241.711 72.4416 241 72 241 72Z" fill="#DDDDDD"/>
<path d="M292 39C292 39 245.833 55.04 241 72C241 72 241.41 80.2343 237 89V92C237 92 241.372 80.6238 244 79C243.985 78.985 233.391 64.6505 292 39Z" fill="#B8B8B8"/>
<path d="M237 89C237 89 230.439 99.9447 235 113L236 112C236 112 234.403 98.4109 238 91C241.581 83.589 237 89 237 89Z" fill="#6BB7BF"/>
<path d="M367 252H318C315.382 249.748 319.418 244.349 324 244C325.995 243.841 329.101 244.397 332 245C332.655 235.958 336.6 195.35 351 197C367.177 198.84 350.582 215.482 346 225C342.602 232.043 338.652 241.241 337 246C338.309 246.286 339.629 246.746 341 247C343.151 240.306 351.87 217.668 362 219C373.907 220.523 369.447 229.607 361 235C354.797 238.934 346.616 245.272 343 248C346.055 248.508 349.758 248.095 353 248C361.353 247.778 365.41 250.668 367 252Z" fill="#DDDDDD"/>
<mask id="path-23-inside-1_1_396" fill="white">
<path fill-rule="evenodd" clip-rule="evenodd" d="M162 96H162V252H283V96H282L282.001 95.9983C282.102 95.7844 285.975 87.5937 284 79C283.97 78.862 283.986 78.6922 284.004 78.5212C284.022 78.336 284.041 78.1493 284 78C281.925 70.4693 276.794 65 267 65H151C151 65 156.887 67.1234 160 76C161.619 80.6122 162.676 87.1537 162 96Z"/>
</mask>
<path fill-rule="evenodd" clip-rule="evenodd" d="M162 96H162V252H283V96H282L282.001 95.9983C282.102 95.7844 285.975 87.5937 284 79C283.97 78.862 283.986 78.6922 284.004 78.5212C284.022 78.336 284.041 78.1493 284 78C281.925 70.4693 276.794 65 267 65H151C151 65 156.887 67.1234 160 76C161.619 80.6122 162.676 87.1537 162 96Z" fill="white"/>
<path d="M162 96H162.638V95.3624H162V96ZM162 96L161.364 95.9514L161.312 96.6376H162V96ZM162 252H161.362V252.638H162V252ZM283 252V252.638H283.638V252H283ZM283 96H283.638V95.3624H283V96ZM282 96L281.423 95.7275L280.993 96.6376H282V96ZM282.001 95.9983L281.424 95.7257L281.424 95.7258L282.001 95.9983ZM284 79L283.377 79.1363L283.378 79.1428L284 79ZM284.004 78.5212L284.638 78.5844L284.638 78.5844L284.004 78.5212ZM284 78L284.615 77.8318L284.614 77.8306L284 78ZM151 65V64.3624L150.783 65.5998L151 65ZM160 76L159.398 76.211L159.398 76.2112L160 76ZM162 95.3624H162V96.6376H162V95.3624ZM161.362 96V252H162.638V96H161.362ZM162 252.638H283V251.362H162V252.638ZM283.638 252V96H282.362V252H283.638ZM283 95.3624H282V96.6376H283V95.3624ZM281.424 95.7258L281.423 95.7275L282.576 96.2725L282.577 96.2708L281.424 95.7258ZM283.378 79.1428C285.301 87.5095 281.519 95.5258 281.424 95.7257L282.577 96.2708C282.685 96.043 286.648 87.6779 284.621 78.8572L283.378 79.1428ZM283.369 78.4579C283.355 78.5969 283.321 78.8787 283.377 79.1363L284.623 78.8637C284.623 78.8675 284.619 78.8494 284.621 78.7933C284.623 78.7376 284.629 78.6744 284.638 78.5844L283.369 78.4579ZM283.385 78.1682C283.382 78.1592 283.388 78.1744 283.386 78.2338C283.385 78.2928 283.379 78.3602 283.369 78.4579L284.638 78.5844C284.653 78.4369 284.693 78.119 284.615 77.8318L283.385 78.1682ZM267 65.6376C271.772 65.6376 275.351 66.967 277.986 69.1655C280.627 71.3697 282.372 74.4929 283.385 78.1694L284.614 77.8306C283.552 73.9763 281.694 70.5996 278.803 68.1864C275.904 65.7676 272.022 64.3624 267 64.3624V65.6376ZM151 65.6376H267V64.3624H151V65.6376ZM160.601 75.789C159.007 71.242 156.692 68.4015 154.754 66.693C153.787 65.8401 152.916 65.272 152.281 64.9147C151.963 64.7361 151.704 64.6101 151.521 64.5274C151.43 64.4861 151.357 64.4556 151.305 64.4348C151.28 64.4244 151.259 64.4164 151.244 64.4107C151.237 64.4078 151.231 64.4055 151.226 64.4038C151.224 64.4029 151.222 64.4022 151.22 64.4016C151.219 64.4013 151.218 64.401 151.218 64.4008C151.217 64.4007 151.217 64.4005 151.217 64.4005C151.216 64.4003 151.216 64.4002 151 65C150.783 65.5998 150.783 65.5997 150.783 65.5996C150.783 65.5995 150.782 65.5994 150.782 65.5994C150.782 65.5993 150.782 65.5992 150.782 65.5992C150.782 65.5991 150.782 65.5992 150.782 65.5994C150.783 65.5997 150.786 65.6006 150.789 65.602C150.797 65.6049 150.81 65.6099 150.828 65.6172C150.864 65.6319 150.921 65.6557 150.997 65.6897C151.148 65.7579 151.373 65.8671 151.656 66.0262C152.222 66.3445 153.017 66.862 153.911 67.6496C155.695 69.2219 157.88 71.8815 159.398 76.211L160.601 75.789ZM162.636 96.0486C163.317 87.1286 162.254 80.4969 160.601 75.7888L159.398 76.2112C160.984 80.7275 162.034 87.1787 161.364 95.9514L162.636 96.0486Z" fill="#35354E" mask="url(#path-23-inside-1_1_396)"/>
<path d="M214.104 89.131C213.334 89.131 212.631 88.9524 211.996 88.5952C211.369 88.238 210.873 87.7498 210.508 87.1307C210.143 86.5116 209.96 85.8249 209.96 85.0709C209.96 84.3168 210.143 83.6302 210.508 83.0111C210.873 82.3919 211.373 81.9038 212.008 81.5466C212.643 81.1894 213.342 81.0108 214.104 81.0108C214.786 81.0108 215.405 81.1536 215.961 81.4394C216.517 81.7252 216.981 82.13 217.354 82.6539L216.437 83.404C215.85 82.5785 215.068 82.1657 214.092 82.1657C213.544 82.1657 213.056 82.2927 212.627 82.5467C212.199 82.7928 211.865 83.1381 211.627 83.5826C211.389 84.0191 211.27 84.5113 211.27 85.059C211.27 85.6146 211.393 86.1186 211.639 86.5711C211.885 87.0156 212.226 87.3648 212.663 87.6189C213.1 87.8729 213.6 87.9999 214.163 87.9999C214.679 87.9999 215.136 87.8967 215.532 87.6903C215.937 87.476 216.263 87.1823 216.509 86.8092V85.9639H214.092V84.8446H217.771V87.0592C217.422 87.6863 216.922 88.1904 216.271 88.5714C215.62 88.9444 214.897 89.131 214.104 89.131ZM219.32 81.1417H220.582V89H219.32V81.1417ZM226.231 89.131C225.461 89.131 224.759 88.9524 224.124 88.5952C223.497 88.238 223 87.7498 222.635 87.1307C222.27 86.5116 222.088 85.8249 222.088 85.0709C222.088 84.3168 222.27 83.6302 222.635 83.0111C223 82.3919 223.5 81.9038 224.135 81.5466C224.77 81.1894 225.469 81.0108 226.231 81.0108C226.914 81.0108 227.533 81.1536 228.088 81.4394C228.644 81.7252 229.108 82.13 229.481 82.6539L228.565 83.404C227.977 82.5785 227.195 82.1657 226.219 82.1657C225.671 82.1657 225.183 82.2927 224.755 82.5467C224.326 82.7928 223.993 83.1381 223.754 83.5826C223.516 84.0191 223.397 84.5113 223.397 85.059C223.397 85.6146 223.52 86.1186 223.766 86.5711C224.012 87.0156 224.354 87.3648 224.79 87.6189C225.227 87.8729 225.727 87.9999 226.291 87.9999C226.807 87.9999 227.263 87.8967 227.66 87.6903C228.065 87.476 228.39 87.1823 228.636 86.8092V85.9639H226.219V84.8446H229.898V87.0592C229.549 87.6863 229.049 88.1904 228.398 88.5714C227.747 88.9444 227.025 89.131 226.231 89.131ZM231.042 84.6899H233.971V85.7495H231.042V84.6899ZM194.715 104.131C193.961 104.131 193.266 103.952 192.631 103.595C192.004 103.238 191.504 102.75 191.131 102.131C190.766 101.512 190.583 100.825 190.583 100.071C190.583 99.3168 190.766 98.6302 191.131 98.0111C191.504 97.3919 192.004 96.9038 192.631 96.5466C193.266 96.1894 193.961 96.0108 194.715 96.0108C195.437 96.0108 196.092 96.1735 196.679 96.4989C197.275 96.8244 197.743 97.2649 198.084 97.8205L197.132 98.523C196.854 98.0865 196.513 97.7531 196.108 97.5229C195.703 97.2848 195.243 97.1657 194.727 97.1657C194.195 97.1657 193.711 97.2927 193.274 97.5467C192.845 97.7928 192.508 98.1381 192.262 98.5826C192.016 99.0271 191.893 99.5232 191.893 100.071C191.893 100.619 192.016 101.115 192.262 101.559C192.508 102.004 192.845 102.353 193.274 102.607C193.711 102.853 194.195 102.976 194.727 102.976C195.243 102.976 195.703 102.861 196.108 102.631C196.513 102.393 196.854 102.055 197.132 101.619L198.084 102.321C197.751 102.877 197.286 103.317 196.691 103.643C196.104 103.968 195.445 104.131 194.715 104.131ZM203.179 104.131C202.425 104.131 201.731 103.952 201.096 103.595C200.468 103.238 199.972 102.75 199.607 102.131C199.242 101.512 199.06 100.825 199.06 100.071C199.06 99.3168 199.242 98.6302 199.607 98.0111C199.98 97.3919 200.48 96.9038 201.107 96.5466C201.734 96.1894 202.425 96.0108 203.179 96.0108C203.925 96.0108 204.616 96.1894 205.251 96.5466C205.886 96.9038 206.386 97.3919 206.751 98.0111C207.124 98.6302 207.311 99.3168 207.311 100.071C207.311 100.825 207.124 101.512 206.751 102.131C206.386 102.75 205.886 103.238 205.251 103.595C204.616 103.952 203.925 104.131 203.179 104.131ZM203.191 102.976C203.723 102.976 204.203 102.853 204.632 102.607C205.06 102.353 205.398 102.004 205.644 101.559C205.89 101.115 206.013 100.615 206.013 100.059C206.013 99.5192 205.89 99.0271 205.644 98.5826C205.398 98.1381 205.06 97.7928 204.632 97.5467C204.203 97.2927 203.723 97.1657 203.191 97.1657C202.651 97.1657 202.167 97.2927 201.738 97.5467C201.31 97.7928 200.972 98.1381 200.726 98.5826C200.488 99.0191 200.369 99.5113 200.369 100.059C200.369 100.615 200.488 101.115 200.726 101.559C200.972 102.004 201.31 102.353 201.738 102.607C202.167 102.853 202.651 102.976 203.191 102.976ZM215.303 96.1417V104.131H214.875L210.088 98.6778V104H208.826V96.0108H209.267L214.041 101.44V96.1417H215.303ZM219.136 97.2729H216.493V96.1417H223.054V97.2729H220.398V104H219.136V97.2729ZM229.174 104L226.935 100.964H225.494V104H224.232V96.1417H227.102C227.626 96.1417 228.09 96.2449 228.495 96.4513C228.9 96.6497 229.213 96.9315 229.435 97.2967C229.658 97.6618 229.769 98.0785 229.769 98.5468C229.769 99.0628 229.634 99.5152 229.364 99.9042C229.094 100.293 228.725 100.579 228.257 100.761L230.614 104H229.174ZM225.494 99.8446H227.078C227.515 99.8446 227.856 99.7256 228.102 99.4875C228.348 99.2493 228.471 98.9398 228.471 98.5587C228.471 98.1698 228.348 97.8563 228.102 97.6181C227.856 97.38 227.515 97.2609 227.078 97.2609H225.494V99.8446ZM236.459 102.69H232.922L232.363 104H231.017L234.482 96.0108H234.911L238.376 104H237.018L236.459 102.69ZM234.696 98.3563L233.375 101.607H236.006L234.696 98.3563ZM243.096 104.131C242.342 104.131 241.648 103.952 241.013 103.595C240.386 103.238 239.886 102.75 239.512 102.131C239.147 101.512 238.965 100.825 238.965 100.071C238.965 99.3168 239.147 98.6302 239.512 98.0111C239.886 97.3919 240.386 96.9038 241.013 96.5466C241.648 96.1894 242.342 96.0108 243.096 96.0108C243.819 96.0108 244.473 96.1735 245.061 96.4989C245.656 96.8244 246.124 97.2649 246.466 97.8205L245.513 98.523C245.235 98.0865 244.894 97.7531 244.489 97.5229C244.085 97.2848 243.624 97.1657 243.108 97.1657C242.576 97.1657 242.092 97.2927 241.656 97.5467C241.227 97.7928 240.89 98.1381 240.644 98.5826C240.397 99.0271 240.274 99.5232 240.274 100.071C240.274 100.619 240.397 101.115 240.644 101.559C240.89 102.004 241.227 102.353 241.656 102.607C242.092 102.853 242.576 102.976 243.108 102.976C243.624 102.976 244.085 102.861 244.489 102.631C244.894 102.393 245.235 102.055 245.513 101.619L246.466 102.321C246.132 102.877 245.668 103.317 245.073 103.643C244.485 103.968 243.827 104.131 243.096 104.131ZM249.821 97.2729H247.178V96.1417H253.738V97.2729H251.083V104H249.821V97.2729Z" fill="#35364E"/>
<path d="M182.739 140.649V149H181.398V142.231L179.703 142.775L179.374 141.598L182.271 140.649H182.739Z" fill="#35364E"/>
<path d="M184.326 178.836V180H178.341V179.696L181.315 176.495C181.779 176.006 182.116 175.593 182.327 175.255C182.538 174.909 182.643 174.559 182.643 174.205C182.643 173.783 182.517 173.433 182.264 173.155C182.011 172.876 181.673 172.737 181.251 172.737C180.83 172.737 180.488 172.885 180.227 173.18C179.965 173.467 179.834 173.825 179.834 174.256C179.834 174.433 179.855 174.648 179.898 174.901H178.544C178.485 174.673 178.455 174.433 178.455 174.18C178.455 173.724 178.569 173.294 178.797 172.889C179.025 172.476 179.349 172.143 179.771 171.89C180.201 171.637 180.699 171.51 181.264 171.51C181.795 171.51 182.268 171.624 182.681 171.852C183.103 172.079 183.432 172.391 183.668 172.788C183.913 173.176 184.035 173.615 184.035 174.104C184.035 174.669 183.883 175.188 183.58 175.66C183.284 176.124 182.846 176.664 182.264 177.28L180.796 178.836H184.326Z" fill="#35364E"/>
<path d="M182.166 203.749C182.782 203.85 183.305 204.124 183.735 204.572C184.165 205.019 184.38 205.601 184.38 206.318C184.38 206.874 184.241 207.368 183.963 207.798C183.685 208.228 183.313 208.561 182.849 208.798C182.385 209.025 181.879 209.139 181.331 209.139C180.656 209.139 180.066 208.975 179.56 208.646C179.062 208.308 178.674 207.87 178.396 207.33L179.332 206.672C179.585 207.06 179.868 207.364 180.18 207.583C180.492 207.802 180.863 207.912 181.293 207.912C181.791 207.912 182.2 207.768 182.52 207.482C182.841 207.186 183.001 206.803 183.001 206.33C183.001 205.858 182.833 205.495 182.495 205.242C182.166 204.989 181.694 204.863 181.078 204.863H180.154V204.496L182.103 201.876H178.99V200.649H184.191V201.016L182.166 203.749Z" fill="#35364E"/>
<line x1="189" y1="138.684" x2="258" y2="138.684" stroke="#35364E" stroke-width="0.632638"/>
<line x1="189" y1="169.684" x2="258" y2="169.684" stroke="#35364E" stroke-width="0.632638"/>
<line x1="189" y1="198.684" x2="258" y2="198.684" stroke="#35364E" stroke-width="0.632638"/>
<line x1="189" y1="216.684" x2="258" y2="216.684" stroke="#35364E" stroke-width="0.632638"/>
<line x1="189" y1="221.684" x2="258" y2="221.684" stroke="#35364E" stroke-width="0.632638"/>
<line x1="189" y1="226.684" x2="258" y2="226.684" stroke="#35364E" stroke-width="0.632638"/>
<line x1="189" y1="231.684" x2="231" y2="231.684" stroke="#35364E" stroke-width="0.632638"/>
<line x1="189" y1="147.684" x2="228" y2="147.684" stroke="#35364E" stroke-width="0.632638"/>
<line x1="189" y1="178.684" x2="228" y2="178.684" stroke="#35364E" stroke-width="0.632638"/>
<line x1="189" y1="207.684" x2="228" y2="207.684" stroke="#35364E" stroke-width="0.632638"/>
<path d="M223 157C208.355 157 194.371 155.282 184 153C173.542 150.688 168 147.355 168 144C168 140.962 172.296 138.252 181 136C172.679 138.146 169 141.234 169 144C169 147.053 173.924 149.778 184 152C194.319 154.282 208.39 156 223 156C237.61 156 251.681 154.282 262 152C272.058 149.778 277 147.068 277 144C277 140.766 271.78 136.234 262 133C250.882 129.312 236.776 128 223 128C197.133 128 186.242 130.705 177 134C186.276 130.69 197.046 127 223 127C236.828 127 250.812 129.297 262 133C271.989 136.31 278 140.554 278 144C278 147.34 272.458 149.688 262 152C251.646 154.282 237.644 157 223 157Z" fill="#B5453C"/>
<path d="M300 177C300 177 299.414 180.207 299 181C298.586 181.793 296.76 184.502 296 185C295.24 185.498 296.166 181.746 296 181C295.848 180.254 295.345 181.953 295 182C294.655 182.047 295.014 180.684 295 180C294.986 179.316 296.42 178.477 297 177C297.594 175.523 300 177 300 177Z" fill="#FFB27D"/>
<path d="M250 140L249 138C249 138 248.9 134.943 245 133C245 133 243.807 132.852 243 134C242.253 135.06 245.12 134.205 245 136C244.88 137.81 245.775 139.411 247 140L248 141L250 140Z" fill="#FFB27D"/>
<path d="M287 136C287 136 283.616 152.477 265 158C259.197 159.718 246 140 246 140C246 140 246.091 138.586 249 139C249 139 262.372 147.049 264 148C265.432 148.828 274.689 137.872 279 136C283.296 134.128 287 136 287 136Z" fill="#233862"/>
<path d="M237.456 133.035L237 136L254.792 138.729L255.248 135.764L237.456 133.035Z" fill="url(#paint0_linear_1_396)"/>
<path d="M234 133L238 135V132L234 133Z" fill="#FFB27D"/>
<path fill-rule="evenodd" clip-rule="evenodd" d="M236 134.5L234 133L236 132.5V134.5Z" fill="#B5453C"/>
<path d="M257 137V138C256.912 138.735 256.564 139.117 256 139H255V135H256C256.527 135.1 257.088 136.299 257 137Z" fill="#FFB27D"/>
<path d="M310 240C310 240 312.422 242.35 312 244C311.578 245.65 309.267 246.967 309 249C308.733 251.017 307.957 252 307 252C306.058 252 302 252 302 252C302 252 301.326 250.433 303 250C304.688 249.567 305.113 247.217 305 245C304.902 242.8 306 240 306 240L309 239L310 240Z" fill="#3761B7"/>
<path d="M282 246C282 246 282.036 251.459 281 252H268C268 252 267.867 250.36 270 250C272.133 249.64 276.366 247.948 277 245C277.634 242.052 282 246 282 246Z" fill="#3761B7"/>
<path d="M271 177C271 177 271.191 185.853 272 196C273.079 209.76 274.88 226.794 275 230C275.225 235.565 276 245 276 245C276 245 278.744 246.892 283 246C283 246 285.921 232.443 287 219C287.015 218.773 286.985 219.227 287 219C288.004 205.315 290 176 290 176L271 177Z" fill="#F99746"/>
<path d="M271 178C271 178 271.191 186.89 272 197L287 220C287.015 219.774 286.985 219.226 287 219C288.004 205.365 290 177 290 177L271 178Z" fill="#ED7D2B"/>
<path d="M274 179C274 179 285.923 209.593 294 224C302.077 238.407 305 242 305 242C305 242 309.58 240.26 310 239C310 239 307.405 210.771 302 204C298.937 200.174 295.165 189.023 295 185C294.835 180.977 294 173 294 173L274 179Z" fill="#F99746"/>
<path d="M290 131C290 131 281.756 135.428 277 134C277 134 277.958 132.068 280 131C279.836 130.077 280.075 129.678 280 129C279.806 127.427 280 126 280 126L283 123L286 121C285.747 127.521 290 131 290 131Z" fill="#FFB27D"/>
<path d="M295 175C295.015 175.507 293.489 175.776 293 176C289.381 177.55 285.817 178.627 282 179C277.48 179.447 272.848 177.97 271 178C270.817 178 270.153 178.119 270 178C269.863 177.911 269.908 172.691 270 166C270 165.732 269.985 165.268 270 165V165C270.031 162.392 269.878 159.742 270 157C270.26 150.98 271.175 145.204 272 142C272.992 138.215 274.954 135.818 277 134L279 132C280.68 132.328 282.214 132.849 284 132C285.954 131.076 288.664 129.747 289 130C291.55 131.818 293.084 135.769 294 141C294.519 144.01 295.031 147.468 295 151C295 152.296 295.076 153.674 295 155C294.557 162.123 294.74 168.409 295 172C295.092 173.028 294.969 174.434 295 175Z" fill="#51638D"/>
<path d="M295 174C265.243 173.94 289 143 289 143L294 141C294.384 144.233 295.015 148.214 295 152C295 153.392 295.046 154.578 295 156C294.662 163.648 294.8 170.154 295 174Z" fill="#233862"/>
<path d="M285 124C285 124 282.707 127.95 279 129C278.819 127.388 279 126 279 126L282 124H285Z" fill="#ED975D"/>
<path d="M277 126C277 126 284.247 126.632 285 122C285.753 117.354 287.046 113.986 282 113C276.954 112.014 277.648 114.499 277 116C276.352 117.501 274.952 125.557 277 126Z" fill="#FFB27D"/>
<path d="M288 113C288.07 112.924 288.664 113.015 289 113C289 113 288.364 112.015 288 112C287.93 111.48 287.827 111.214 287 111C287 111 287.944 111.45 288 112C287.047 110.93 283.677 109.511 278 110C270.528 110.642 273.033 116.374 274 117C274.967 117.626 278.206 115.847 280 116C281.808 116.153 282.383 118.603 283 119C283.617 119.382 283.159 119.397 284 119C284.827 118.587 285.238 120.022 285 121C284.762 121.978 286 123 286 123C286 123 285.851 123.345 287 122C288.149 120.655 289.519 114.222 289 113C288.944 112.878 288.056 113.107 288 113Z" fill="#2C3A64"/>
<path d="M288 130C288 130 293.546 132.325 296 136C299.804 141.702 303.908 162.079 304 164C304.077 165.921 301 180 301 180C301 180 296.859 179.679 296 178C296 178 297.429 163.907 297 163C296.571 162.108 282.482 144.796 284 141C285.534 137.204 288 130 288 130Z" fill="#51638D"/>
<path d="M250 138C250 138 249.751 137.519 249 137C248.249 136.481 247.315 134.806 247 135C246.354 135.405 247.195 136.444 247 138C246.955 138.535 249.054 139.718 250 138Z" fill="#FFB27D"/>
<path d="M127 241C127 241 115.754 210.996 107 216C98.2459 221.004 127 241 127 241Z" fill="#DDDDDD"/>
<path d="M120 240C120 240 104.113 226.675 97 229C89.8868 231.311 120 240 120 240Z" fill="#DDDDDD"/>
<path d="M287 245C287 245 290.588 232.576 295 234C299.428 235.424 287 245 287 245Z" fill="#DDDDDD"/>
<path d="M290 245C290 245 299.123 238.214 301 240C302.877 241.815 290 245 290 245Z" fill="#DDDDDD"/>
<mask id="mask1_1_396" style="mask-type:alpha" maskUnits="userSpaceOnUse" x="0" y="251" width="469" height="58">
<path d="M0 256C0 253.239 2.23858 251 5 251H464C466.761 251 469 253.239 469 256V304C469 306.761 466.761 309 464 309H5.00001C2.23859 309 0 306.761 0 304V256Z" fill="#D6D6E7"/>
</mask>
<g mask="url(#mask1_1_396)">
<rect x="-6" y="241" width="481" height="68" fill="#35364E"/>
</g>
<path d="M21.85 275.165C20.9 275.165 20.025 274.94 19.225 274.49C18.435 274.04 17.805 273.425 17.335 272.645C16.875 271.865 16.645 271 16.645 270.05C16.645 269.1 16.875 268.235 17.335 267.455C17.805 266.675 18.435 266.06 19.225 265.61C20.025 265.16 20.9 264.935 21.85 264.935C22.76 264.935 23.585 265.14 24.325 265.55C25.075 265.96 25.665 266.515 26.095 267.215L24.895 268.1C24.545 267.55 24.115 267.13 23.605 266.84C23.095 266.54 22.515 266.39 21.865 266.39C21.195 266.39 20.585 266.55 20.035 266.87C19.495 267.18 19.07 267.615 18.76 268.175C18.45 268.735 18.295 269.36 18.295 270.05C18.295 270.74 18.45 271.365 18.76 271.925C19.07 272.485 19.495 272.925 20.035 273.245C20.585 273.555 21.195 273.71 21.865 273.71C22.515 273.71 23.095 273.565 23.605 273.275C24.115 272.975 24.545 272.55 24.895 272L26.095 272.885C25.675 273.585 25.09 274.14 24.34 274.55C23.6 274.96 22.77 275.165 21.85 275.165ZM32.107 267.635V269.03H31.627C31.007 269.03 30.492 269.21 30.082 269.57C29.672 269.92 29.467 270.42 29.467 271.07V275H27.892V267.635H29.362V268.595C29.622 268.265 29.937 268.01 30.307 267.83C30.687 267.65 31.087 267.56 31.507 267.56C31.727 267.56 31.927 267.585 32.107 267.635ZM36.2055 267.47C37.1155 267.47 37.8455 267.735 38.3955 268.265C38.9455 268.795 39.2205 269.555 39.2205 270.545V275H37.7505V274.175C37.4805 274.495 37.1455 274.74 36.7455 274.91C36.3455 275.08 35.8955 275.165 35.3955 275.165C34.6255 275.165 34.0055 274.97 33.5355 274.58C33.0655 274.19 32.8305 273.675 32.8305 273.035C32.8305 272.395 33.0755 271.885 33.5655 271.505C34.0555 271.125 34.7155 270.935 35.5455 270.935H37.6305V270.455C37.6305 269.945 37.4905 269.555 37.2105 269.285C36.9405 269.015 36.5555 268.88 36.0555 268.88C35.6455 268.88 35.2805 268.97 34.9605 269.15C34.6405 269.33 34.3255 269.605 34.0155 269.975L33.1005 269.045C33.4705 268.515 33.9205 268.12 34.4505 267.86C34.9805 267.6 35.5655 267.47 36.2055 267.47ZM35.7255 273.95C36.2555 273.95 36.7055 273.785 37.0755 273.455C37.4455 273.125 37.6305 272.71 37.6305 272.21V272.075H35.7405C35.3205 272.075 34.9955 272.15 34.7655 272.3C34.5455 272.45 34.4355 272.675 34.4355 272.975C34.4355 273.285 34.5555 273.525 34.7955 273.695C35.0355 273.865 35.3455 273.95 35.7255 273.95ZM44.6975 265.01C44.2175 265.01 43.8575 265.105 43.6175 265.295C43.3775 265.485 43.2575 265.815 43.2575 266.285V267.635H44.9975V269H43.2575V275H41.6825V269H40.6325V267.635H41.6825V266.15C41.6825 265.29 41.9175 264.65 42.3875 264.23C42.8575 263.8 43.4975 263.585 44.3075 263.585C44.7075 263.585 45.0475 263.63 45.3275 263.72V265.055C45.0875 265.025 44.8775 265.01 44.6975 265.01ZM50.2456 273.665V275C49.7556 275.11 49.3206 275.165 48.9406 275.165C48.0906 275.165 47.4256 274.955 46.9456 274.535C46.4656 274.105 46.2256 273.46 46.2256 272.6V269H45.0256V267.635H46.2256V265.7H47.8156V267.635H50.0056V269H47.8156V272.465C47.8156 272.935 47.9356 273.265 48.1756 273.455C48.4256 273.645 48.7906 273.74 49.2706 273.74C49.4906 273.74 49.8156 273.715 50.2456 273.665ZM58.8813 267.47C59.7913 267.47 60.5213 267.735 61.0713 268.265C61.6213 268.795 61.8963 269.555 61.8963 270.545V275H60.4263V274.175C60.1563 274.495 59.8213 274.74 59.4213 274.91C59.0213 275.08 58.5713 275.165 58.0713 275.165C57.3013 275.165 56.6813 274.97 56.2113 274.58C55.7413 274.19 55.5063 273.675 55.5063 273.035C55.5063 272.395 55.7513 271.885 56.2413 271.505C56.7313 271.125 57.3913 270.935 58.2213 270.935H60.3063V270.455C60.3063 269.945 60.1663 269.555 59.8863 269.285C59.6163 269.015 59.2313 268.88 58.7313 268.88C58.3213 268.88 57.9563 268.97 57.6363 269.15C57.3163 269.33 57.0013 269.605 56.6913 269.975L55.7763 269.045C56.1463 268.515 56.5963 268.12 57.1263 267.86C57.6563 267.6 58.2413 267.47 58.8813 267.47ZM58.4013 273.95C58.9313 273.95 59.3813 273.785 59.7513 273.455C60.1213 273.125 60.3063 272.71 60.3063 272.21V272.075H58.4163C57.9963 272.075 57.6713 272.15 57.4413 272.3C57.2213 272.45 57.1112 272.675 57.1112 272.975C57.1112 273.285 57.2313 273.525 57.4713 273.695C57.7113 273.865 58.0213 273.95 58.4013 273.95ZM75.5223 267.635V274.235C75.5223 275.395 75.1873 276.29 74.5173 276.92C73.8473 277.55 72.9523 277.865 71.8323 277.865C71.1023 277.865 70.4373 277.735 69.8373 277.475C69.2473 277.215 68.7323 276.88 68.2923 276.47L69.1623 275.375C69.5723 275.705 69.9773 275.96 70.3773 276.14C70.7873 276.33 71.2423 276.425 71.7423 276.425C72.4123 276.425 72.9473 276.245 73.3473 275.885C73.7473 275.535 73.9473 275.015 73.9473 274.325V273.8C73.6673 274.14 73.3073 274.4 72.8673 274.58C72.4373 274.76 71.9673 274.85 71.4573 274.85C70.7773 274.85 70.1623 274.695 69.6123 274.385C69.0723 274.065 68.6473 273.625 68.3373 273.065C68.0273 272.505 67.8723 271.87 67.8723 271.16C67.8723 270.45 68.0273 269.815 68.3373 269.255C68.6473 268.695 69.0773 268.26 69.6273 267.95C70.1773 267.63 70.7873 267.47 71.4573 267.47C72.0173 267.47 72.5223 267.58 72.9723 267.8C73.4323 268.01 73.7973 268.305 74.0673 268.685V267.635H75.5223ZM71.7423 273.47C72.3523 273.47 72.8723 273.27 73.3023 272.87C73.7423 272.47 73.9623 271.895 73.9623 271.145C73.9623 270.395 73.7423 269.83 73.3023 269.45C72.8723 269.07 72.3523 268.88 71.7423 268.88C71.1023 268.88 70.5673 269.09 70.1373 269.51C69.7073 269.93 69.4923 270.48 69.4923 271.16C69.4923 271.85 69.7073 272.41 70.1373 272.84C70.5673 273.26 71.1023 273.47 71.7423 273.47ZM77.7992 267.635H79.3742V275H77.7992V267.635ZM78.5942 265.925C78.2942 265.925 78.0392 265.825 77.8292 265.625C77.6192 265.425 77.5142 265.18 77.5142 264.89C77.5142 264.6 77.6192 264.355 77.8292 264.155C78.0392 263.945 78.2942 263.84 78.5942 263.84C78.8842 263.84 79.1342 263.945 79.3442 264.155C79.5542 264.355 79.6592 264.6 79.6592 264.89C79.6592 265.18 79.5542 265.425 79.3442 265.625C79.1342 265.825 78.8842 265.925 78.5942 265.925ZM88.8817 267.635V274.235C88.8817 275.395 88.5467 276.29 87.8767 276.92C87.2067 277.55 86.3117 277.865 85.1917 277.865C84.4617 277.865 83.7967 277.735 83.1967 277.475C82.6067 277.215 82.0917 276.88 81.6517 276.47L82.5217 275.375C82.9317 275.705 83.3367 275.96 83.7367 276.14C84.1467 276.33 84.6017 276.425 85.1017 276.425C85.7717 276.425 86.3067 276.245 86.7067 275.885C87.1067 275.535 87.3067 275.015 87.3067 274.325V273.8C87.0267 274.14 86.6667 274.4 86.2267 274.58C85.7967 274.76 85.3267 274.85 84.8167 274.85C84.1367 274.85 83.5217 274.695 82.9717 274.385C82.4317 274.065 82.0067 273.625 81.6967 273.065C81.3867 272.505 81.2317 271.87 81.2317 271.16C81.2317 270.45 81.3867 269.815 81.6967 269.255C82.0067 268.695 82.4367 268.26 82.9867 267.95C83.5367 267.63 84.1467 267.47 84.8167 267.47C85.3767 267.47 85.8817 267.58 86.3317 267.8C86.7917 268.01 87.1567 268.305 87.4267 268.685V267.635H88.8817ZM85.1017 273.47C85.7117 273.47 86.2317 273.27 86.6617 272.87C87.1017 272.47 87.3217 271.895 87.3217 271.145C87.3217 270.395 87.1017 269.83 86.6617 269.45C86.2317 269.07 85.7117 268.88 85.1017 268.88C84.4617 268.88 83.9267 269.09 83.4967 269.51C83.0667 269.93 82.8517 270.48 82.8517 271.16C82.8517 271.85 83.0667 272.41 83.4967 272.84C83.9267 273.26 84.4617 273.47 85.1017 273.47ZM90.7536 269.57H94.4436V270.905H90.7536V269.57ZM99.7498 275.165C99.0298 275.165 98.3698 274.995 97.7698 274.655C97.1798 274.315 96.7098 273.85 96.3598 273.26C96.0198 272.67 95.8498 272.02 95.8498 271.31C95.8498 270.6 96.0198 269.955 96.3598 269.375C96.7098 268.785 97.1848 268.32 97.7848 267.98C98.3848 267.64 99.0398 267.47 99.7498 267.47C100.43 267.47 101.035 267.625 101.565 267.935C102.105 268.235 102.535 268.65 102.855 269.18L101.745 270.05C101.215 269.3 100.555 268.925 99.7648 268.925C99.3248 268.925 98.9298 269.03 98.5798 269.24C98.2298 269.45 97.9548 269.74 97.7548 270.11C97.5548 270.47 97.4548 270.87 97.4548 271.31C97.4548 271.76 97.5548 272.17 97.7548 272.54C97.9548 272.9 98.2298 273.185 98.5798 273.395C98.9298 273.605 99.3248 273.71 99.7648 273.71C100.545 273.71 101.205 273.34 101.745 272.6L102.855 273.455C102.525 273.985 102.09 274.405 101.55 274.715C101.02 275.015 100.42 275.165 99.7498 275.165ZM107.865 275.165C107.155 275.165 106.5 274.995 105.9 274.655C105.31 274.305 104.84 273.835 104.49 273.245C104.15 272.655 103.98 272.01 103.98 271.31C103.98 270.6 104.15 269.955 104.49 269.375C104.84 268.785 105.31 268.32 105.9 267.98C106.5 267.64 107.155 267.47 107.865 267.47C108.585 267.47 109.245 267.64 109.845 267.98C110.445 268.32 110.915 268.785 111.255 269.375C111.605 269.965 111.78 270.61 111.78 271.31C111.78 272.01 111.605 272.655 111.255 273.245C110.915 273.835 110.445 274.305 109.845 274.655C109.245 274.995 108.585 275.165 107.865 275.165ZM107.865 273.71C108.295 273.71 108.685 273.605 109.035 273.395C109.385 273.185 109.66 272.9 109.86 272.54C110.06 272.17 110.16 271.765 110.16 271.325C110.16 270.875 110.06 270.465 109.86 270.095C109.66 269.725 109.385 269.435 109.035 269.225C108.685 269.015 108.3 268.91 107.88 268.91C107.45 268.91 107.06 269.015 106.71 269.225C106.36 269.435 106.085 269.725 105.885 270.095C105.685 270.465 105.585 270.875 105.585 271.325C105.585 271.775 105.685 272.185 105.885 272.555C106.085 272.915 106.355 273.2 106.695 273.41C107.045 273.61 107.435 273.71 107.865 273.71ZM117.26 267.47C118.12 267.47 118.795 267.74 119.285 268.28C119.775 268.81 120.02 269.515 120.02 270.395V275H118.445V270.605C118.445 270.095 118.295 269.685 117.995 269.375C117.705 269.055 117.32 268.895 116.84 268.895C116.35 268.895 115.945 269.055 115.625 269.375C115.315 269.695 115.16 270.105 115.16 270.605V275H113.585V267.635H115.055V268.355C115.615 267.765 116.35 267.47 117.26 267.47ZM126.593 273.665V275C126.103 275.11 125.668 275.165 125.288 275.165C124.438 275.165 123.773 274.955 123.293 274.535C122.813 274.105 122.573 273.46 122.573 272.6V269H121.373V267.635H122.573V265.7H124.163V267.635H126.353V269H124.163V272.465C124.163 272.935 124.283 273.265 124.523 273.455C124.773 273.645 125.138 273.74 125.618 273.74C125.838 273.74 126.163 273.715 126.593 273.665ZM132.405 267.635V269.03H131.925C131.305 269.03 130.79 269.21 130.38 269.57C129.97 269.92 129.765 270.42 129.765 271.07V275H128.19V267.635H129.66V268.595C129.92 268.265 130.235 268.01 130.605 267.83C130.985 267.65 131.385 267.56 131.805 267.56C132.025 267.56 132.225 267.585 132.405 267.635ZM136.503 267.47C137.413 267.47 138.143 267.735 138.693 268.265C139.243 268.795 139.518 269.555 139.518 270.545V275H138.048V274.175C137.778 274.495 137.443 274.74 137.043 274.91C136.643 275.08 136.193 275.165 135.693 275.165C134.923 275.165 134.303 274.97 133.833 274.58C133.363 274.19 133.128 273.675 133.128 273.035C133.128 272.395 133.373 271.885 133.863 271.505C134.353 271.125 135.013 270.935 135.843 270.935H137.928V270.455C137.928 269.945 137.788 269.555 137.508 269.285C137.238 269.015 136.853 268.88 136.353 268.88C135.943 268.88 135.578 268.97 135.258 269.15C134.938 269.33 134.623 269.605 134.313 269.975L133.398 269.045C133.768 268.515 134.218 268.12 134.748 267.86C135.278 267.6 135.863 267.47 136.503 267.47ZM136.023 273.95C136.553 273.95 137.003 273.785 137.373 273.455C137.743 273.125 137.928 272.71 137.928 272.21V272.075H136.038C135.618 272.075 135.293 272.15 135.063 272.3C134.843 272.45 134.733 272.675 134.733 272.975C134.733 273.285 134.853 273.525 135.093 273.695C135.333 273.865 135.643 273.95 136.023 273.95ZM145.145 275.165C144.425 275.165 143.765 274.995 143.165 274.655C142.575 274.315 142.105 273.85 141.755 273.26C141.415 272.67 141.245 272.02 141.245 271.31C141.245 270.6 141.415 269.955 141.755 269.375C142.105 268.785 142.58 268.32 143.18 267.98C143.78 267.64 144.435 267.47 145.145 267.47C145.825 267.47 146.43 267.625 146.96 267.935C147.5 268.235 147.93 268.65 148.25 269.18L147.14 270.05C146.61 269.3 145.95 268.925 145.16 268.925C144.72 268.925 144.325 269.03 143.975 269.24C143.625 269.45 143.35 269.74 143.15 270.11C142.95 270.47 142.85 270.87 142.85 271.31C142.85 271.76 142.95 272.17 143.15 272.54C143.35 272.9 143.625 273.185 143.975 273.395C144.325 273.605 144.72 273.71 145.16 273.71C145.94 273.71 146.6 273.34 147.14 272.6L148.25 273.455C147.92 273.985 147.485 274.405 146.945 274.715C146.415 275.015 145.815 275.165 145.145 275.165ZM154.367 273.665V275C153.877 275.11 153.442 275.165 153.062 275.165C152.212 275.165 151.547 274.955 151.067 274.535C150.587 274.105 150.347 273.46 150.347 272.6V269H149.147V267.635H150.347V265.7H151.937V267.635H154.127V269H151.937V272.465C151.937 272.935 152.057 273.265 152.297 273.455C152.547 273.645 152.912 273.74 153.392 273.74C153.612 273.74 153.937 273.715 154.367 273.665ZM171.098 267.635L167.828 275.165H167.288L164.978 270.26L162.668 275.165H162.128L158.858 267.635H160.538L162.473 272.45L164.708 267.47H165.248L167.513 272.39L169.418 267.635H171.098ZM172.516 267.635H174.091V275H172.516V267.635ZM173.311 265.925C173.011 265.925 172.756 265.825 172.546 265.625C172.336 265.425 172.231 265.18 172.231 264.89C172.231 264.6 172.336 264.355 172.546 264.155C172.756 263.945 173.011 263.84 173.311 263.84C173.601 263.84 173.851 263.945 174.061 264.155C174.271 264.355 174.376 264.6 174.376 264.89C174.376 265.18 174.271 265.425 174.061 265.625C173.851 265.825 173.601 265.925 173.311 265.925ZM180.749 273.665V275C180.259 275.11 179.824 275.165 179.444 275.165C178.594 275.165 177.929 274.955 177.449 274.535C176.969 274.105 176.729 273.46 176.729 272.6V269H175.529V267.635H176.729V265.7H178.319V267.635H180.509V269H178.319V272.465C178.319 272.935 178.439 273.265 178.679 273.455C178.929 273.645 179.294 273.74 179.774 273.74C179.994 273.74 180.319 273.715 180.749 273.665ZM186.05 267.47C186.89 267.47 187.555 267.74 188.045 268.28C188.535 268.82 188.78 269.525 188.78 270.395V275H187.205V270.62C187.205 270.11 187.06 269.7 186.77 269.39C186.48 269.07 186.09 268.91 185.6 268.91C185.11 268.91 184.705 269.07 184.385 269.39C184.075 269.71 183.92 270.12 183.92 270.62V275H182.345V263.75H183.92V268.37C184.17 268.08 184.475 267.86 184.835 267.71C185.205 267.55 185.61 267.47 186.05 267.47ZM195.282 265.1H196.872V275H195.282V265.1ZM201.694 266.525H198.364V265.1H206.629V266.525H203.284V275H201.694V266.525ZM213.746 275.165C213.116 275.165 212.546 275.035 212.036 274.775C211.526 274.515 211.106 274.17 210.776 273.74L211.676 272.75C211.996 273.09 212.321 273.35 212.651 273.53C212.991 273.71 213.356 273.8 213.746 273.8C214.086 273.8 214.366 273.73 214.586 273.59C214.816 273.45 214.931 273.245 214.931 272.975C214.931 272.755 214.846 272.585 214.676 272.465C214.516 272.345 214.256 272.21 213.896 272.06L213.146 271.745C212.496 271.475 212.011 271.18 211.691 270.86C211.381 270.54 211.226 270.12 211.226 269.6C211.226 268.94 211.471 268.42 211.961 268.04C212.451 267.66 213.071 267.47 213.821 267.47C214.881 267.47 215.731 267.85 216.371 268.61L215.516 269.585C215.286 269.345 215.021 269.16 214.721 269.03C214.421 268.9 214.111 268.835 213.791 268.835C213.481 268.835 213.236 268.895 213.056 269.015C212.876 269.135 212.786 269.31 212.786 269.54C212.786 269.73 212.856 269.885 212.996 270.005C213.146 270.125 213.401 270.26 213.761 270.41L214.466 270.695C215.166 270.985 215.676 271.3 215.996 271.64C216.316 271.97 216.476 272.395 216.476 272.915C216.476 273.625 216.216 274.18 215.696 274.58C215.176 274.97 214.526 275.165 213.746 275.165ZM222.327 267.47C223.017 267.47 223.637 267.64 224.187 267.98C224.737 268.31 225.167 268.77 225.477 269.36C225.787 269.94 225.942 270.59 225.942 271.31C225.942 272.04 225.787 272.7 225.477 273.29C225.167 273.87 224.737 274.33 224.187 274.67C223.637 275 223.017 275.165 222.327 275.165C221.827 275.165 221.362 275.075 220.932 274.895C220.512 274.705 220.157 274.44 219.867 274.1V277.7H218.292V267.635H219.762V268.67C220.032 268.29 220.392 267.995 220.842 267.785C221.292 267.575 221.787 267.47 222.327 267.47ZM222.072 273.725C222.492 273.725 222.872 273.625 223.212 273.425C223.552 273.215 223.822 272.93 224.022 272.57C224.222 272.21 224.322 271.795 224.322 271.325C224.322 270.855 224.222 270.44 224.022 270.08C223.832 269.71 223.562 269.425 223.212 269.225C222.872 269.015 222.492 268.91 222.072 268.91C221.682 268.91 221.317 269 220.977 269.18C220.647 269.35 220.377 269.615 220.167 269.975C219.957 270.335 219.852 270.78 219.852 271.31C219.852 271.84 219.957 272.29 220.167 272.66C220.377 273.02 220.647 273.29 220.977 273.47C221.317 273.64 221.682 273.725 222.072 273.725ZM234.385 271.835H228.895C228.995 272.435 229.26 272.91 229.69 273.26C230.13 273.6 230.665 273.77 231.295 273.77C232.065 273.77 232.78 273.48 233.44 272.9L234.19 273.98C233.35 274.77 232.37 275.165 231.25 275.165C230.5 275.165 229.825 275 229.225 274.67C228.625 274.33 228.15 273.87 227.8 273.29C227.46 272.7 227.29 272.045 227.29 271.325C227.29 270.615 227.455 269.965 227.785 269.375C228.125 268.785 228.585 268.32 229.165 267.98C229.755 267.64 230.4 267.47 231.1 267.47C231.75 267.47 232.33 267.62 232.84 267.92C233.36 268.21 233.765 268.61 234.055 269.12C234.355 269.63 234.505 270.205 234.505 270.845C234.505 271.155 234.465 271.485 234.385 271.835ZM231.04 268.805C230.52 268.805 230.065 268.97 229.675 269.3C229.295 269.62 229.045 270.055 228.925 270.605H232.93C232.92 270.045 232.73 269.605 232.36 269.285C232 268.965 231.56 268.805 231.04 268.805ZM239.745 275.165C239.025 275.165 238.365 274.995 237.765 274.655C237.175 274.315 236.705 273.85 236.355 273.26C236.015 272.67 235.845 272.02 235.845 271.31C235.845 270.6 236.015 269.955 236.355 269.375C236.705 268.785 237.18 268.32 237.78 267.98C238.38 267.64 239.035 267.47 239.745 267.47C240.425 267.47 241.03 267.625 241.56 267.935C242.1 268.235 242.53 268.65 242.85 269.18L241.74 270.05C241.21 269.3 240.55 268.925 239.76 268.925C239.32 268.925 238.925 269.03 238.575 269.24C238.225 269.45 237.95 269.74 237.75 270.11C237.55 270.47 237.45 270.87 237.45 271.31C237.45 271.76 237.55 272.17 237.75 272.54C237.95 272.9 238.225 273.185 238.575 273.395C238.925 273.605 239.32 273.71 239.76 273.71C240.54 273.71 241.2 273.34 241.74 272.6L242.85 273.455C242.52 273.985 242.085 274.405 241.545 274.715C241.015 275.015 240.415 275.165 239.745 275.165ZM244.586 267.635H246.161V275H244.586V267.635ZM245.381 265.925C245.081 265.925 244.826 265.825 244.616 265.625C244.406 265.425 244.301 265.18 244.301 264.89C244.301 264.6 244.406 264.355 244.616 264.155C244.826 263.945 245.081 263.84 245.381 263.84C245.671 263.84 245.921 263.945 246.131 264.155C246.341 264.355 246.446 264.6 246.446 264.89C246.446 265.18 246.341 265.425 246.131 265.625C245.921 265.825 245.671 265.925 245.381 265.925ZM251.274 267.47C252.184 267.47 252.914 267.735 253.464 268.265C254.014 268.795 254.289 269.555 254.289 270.545V275H252.819V274.175C252.549 274.495 252.214 274.74 251.814 274.91C251.414 275.08 250.964 275.165 250.464 275.165C249.694 275.165 249.074 274.97 248.604 274.58C248.134 274.19 247.899 273.675 247.899 273.035C247.899 272.395 248.144 271.885 248.634 271.505C249.124 271.125 249.784 270.935 250.614 270.935H252.699V270.455C252.699 269.945 252.559 269.555 252.279 269.285C252.009 269.015 251.624 268.88 251.124 268.88C250.714 268.88 250.349 268.97 250.029 269.15C249.709 269.33 249.394 269.605 249.084 269.975L248.169 269.045C248.539 268.515 248.989 268.12 249.519 267.86C250.049 267.6 250.634 267.47 251.274 267.47ZM250.794 273.95C251.324 273.95 251.774 273.785 252.144 273.455C252.514 273.125 252.699 272.71 252.699 272.21V272.075H250.809C250.389 272.075 250.064 272.15 249.834 272.3C249.614 272.45 249.504 272.675 249.504 272.975C249.504 273.285 249.624 273.525 249.864 273.695C250.104 273.865 250.414 273.95 250.794 273.95ZM256.481 263.75H258.056V275H256.481V263.75ZM260.333 267.635H261.908V275H260.333V267.635ZM261.128 265.925C260.828 265.925 260.573 265.825 260.363 265.625C260.153 265.425 260.048 265.18 260.048 264.89C260.048 264.6 260.153 264.355 260.363 264.155C260.573 263.945 260.828 263.84 261.128 263.84C261.418 263.84 261.668 263.945 261.878 264.155C262.088 264.355 262.193 264.6 262.193 264.89C262.193 265.18 262.088 265.425 261.878 265.625C261.668 265.825 261.418 265.925 261.128 265.925ZM266.466 275.165C265.836 275.165 265.266 275.035 264.756 274.775C264.246 274.515 263.826 274.17 263.496 273.74L264.396 272.75C264.716 273.09 265.041 273.35 265.371 273.53C265.711 273.71 266.076 273.8 266.466 273.8C266.806 273.8 267.086 273.73 267.306 273.59C267.536 273.45 267.651 273.245 267.651 272.975C267.651 272.755 267.566 272.585 267.396 272.465C267.236 272.345 266.976 272.21 266.616 272.06L265.866 271.745C265.216 271.475 264.731 271.18 264.411 270.86C264.101 270.54 263.946 270.12 263.946 269.6C263.946 268.94 264.191 268.42 264.681 268.04C265.171 267.66 265.791 267.47 266.541 267.47C267.601 267.47 268.451 267.85 269.091 268.61L268.236 269.585C268.006 269.345 267.741 269.16 267.441 269.03C267.141 268.9 266.831 268.835 266.511 268.835C266.201 268.835 265.956 268.895 265.776 269.015C265.596 269.135 265.506 269.31 265.506 269.54C265.506 269.73 265.576 269.885 265.716 270.005C265.866 270.125 266.121 270.26 266.481 270.41L267.186 270.695C267.886 270.985 268.396 271.3 268.716 271.64C269.036 271.97 269.196 272.395 269.196 272.915C269.196 273.625 268.936 274.18 268.416 274.58C267.896 274.97 267.246 275.165 266.466 275.165ZM275.392 273.665V275C274.902 275.11 274.467 275.165 274.087 275.165C273.237 275.165 272.572 274.955 272.092 274.535C271.612 274.105 271.372 273.46 271.372 272.6V269H270.172V267.635H271.372V265.7H272.962V267.635H275.152V269H272.962V272.465C272.962 272.935 273.082 273.265 273.322 273.455C273.572 273.645 273.937 273.74 274.417 273.74C274.637 273.74 274.962 273.715 275.392 273.665ZM292.124 267.635L288.854 275.165H288.314L286.004 270.26L283.694 275.165H283.154L279.884 267.635H281.564L283.499 272.45L285.734 267.47H286.274L288.539 272.39L290.444 267.635H292.124ZM297.246 267.47C298.086 267.47 298.751 267.74 299.241 268.28C299.731 268.82 299.976 269.525 299.976 270.395V275H298.401V270.62C298.401 270.11 298.256 269.7 297.966 269.39C297.676 269.07 297.286 268.91 296.796 268.91C296.306 268.91 295.901 269.07 295.581 269.39C295.271 269.71 295.116 270.12 295.116 270.62V275H293.541V263.75H295.116V268.37C295.366 268.08 295.671 267.86 296.031 267.71C296.401 267.55 296.806 267.47 297.246 267.47ZM305.589 275.165C304.879 275.165 304.224 274.995 303.624 274.655C303.034 274.305 302.564 273.835 302.214 273.245C301.874 272.655 301.704 272.01 301.704 271.31C301.704 270.6 301.874 269.955 302.214 269.375C302.564 268.785 303.034 268.32 303.624 267.98C304.224 267.64 304.879 267.47 305.589 267.47C306.309 267.47 306.969 267.64 307.569 267.98C308.169 268.32 308.639 268.785 308.979 269.375C309.329 269.965 309.504 270.61 309.504 271.31C309.504 272.01 309.329 272.655 308.979 273.245C308.639 273.835 308.169 274.305 307.569 274.655C306.969 274.995 306.309 275.165 305.589 275.165ZM305.589 273.71C306.019 273.71 306.409 273.605 306.759 273.395C307.109 273.185 307.384 272.9 307.584 272.54C307.784 272.17 307.884 271.765 307.884 271.325C307.884 270.875 307.784 270.465 307.584 270.095C307.384 269.725 307.109 269.435 306.759 269.225C306.409 269.015 306.024 268.91 305.604 268.91C305.174 268.91 304.784 269.015 304.434 269.225C304.084 269.435 303.809 269.725 303.609 270.095C303.409 270.465 303.309 270.875 303.309 271.325C303.309 271.775 303.409 272.185 303.609 272.555C303.809 272.915 304.079 273.2 304.419 273.41C304.769 273.61 305.159 273.71 305.589 273.71ZM326.445 267.635L323.175 275.165H322.635L320.325 270.26L318.015 275.165H317.475L314.205 267.635H315.885L317.82 272.45L320.055 267.47H320.595L322.86 272.39L324.765 267.635H326.445ZM327.863 267.635H329.438V275H327.863V267.635ZM328.658 265.925C328.358 265.925 328.103 265.825 327.893 265.625C327.683 265.425 327.578 265.18 327.578 264.89C327.578 264.6 327.683 264.355 327.893 264.155C328.103 263.945 328.358 263.84 328.658 263.84C328.948 263.84 329.198 263.945 329.408 264.155C329.618 264.355 329.723 264.6 329.723 264.89C329.723 265.18 329.618 265.425 329.408 265.625C329.198 265.825 328.948 265.925 328.658 265.925ZM331.715 263.75H333.29V275H331.715V263.75ZM335.568 263.75H337.143V275H335.568V263.75ZM347.659 267.47C348.349 267.47 348.969 267.64 349.519 267.98C350.069 268.31 350.499 268.77 350.809 269.36C351.119 269.95 351.274 270.605 351.274 271.325C351.274 272.045 351.119 272.7 350.809 273.29C350.499 273.87 350.069 274.33 349.519 274.67C348.969 275 348.354 275.165 347.674 275.165C347.134 275.165 346.639 275.065 346.189 274.865C345.739 274.655 345.374 274.36 345.094 273.98V275H343.624V263.75H345.199V268.535C345.479 268.195 345.829 267.935 346.249 267.755C346.679 267.565 347.149 267.47 347.659 267.47ZM347.404 273.725C347.824 273.725 348.204 273.625 348.544 273.425C348.894 273.215 349.164 272.93 349.354 272.57C349.554 272.2 349.654 271.78 349.654 271.31C349.654 270.84 349.554 270.425 349.354 270.065C349.154 269.705 348.884 269.425 348.544 269.225C348.204 269.015 347.824 268.91 347.404 268.91C347.014 268.91 346.649 269 346.309 269.18C345.979 269.35 345.709 269.62 345.499 269.99C345.289 270.35 345.184 270.795 345.184 271.325C345.184 271.855 345.289 272.3 345.499 272.66C345.709 273.02 345.979 273.29 346.309 273.47C346.649 273.64 347.014 273.725 347.404 273.725ZM359.717 271.835H354.227C354.327 272.435 354.592 272.91 355.022 273.26C355.462 273.6 355.997 273.77 356.627 273.77C357.397 273.77 358.112 273.48 358.772 272.9L359.522 273.98C358.682 274.77 357.702 275.165 356.582 275.165C355.832 275.165 355.157 275 354.557 274.67C353.957 274.33 353.482 273.87 353.132 273.29C352.792 272.7 352.622 272.045 352.622 271.325C352.622 270.615 352.787 269.965 353.117 269.375C353.457 268.785 353.917 268.32 354.497 267.98C355.087 267.64 355.732 267.47 356.432 267.47C357.082 267.47 357.662 267.62 358.172 267.92C358.692 268.21 359.097 268.61 359.387 269.12C359.687 269.63 359.837 270.205 359.837 270.845C359.837 271.155 359.797 271.485 359.717 271.835ZM356.372 268.805C355.852 268.805 355.397 268.97 355.007 269.3C354.627 269.62 354.377 270.055 354.257 270.605H358.262C358.252 270.045 358.062 269.605 357.692 269.285C357.332 268.965 356.892 268.805 356.372 268.805ZM370.226 273.665V275C369.736 275.11 369.301 275.165 368.921 275.165C368.071 275.165 367.406 274.955 366.926 274.535C366.446 274.105 366.206 273.46 366.206 272.6V269H365.006V267.635H366.206V265.7H367.796V267.635H369.986V269H367.796V272.465C367.796 272.935 367.916 273.265 368.156 273.455C368.406 273.645 368.771 273.74 369.251 273.74C369.471 273.74 369.796 273.715 370.226 273.665ZM374.658 267.47C375.568 267.47 376.298 267.735 376.848 268.265C377.398 268.795 377.673 269.555 377.673 270.545V275H376.203V274.175C375.933 274.495 375.598 274.74 375.198 274.91C374.798 275.08 374.348 275.165 373.848 275.165C373.078 275.165 372.458 274.97 371.988 274.58C371.518 274.19 371.283 273.675 371.283 273.035C371.283 272.395 371.528 271.885 372.018 271.505C372.508 271.125 373.168 270.935 373.998 270.935H376.083V270.455C376.083 269.945 375.943 269.555 375.663 269.285C375.393 269.015 375.008 268.88 374.508 268.88C374.098 268.88 373.733 268.97 373.413 269.15C373.093 269.33 372.778 269.605 372.468 269.975L371.553 269.045C371.923 268.515 372.373 268.12 372.903 267.86C373.433 267.6 374.018 267.47 374.658 267.47ZM374.178 273.95C374.708 273.95 375.158 273.785 375.528 273.455C375.898 273.125 376.083 272.71 376.083 272.21V272.075H374.193C373.773 272.075 373.448 272.15 373.218 272.3C372.998 272.45 372.888 272.675 372.888 272.975C372.888 273.285 373.008 273.525 373.248 273.695C373.488 273.865 373.798 273.95 374.178 273.95ZM379.865 263.75H381.44V275H379.865V263.75ZM386.57 275H384.68L381.485 270.86L384.365 267.635H386.315L383.345 270.875L386.57 275ZM387.863 267.635H389.438V275H387.863V267.635ZM388.658 265.925C388.358 265.925 388.103 265.825 387.893 265.625C387.683 265.425 387.578 265.18 387.578 264.89C387.578 264.6 387.683 264.355 387.893 264.155C388.103 263.945 388.358 263.84 388.658 263.84C388.948 263.84 389.198 263.945 389.408 264.155C389.618 264.355 389.723 264.6 389.723 264.89C389.723 265.18 389.618 265.425 389.408 265.625C389.198 265.825 388.948 265.925 388.658 265.925ZM395.39 267.47C396.25 267.47 396.925 267.74 397.415 268.28C397.905 268.81 398.15 269.515 398.15 270.395V275H396.575V270.605C396.575 270.095 396.425 269.685 396.125 269.375C395.835 269.055 395.45 268.895 394.97 268.895C394.48 268.895 394.075 269.055 393.755 269.375C393.445 269.695 393.29 270.105 393.29 270.605V275H391.715V267.635H393.185V268.355C393.745 267.765 394.48 267.47 395.39 267.47ZM407.573 267.635V274.235C407.573 275.395 407.238 276.29 406.568 276.92C405.898 277.55 405.003 277.865 403.883 277.865C403.153 277.865 402.488 277.735 401.888 277.475C401.298 277.215 400.783 276.88 400.343 276.47L401.213 275.375C401.623 275.705 402.028 275.96 402.428 276.14C402.838 276.33 403.293 276.425 403.793 276.425C404.463 276.425 404.998 276.245 405.398 275.885C405.798 275.535 405.998 275.015 405.998 274.325V273.8C405.718 274.14 405.358 274.4 404.918 274.58C404.488 274.76 404.018 274.85 403.508 274.85C402.828 274.85 402.213 274.695 401.663 274.385C401.123 274.065 400.698 273.625 400.388 273.065C400.078 272.505 399.923 271.87 399.923 271.16C399.923 270.45 400.078 269.815 400.388 269.255C400.698 268.695 401.128 268.26 401.678 267.95C402.228 267.63 402.838 267.47 403.508 267.47C404.068 267.47 404.573 267.58 405.023 267.8C405.483 268.01 405.848 268.305 406.118 268.685V267.635H407.573ZM403.793 273.47C404.403 273.47 404.923 273.27 405.353 272.87C405.793 272.47 406.013 271.895 406.013 271.145C406.013 270.395 405.793 269.83 405.353 269.45C404.923 269.07 404.403 268.88 403.793 268.88C403.153 268.88 402.618 269.09 402.188 269.51C401.758 269.93 401.543 270.48 401.543 271.16C401.543 271.85 401.758 272.41 402.188 272.84C402.618 273.26 403.153 273.47 403.793 273.47ZM19.975 286.47C20.885 286.47 21.615 286.735 22.165 287.265C22.715 287.795 22.99 288.555 22.99 289.545V294H21.52V293.175C21.25 293.495 20.915 293.74 20.515 293.91C20.115 294.08 19.665 294.165 19.165 294.165C18.395 294.165 17.775 293.97 17.305 293.58C16.835 293.19 16.6 292.675 16.6 292.035C16.6 291.395 16.845 290.885 17.335 290.505C17.825 290.125 18.485 289.935 19.315 289.935H21.4V289.455C21.4 288.945 21.26 288.555 20.98 288.285C20.71 288.015 20.325 287.88 19.825 287.88C19.415 287.88 19.05 287.97 18.73 288.15C18.41 288.33 18.095 288.605 17.785 288.975L16.87 288.045C17.24 287.515 17.69 287.12 18.22 286.86C18.75 286.6 19.335 286.47 19.975 286.47ZM19.495 292.95C20.025 292.95 20.475 292.785 20.845 292.455C21.215 292.125 21.4 291.71 21.4 291.21V291.075H19.51C19.09 291.075 18.765 291.15 18.535 291.3C18.315 291.45 18.205 291.675 18.205 291.975C18.205 292.285 18.325 292.525 18.565 292.695C18.805 292.865 19.115 292.95 19.495 292.95ZM28.857 286.47C29.717 286.47 30.392 286.74 30.882 287.28C31.372 287.81 31.617 288.515 31.617 289.395V294H30.042V289.605C30.042 289.095 29.892 288.685 29.592 288.375C29.302 288.055 28.917 287.895 28.437 287.895C27.947 287.895 27.542 288.055 27.222 288.375C26.912 288.695 26.757 289.105 26.757 289.605V294H25.182V286.635H26.652V287.355C27.212 286.765 27.947 286.47 28.857 286.47ZM41.434 294.165C40.724 294.165 40.069 293.995 39.469 293.655C38.879 293.305 38.409 292.835 38.059 292.245C37.719 291.655 37.549 291.01 37.549 290.31C37.549 289.6 37.719 288.955 38.059 288.375C38.409 287.785 38.879 287.32 39.469 286.98C40.069 286.64 40.724 286.47 41.434 286.47C42.154 286.47 42.814 286.64 43.414 286.98C44.014 287.32 44.484 287.785 44.824 288.375C45.174 288.965 45.349 289.61 45.349 290.31C45.349 291.01 45.174 291.655 44.824 292.245C44.484 292.835 44.014 293.305 43.414 293.655C42.814 293.995 42.154 294.165 41.434 294.165ZM41.434 292.71C41.864 292.71 42.254 292.605 42.604 292.395C42.954 292.185 43.229 291.9 43.429 291.54C43.629 291.17 43.729 290.765 43.729 290.325C43.729 289.875 43.629 289.465 43.429 289.095C43.229 288.725 42.954 288.435 42.604 288.225C42.254 288.015 41.869 287.91 41.449 287.91C41.019 287.91 40.629 288.015 40.279 288.225C39.929 288.435 39.654 288.725 39.454 289.095C39.254 289.465 39.154 289.875 39.154 290.325C39.154 290.775 39.254 291.185 39.454 291.555C39.654 291.915 39.924 292.2 40.264 292.41C40.614 292.61 41.004 292.71 41.434 292.71ZM50.4396 284.01C49.9596 284.01 49.5996 284.105 49.3596 284.295C49.1196 284.485 48.9996 284.815 48.9996 285.285V286.635H50.7396V288H48.9996V294H47.4246V288H46.3746V286.635H47.4246V285.15C47.4246 284.29 47.6596 283.65 48.1296 283.23C48.5996 282.8 49.2396 282.585 50.0496 282.585C50.4496 282.585 50.7896 282.63 51.0696 282.72V284.055C50.8296 284.025 50.6196 284.01 50.4396 284.01ZM54.8195 284.01C54.3395 284.01 53.9795 284.105 53.7395 284.295C53.4995 284.485 53.3795 284.815 53.3795 285.285V286.635H55.1195V288H53.3795V294H51.8045V288H50.7545V286.635H51.8045V285.15C51.8045 284.29 52.0395 283.65 52.5095 283.23C52.9795 282.8 53.6195 282.585 54.4295 282.585C54.8295 282.585 55.1695 282.63 55.4495 282.72V284.055C55.2095 284.025 54.9995 284.01 54.8195 284.01ZM56.5895 286.635H58.1645V294H56.5895V286.635ZM57.3845 284.925C57.0845 284.925 56.8295 284.825 56.6195 284.625C56.4095 284.425 56.3045 284.18 56.3045 283.89C56.3045 283.6 56.4095 283.355 56.6195 283.155C56.8295 282.945 57.0845 282.84 57.3845 282.84C57.6745 282.84 57.9245 282.945 58.1345 283.155C58.3445 283.355 58.4495 283.6 58.4495 283.89C58.4495 284.18 58.3445 284.425 58.1345 284.625C57.9245 284.825 57.6745 284.925 57.3845 284.925ZM63.8904 294.165C63.1704 294.165 62.5104 293.995 61.9104 293.655C61.3204 293.315 60.8504 292.85 60.5004 292.26C60.1604 291.67 59.9904 291.02 59.9904 290.31C59.9904 289.6 60.1604 288.955 60.5004 288.375C60.8504 287.785 61.3254 287.32 61.9254 286.98C62.5254 286.64 63.1804 286.47 63.8904 286.47C64.5704 286.47 65.1754 286.625 65.7054 286.935C66.2454 287.235 66.6754 287.65 66.9954 288.18L65.8854 289.05C65.3554 288.3 64.6954 287.925 63.9054 287.925C63.4654 287.925 63.0704 288.03 62.7204 288.24C62.3704 288.45 62.0954 288.74 61.8954 289.11C61.6954 289.47 61.5954 289.87 61.5954 290.31C61.5954 290.76 61.6954 291.17 61.8954 291.54C62.0954 291.9 62.3704 292.185 62.7204 292.395C63.0704 292.605 63.4654 292.71 63.9054 292.71C64.6854 292.71 65.3454 292.34 65.8854 291.6L66.9954 292.455C66.6654 292.985 66.2304 293.405 65.6904 293.715C65.1604 294.015 64.5604 294.165 63.8904 294.165ZM75.2153 290.835H69.7253C69.8253 291.435 70.0903 291.91 70.5203 292.26C70.9603 292.6 71.4953 292.77 72.1253 292.77C72.8953 292.77 73.6103 292.48 74.2703 291.9L75.0203 292.98C74.1803 293.77 73.2003 294.165 72.0803 294.165C71.3303 294.165 70.6553 294 70.0553 293.67C69.4553 293.33 68.9803 292.87 68.6303 292.29C68.2903 291.7 68.1203 291.045 68.1203 290.325C68.1203 289.615 68.2853 288.965 68.6153 288.375C68.9553 287.785 69.4153 287.32 69.9953 286.98C70.5853 286.64 71.2303 286.47 71.9303 286.47C72.5803 286.47 73.1603 286.62 73.6703 286.92C74.1903 287.21 74.5953 287.61 74.8853 288.12C75.1853 288.63 75.3353 289.205 75.3353 289.845C75.3353 290.155 75.2953 290.485 75.2153 290.835ZM71.8703 287.805C71.3503 287.805 70.8953 287.97 70.5053 288.3C70.1253 288.62 69.8753 289.055 69.7553 289.605H73.7603C73.7503 289.045 73.5603 288.605 73.1903 288.285C72.8303 287.965 72.3903 287.805 71.8703 287.805Z" fill="white"/>
<path d="M206.939 112.478C207.445 112.478 207.9 112.603 208.303 112.852C208.706 113.094 209.022 113.431 209.249 113.864C209.476 114.289 209.59 114.766 209.59 115.294C209.59 115.829 209.476 116.313 209.249 116.746C209.022 117.171 208.706 117.509 208.303 117.758C207.9 118 207.445 118.121 206.939 118.121C206.572 118.121 206.231 118.055 205.916 117.923C205.608 117.784 205.348 117.589 205.135 117.34V119.98H203.98V112.599H205.058V113.358C205.256 113.079 205.52 112.863 205.85 112.709C206.18 112.555 206.543 112.478 206.939 112.478ZM206.752 117.065C207.06 117.065 207.339 116.992 207.588 116.845C207.837 116.691 208.035 116.482 208.182 116.218C208.329 115.954 208.402 115.65 208.402 115.305C208.402 114.96 208.329 114.656 208.182 114.392C208.043 114.121 207.845 113.912 207.588 113.765C207.339 113.611 207.06 113.534 206.752 113.534C206.466 113.534 206.198 113.6 205.949 113.732C205.707 113.857 205.509 114.051 205.355 114.315C205.201 114.579 205.124 114.905 205.124 115.294C205.124 115.683 205.201 116.013 205.355 116.284C205.509 116.548 205.707 116.746 205.949 116.878C206.198 117.003 206.466 117.065 206.752 117.065ZM213.427 118.121C212.907 118.121 212.426 117.996 211.986 117.747C211.554 117.49 211.209 117.146 210.952 116.713C210.703 116.28 210.578 115.807 210.578 115.294C210.578 114.773 210.703 114.3 210.952 113.875C211.209 113.442 211.554 113.101 211.986 112.852C212.426 112.603 212.907 112.478 213.427 112.478C213.955 112.478 214.439 112.603 214.879 112.852C215.319 113.101 215.664 113.442 215.913 113.875C216.17 114.308 216.298 114.781 216.298 115.294C216.298 115.807 216.17 116.28 215.913 116.713C215.664 117.146 215.319 117.49 214.879 117.747C214.439 117.996 213.955 118.121 213.427 118.121ZM213.427 117.054C213.743 117.054 214.029 116.977 214.285 116.823C214.542 116.669 214.744 116.46 214.89 116.196C215.037 115.925 215.11 115.628 215.11 115.305C215.11 114.975 215.037 114.674 214.89 114.403C214.744 114.132 214.542 113.919 214.285 113.765C214.029 113.611 213.746 113.534 213.438 113.534C213.123 113.534 212.837 113.611 212.58 113.765C212.324 113.919 212.122 114.132 211.975 114.403C211.829 114.674 211.755 114.975 211.755 115.305C211.755 115.635 211.829 115.936 211.975 116.207C212.122 116.471 212.32 116.68 212.569 116.834C212.826 116.981 213.112 117.054 213.427 117.054ZM219.295 118.121C218.833 118.121 218.415 118.026 218.041 117.835C217.667 117.644 217.359 117.391 217.117 117.076L217.777 116.35C218.011 116.599 218.25 116.79 218.492 116.922C218.741 117.054 219.009 117.12 219.295 117.12C219.544 117.12 219.749 117.069 219.911 116.966C220.079 116.863 220.164 116.713 220.164 116.515C220.164 116.354 220.101 116.229 219.977 116.141C219.859 116.053 219.669 115.954 219.405 115.844L218.855 115.613C218.378 115.415 218.022 115.199 217.788 114.964C217.56 114.729 217.447 114.421 217.447 114.04C217.447 113.556 217.626 113.175 217.986 112.896C218.345 112.617 218.8 112.478 219.35 112.478C220.127 112.478 220.75 112.757 221.22 113.314L220.593 114.029C220.424 113.853 220.23 113.717 220.01 113.622C219.79 113.527 219.562 113.479 219.328 113.479C219.1 113.479 218.921 113.523 218.789 113.611C218.657 113.699 218.591 113.827 218.591 113.996C218.591 114.135 218.642 114.249 218.745 114.337C218.855 114.425 219.042 114.524 219.306 114.634L219.823 114.843C220.336 115.056 220.71 115.287 220.945 115.536C221.179 115.778 221.297 116.09 221.297 116.471C221.297 116.992 221.106 117.399 220.725 117.692C220.343 117.978 219.867 118.121 219.295 118.121ZM222.628 112.599H223.783V118H222.628V112.599ZM223.211 111.345C222.991 111.345 222.804 111.272 222.65 111.125C222.496 110.978 222.419 110.799 222.419 110.586C222.419 110.373 222.496 110.194 222.65 110.047C222.804 109.893 222.991 109.816 223.211 109.816C223.424 109.816 223.607 109.893 223.761 110.047C223.915 110.194 223.992 110.373 223.992 110.586C223.992 110.799 223.915 110.978 223.761 111.125C223.607 111.272 223.424 111.345 223.211 111.345ZM228.666 117.021V118C228.306 118.081 227.987 118.121 227.709 118.121C227.085 118.121 226.598 117.967 226.246 117.659C225.894 117.344 225.718 116.871 225.718 116.24V113.6H224.838V112.599H225.718V111.18H226.884V112.599H228.49V113.6H226.884V116.141C226.884 116.486 226.972 116.728 227.148 116.867C227.331 117.006 227.599 117.076 227.951 117.076C228.112 117.076 228.35 117.058 228.666 117.021ZM229.836 112.599H230.991V118H229.836V112.599ZM230.419 111.345C230.199 111.345 230.012 111.272 229.858 111.125C229.704 110.978 229.627 110.799 229.627 110.586C229.627 110.373 229.704 110.194 229.858 110.047C230.012 109.893 230.199 109.816 230.419 109.816C230.632 109.816 230.815 109.893 230.969 110.047C231.123 110.194 231.2 110.373 231.2 110.586C231.2 110.799 231.123 110.978 230.969 111.125C230.815 111.272 230.632 111.345 230.419 111.345ZM235.17 118.121C234.649 118.121 234.169 117.996 233.729 117.747C233.296 117.49 232.951 117.146 232.695 116.713C232.445 116.28 232.321 115.807 232.321 115.294C232.321 114.773 232.445 114.3 232.695 113.875C232.951 113.442 233.296 113.101 233.729 112.852C234.169 112.603 234.649 112.478 235.17 112.478C235.698 112.478 236.182 112.603 236.622 112.852C237.062 113.101 237.406 113.442 237.656 113.875C237.912 114.308 238.041 114.781 238.041 115.294C238.041 115.807 237.912 116.28 237.656 116.713C237.406 117.146 237.062 117.49 236.622 117.747C236.182 117.996 235.698 118.121 235.17 118.121ZM235.17 117.054C235.485 117.054 235.771 116.977 236.028 116.823C236.284 116.669 236.486 116.46 236.633 116.196C236.779 115.925 236.853 115.628 236.853 115.305C236.853 114.975 236.779 114.674 236.633 114.403C236.486 114.132 236.284 113.919 236.028 113.765C235.771 113.611 235.489 113.534 235.181 113.534C234.865 113.534 234.579 113.611 234.323 113.765C234.066 113.919 233.864 114.132 233.718 114.403C233.571 114.674 233.498 114.975 233.498 115.305C233.498 115.635 233.571 115.936 233.718 116.207C233.864 116.471 234.062 116.68 234.312 116.834C234.568 116.981 234.854 117.054 235.17 117.054ZM242.06 112.478C242.69 112.478 243.185 112.676 243.545 113.072C243.904 113.461 244.084 113.978 244.084 114.623V118H242.929V114.777C242.929 114.403 242.819 114.102 242.599 113.875C242.386 113.64 242.104 113.523 241.752 113.523C241.392 113.523 241.095 113.64 240.861 113.875C240.633 114.11 240.52 114.41 240.52 114.777V118H239.365V112.599H240.443V113.127C240.853 112.694 241.392 112.478 242.06 112.478Z" fill="#35364E"/>
<defs>
<linearGradient id="paint0_linear_1_396" x1="248.934" y1="137.052" x2="249.011" y2="136.532" gradientUnits="userSpaceOnUse">
<stop stop-color="#353957"/>
<stop offset="1" stop-color="#615376"/>
</linearGradient>
</defs>
</svg>
