<svg width="469" height="309" viewBox="0 0 469 309" fill="none" xmlns="http://www.w3.org/2000/svg">
<mask id="mask0_1_2" style="mask-type:alpha" maskUnits="userSpaceOnUse" x="0" y="0" width="469" height="309">
<path d="M0 5C0 2.23858 2.23858 0 5 0H464C466.761 0 469 2.23858 469 5V304C469 306.761 466.761 309 464 309H5.00001C2.23859 309 0 306.761 0 304V5Z" fill="#D6D6E7"/>
</mask>
<g mask="url(#mask0_1_2)">
<rect x="-6" y="-52" width="481" height="364" fill="#474864"/>
</g>
<path d="M177.001 250.702L176.995 250.702L113.086 251.701C113.069 251.69 113.049 251.676 113.026 251.661C112.937 251.601 112.803 251.511 112.629 251.389C112.281 251.145 111.772 250.777 111.129 250.281C109.843 249.288 108.025 247.782 105.9 245.735C101.649 241.639 96.1722 235.378 91.2746 226.717C81.4834 209.404 73.9947 182.481 83.2891 144.07C86.0802 132.534 95.595 117.992 109.392 106C123.184 94.0122 141.22 84.6055 161.019 83.2971C173.215 82.4934 182.118 78.1695 190.019 72.3261C193.966 69.4072 197.663 66.1088 201.393 62.6854C202.091 62.0438 202.791 61.398 203.494 60.7494C206.545 57.934 209.653 55.0665 212.977 52.2732C221.151 45.4045 230.618 38.9999 243.672 35.0159C256.729 31.0312 273.392 29.462 295.963 32.2954L296 32.0001L295.963 32.2954C308.312 33.8432 322.767 41.1442 336.638 53.1513C350.504 65.1544 363.765 81.8435 373.733 102.131C374.849 104.403 376.05 106.758 377.297 109.202C384.37 123.069 392.909 139.812 395.785 160.529C399.16 184.849 394.727 214.666 370.838 251.702L177.001 250.702Z" fill="white" stroke="#35354E" stroke-width="0.595323"/>
<path d="M279 102C279 102 311.475 105.494 331 69C331.014 69.0136 282.227 65.8866 279 102Z" fill="#DDDDDD"/>
<path d="M285 78H289C289.263 78 289 77.7296 289 78C289 78.2704 289.263 79 289 79H285C284.645 81.758 284.789 84.7283 286 88C286 88 304.105 81.8891 305 58C305.013 58 290.764 65.8594 285 78Z" fill="#B8B8B8"/>
<path d="M304.297 80L304.297 79.9982C304.283 77.5601 302.419 75.7023 300 75.7023H174C171.586 75.7023 169.674 77.5554 169.702 80.0017V249C169.702 251.441 171.582 253.298 174 253.298H300C302.402 253.298 304.297 251.456 304.297 249V80Z" fill="white" stroke="#35354E" stroke-width="0.595323"/>
<path d="M264.558 98.131C263.788 98.131 263.085 97.9524 262.45 97.5952C261.823 97.238 261.327 96.7498 260.962 96.1307C260.597 95.5116 260.414 94.8249 260.414 94.0709C260.414 93.3168 260.597 92.6302 260.962 92.0111C261.327 91.3919 261.827 90.9038 262.462 90.5466C263.097 90.1894 263.796 90.0108 264.558 90.0108C265.24 90.0108 265.86 90.1536 266.415 90.4394C266.971 90.7252 267.435 91.13 267.808 91.6539L266.891 92.404C266.304 91.5785 265.522 91.1657 264.546 91.1657C263.998 91.1657 263.51 91.2927 263.081 91.5467C262.653 91.7928 262.319 92.1381 262.081 92.5826C261.843 93.0191 261.724 93.5113 261.724 94.059C261.724 94.6146 261.847 95.1186 262.093 95.5711C262.339 96.0156 262.681 96.3648 263.117 96.6189C263.554 96.8729 264.054 96.9999 264.617 96.9999C265.133 96.9999 265.59 96.8967 265.987 96.6903C266.391 96.476 266.717 96.1823 266.963 95.8092V94.9639H264.546V93.8446H268.225V96.0592C267.876 96.6863 267.376 97.1904 266.725 97.5714C266.074 97.9444 265.352 98.131 264.558 98.131ZM269.774 90.1417H271.036V98H269.774V90.1417ZM276.685 98.131C275.915 98.131 275.213 97.9524 274.578 97.5952C273.951 97.238 273.455 96.7498 273.089 96.1307C272.724 95.5116 272.542 94.8249 272.542 94.0709C272.542 93.3168 272.724 92.6302 273.089 92.0111C273.455 91.3919 273.955 90.9038 274.59 90.5466C275.225 90.1894 275.923 90.0108 276.685 90.0108C277.368 90.0108 277.987 90.1536 278.543 90.4394C279.098 90.7252 279.563 91.13 279.936 91.6539L279.019 92.404C278.431 91.5785 277.65 91.1657 276.673 91.1657C276.126 91.1657 275.637 91.2927 275.209 91.5467C274.78 91.7928 274.447 92.1381 274.209 92.5826C273.971 93.0191 273.851 93.5113 273.851 94.059C273.851 94.6146 273.974 95.1186 274.221 95.5711C274.467 96.0156 274.808 96.3648 275.245 96.6189C275.681 96.8729 276.181 96.9999 276.745 96.9999C277.261 96.9999 277.717 96.8967 278.114 96.6903C278.519 96.476 278.844 96.1823 279.09 95.8092V94.9639H276.673V93.8446H280.352V96.0592C280.003 96.6863 279.503 97.1904 278.852 97.5714C278.201 97.9444 277.479 98.131 276.685 98.131ZM281.497 93.6899H284.425V94.7495H281.497V93.6899ZM245.169 113.131C244.415 113.131 243.72 112.952 243.085 112.595C242.458 112.238 241.958 111.75 241.585 111.131C241.22 110.512 241.037 109.825 241.037 109.071C241.037 108.317 241.22 107.63 241.585 107.011C241.958 106.392 242.458 105.904 243.085 105.547C243.72 105.189 244.415 105.011 245.169 105.011C245.891 105.011 246.546 105.173 247.133 105.499C247.729 105.824 248.197 106.265 248.538 106.821L247.586 107.523C247.308 107.086 246.967 106.753 246.562 106.523C246.157 106.285 245.697 106.166 245.181 106.166C244.649 106.166 244.165 106.293 243.728 106.547C243.3 106.793 242.962 107.138 242.716 107.583C242.47 108.027 242.347 108.523 242.347 109.071C242.347 109.619 242.47 110.115 242.716 110.559C242.962 111.004 243.3 111.353 243.728 111.607C244.165 111.853 244.649 111.976 245.181 111.976C245.697 111.976 246.157 111.861 246.562 111.631C246.967 111.393 247.308 111.055 247.586 110.619L248.538 111.321C248.205 111.877 247.741 112.317 247.145 112.643C246.558 112.968 245.899 113.131 245.169 113.131ZM253.633 113.131C252.879 113.131 252.185 112.952 251.55 112.595C250.923 112.238 250.426 111.75 250.061 111.131C249.696 110.512 249.514 109.825 249.514 109.071C249.514 108.317 249.696 107.63 250.061 107.011C250.434 106.392 250.935 105.904 251.562 105.547C252.189 105.189 252.879 105.011 253.633 105.011C254.379 105.011 255.07 105.189 255.705 105.547C256.34 105.904 256.84 106.392 257.205 107.011C257.578 107.63 257.765 108.317 257.765 109.071C257.765 109.825 257.578 110.512 257.205 111.131C256.84 111.75 256.34 112.238 255.705 112.595C255.07 112.952 254.379 113.131 253.633 113.131ZM253.645 111.976C254.177 111.976 254.657 111.853 255.086 111.607C255.515 111.353 255.852 111.004 256.098 110.559C256.344 110.115 256.467 109.615 256.467 109.059C256.467 108.519 256.344 108.027 256.098 107.583C255.852 107.138 255.515 106.793 255.086 106.547C254.657 106.293 254.177 106.166 253.645 106.166C253.105 106.166 252.621 106.293 252.193 106.547C251.764 106.793 251.427 107.138 251.181 107.583C250.942 108.019 250.823 108.511 250.823 109.059C250.823 109.615 250.942 110.115 251.181 110.559C251.427 111.004 251.764 111.353 252.193 111.607C252.621 111.853 253.105 111.976 253.645 111.976ZM265.757 105.142V113.131H265.329L260.542 107.678V113H259.28V105.011H259.721L264.495 110.44V105.142H265.757ZM269.59 106.273H266.947V105.142H273.508V106.273H270.853V113H269.59V106.273ZM279.628 113L277.389 109.964H275.949V113H274.687V105.142H277.556C278.08 105.142 278.544 105.245 278.949 105.451C279.354 105.65 279.667 105.932 279.89 106.297C280.112 106.662 280.223 107.079 280.223 107.547C280.223 108.063 280.088 108.515 279.818 108.904C279.548 109.293 279.179 109.579 278.711 109.761L281.068 113H279.628ZM275.949 108.845H277.532C277.969 108.845 278.31 108.726 278.556 108.487C278.802 108.249 278.925 107.94 278.925 107.559C278.925 107.17 278.802 106.856 278.556 106.618C278.31 106.38 277.969 106.261 277.532 106.261H275.949V108.845ZM286.913 111.69H283.377L282.817 113H281.472L284.936 105.011H285.365L288.83 113H287.472L286.913 111.69ZM285.151 107.356L283.829 110.607H286.46L285.151 107.356ZM293.55 113.131C292.796 113.131 292.102 112.952 291.467 112.595C290.84 112.238 290.34 111.75 289.967 111.131C289.601 110.512 289.419 109.825 289.419 109.071C289.419 108.317 289.601 107.63 289.967 107.011C290.34 106.392 290.84 105.904 291.467 105.547C292.102 105.189 292.796 105.011 293.55 105.011C294.273 105.011 294.928 105.173 295.515 105.499C296.11 105.824 296.579 106.265 296.92 106.821L295.967 107.523C295.69 107.086 295.348 106.753 294.944 106.523C294.539 106.285 294.078 106.166 293.562 106.166C293.031 106.166 292.546 106.293 292.11 106.547C291.681 106.793 291.344 107.138 291.098 107.583C290.852 108.027 290.729 108.523 290.729 109.071C290.729 109.619 290.852 110.115 291.098 110.559C291.344 111.004 291.681 111.353 292.11 111.607C292.546 111.853 293.031 111.976 293.562 111.976C294.078 111.976 294.539 111.861 294.944 111.631C295.348 111.393 295.69 111.055 295.967 110.619L296.92 111.321C296.587 111.877 296.122 112.317 295.527 112.643C294.94 112.968 294.281 113.131 293.55 113.131ZM300.275 106.273H297.632V105.142H304.192V106.273H301.537V113H300.275V106.273Z" fill="#35364E"/>
<path d="M243.396 127.121C242.934 127.121 242.516 127.026 242.142 126.835C241.768 126.644 241.46 126.391 241.218 126.076L241.878 125.35C242.113 125.599 242.351 125.79 242.593 125.922C242.842 126.054 243.11 126.12 243.396 126.12C243.645 126.12 243.851 126.069 244.012 125.966C244.181 125.863 244.265 125.713 244.265 125.515C244.265 125.354 244.203 125.229 244.078 125.141C243.961 125.053 243.77 124.954 243.506 124.844L242.956 124.613C242.479 124.415 242.124 124.199 241.889 123.964C241.662 123.729 241.548 123.421 241.548 123.04C241.548 122.556 241.728 122.175 242.087 121.896C242.446 121.617 242.901 121.478 243.451 121.478C244.228 121.478 244.852 121.757 245.321 122.314L244.694 123.029C244.525 122.853 244.331 122.717 244.111 122.622C243.891 122.527 243.664 122.479 243.429 122.479C243.202 122.479 243.022 122.523 242.89 122.611C242.758 122.699 242.692 122.827 242.692 122.996C242.692 123.135 242.743 123.249 242.846 123.337C242.956 123.425 243.143 123.524 243.407 123.634L243.924 123.843C244.437 124.056 244.811 124.287 245.046 124.536C245.281 124.778 245.398 125.09 245.398 125.471C245.398 125.992 245.207 126.399 244.826 126.692C244.445 126.978 243.968 127.121 243.396 127.121ZM251.592 124.679H247.566C247.639 125.119 247.833 125.467 248.149 125.724C248.471 125.973 248.864 126.098 249.326 126.098C249.89 126.098 250.415 125.885 250.899 125.46L251.449 126.252C250.833 126.831 250.114 127.121 249.293 127.121C248.743 127.121 248.248 127 247.808 126.758C247.368 126.509 247.019 126.171 246.763 125.746C246.513 125.313 246.389 124.833 246.389 124.305C246.389 123.784 246.51 123.308 246.752 122.875C247.001 122.442 247.338 122.101 247.764 121.852C248.196 121.603 248.669 121.478 249.183 121.478C249.659 121.478 250.085 121.588 250.459 121.808C250.84 122.021 251.137 122.314 251.35 122.688C251.57 123.062 251.68 123.484 251.68 123.953C251.68 124.18 251.65 124.422 251.592 124.679ZM249.139 122.457C248.757 122.457 248.424 122.578 248.138 122.82C247.859 123.055 247.676 123.374 247.588 123.777H250.525C250.517 123.366 250.378 123.044 250.107 122.809C249.843 122.574 249.52 122.457 249.139 122.457ZM256.094 121.599V122.622H255.742C255.288 122.622 254.91 122.754 254.609 123.018C254.309 123.275 254.158 123.641 254.158 124.118V127H253.003V121.599H254.081V122.303C254.272 122.061 254.503 121.874 254.774 121.742C255.053 121.61 255.346 121.544 255.654 121.544C255.816 121.544 255.962 121.562 256.094 121.599ZM262.122 121.599L259.515 127.121H259.119L256.501 121.599H257.733L259.317 125.174L260.89 121.599H262.122ZM263.165 121.599H264.32V127H263.165V121.599ZM263.748 120.345C263.528 120.345 263.341 120.272 263.187 120.125C263.033 119.978 262.956 119.799 262.956 119.586C262.956 119.373 263.033 119.194 263.187 119.047C263.341 118.893 263.528 118.816 263.748 118.816C263.961 118.816 264.144 118.893 264.298 119.047C264.452 119.194 264.529 119.373 264.529 119.586C264.529 119.799 264.452 119.978 264.298 120.125C264.144 120.272 263.961 120.345 263.748 120.345ZM268.509 127.121C267.981 127.121 267.497 126.996 267.057 126.747C266.625 126.498 266.28 126.157 266.023 125.724C265.774 125.291 265.649 124.815 265.649 124.294C265.649 123.773 265.774 123.3 266.023 122.875C266.28 122.442 266.628 122.101 267.068 121.852C267.508 121.603 267.989 121.478 268.509 121.478C269.008 121.478 269.452 121.592 269.84 121.819C270.236 122.039 270.552 122.343 270.786 122.732L269.972 123.37C269.584 122.82 269.1 122.545 268.52 122.545C268.198 122.545 267.908 122.622 267.651 122.776C267.395 122.93 267.193 123.143 267.046 123.414C266.9 123.678 266.826 123.971 266.826 124.294C266.826 124.624 266.9 124.925 267.046 125.196C267.193 125.46 267.395 125.669 267.651 125.823C267.908 125.977 268.198 126.054 268.52 126.054C269.092 126.054 269.576 125.783 269.972 125.24L270.786 125.867C270.544 126.256 270.225 126.564 269.829 126.791C269.441 127.011 269.001 127.121 268.509 127.121ZM276.814 124.679H272.788C272.862 125.119 273.056 125.467 273.371 125.724C273.694 125.973 274.086 126.098 274.548 126.098C275.113 126.098 275.637 125.885 276.121 125.46L276.671 126.252C276.055 126.831 275.337 127.121 274.515 127.121C273.965 127.121 273.47 127 273.03 126.758C272.59 126.509 272.242 126.171 271.985 125.746C271.736 125.313 271.611 124.833 271.611 124.305C271.611 123.784 271.732 123.308 271.974 122.875C272.224 122.442 272.561 122.101 272.986 121.852C273.419 121.603 273.892 121.478 274.405 121.478C274.882 121.478 275.307 121.588 275.681 121.808C276.063 122.021 276.36 122.314 276.572 122.688C276.792 123.062 276.902 123.484 276.902 123.953C276.902 124.18 276.873 124.422 276.814 124.679ZM274.361 122.457C273.98 122.457 273.646 122.578 273.36 122.82C273.082 123.055 272.898 123.374 272.81 123.777H275.747C275.74 123.366 275.601 123.044 275.329 122.809C275.065 122.574 274.743 122.457 274.361 122.457ZM279.898 127.121C279.436 127.121 279.018 127.026 278.644 126.835C278.27 126.644 277.962 126.391 277.72 126.076L278.38 125.35C278.615 125.599 278.853 125.79 279.095 125.922C279.344 126.054 279.612 126.12 279.898 126.12C280.147 126.12 280.353 126.069 280.514 125.966C280.683 125.863 280.767 125.713 280.767 125.515C280.767 125.354 280.705 125.229 280.58 125.141C280.463 125.053 280.272 124.954 280.008 124.844L279.458 124.613C278.981 124.415 278.626 124.199 278.391 123.964C278.164 123.729 278.05 123.421 278.05 123.04C278.05 122.556 278.23 122.175 278.589 121.896C278.948 121.617 279.403 121.478 279.953 121.478C280.73 121.478 281.354 121.757 281.823 122.314L281.196 123.029C281.027 122.853 280.833 122.717 280.613 122.622C280.393 122.527 280.166 122.479 279.931 122.479C279.704 122.479 279.524 122.523 279.392 122.611C279.26 122.699 279.194 122.827 279.194 122.996C279.194 123.135 279.245 123.249 279.348 123.337C279.458 123.425 279.645 123.524 279.909 123.634L280.426 123.843C280.939 124.056 281.313 124.287 281.548 124.536C281.783 124.778 281.9 125.09 281.9 125.471C281.9 125.992 281.709 126.399 281.328 126.692C280.947 126.978 280.47 127.121 279.898 127.121Z" fill="#35364E"/>
<path d="M210.702 168.702H188.298V146.298H210.702V168.702Z" stroke="#35364E" stroke-width="0.595323"/>
<path d="M210.702 200.702H188.298V178.298H210.702V200.702Z" stroke="#35364E" stroke-width="0.595323"/>
<path d="M210.702 232.702H188.298V210.298H210.702V232.702Z" stroke="#35364E" stroke-width="0.595323"/>
<path d="M146 125C146 125 149.614 123.196 153 124C154.963 124.474 156.877 126.288 157 128V130L146 127C146 127 144.877 127.206 145 127C145.098 126.794 146 125 146 125Z" fill="#FE9F73"/>
<path d="M157 128V136C157 136 157.454 139.525 155 140V143C155.252 144.356 155.307 146.503 154 147C153.358 147.249 151.871 146.955 151 147C148.179 147.158 146.275 145.017 146 144C145.702 142.983 146 138 146 138V136V126L157 128Z" fill="#FFB27D"/>
<path d="M146 125C146 125 142.59 125.353 142 128C141.41 130.647 142.934 131.217 143 132C143.065 132.783 142.524 138.598 146 138L147 129L146 126V125Z" fill="#51638D"/>
<path d="M148.471 132.074C148.982 131.094 148.601 129.886 147.621 129.376C146.642 128.866 145.434 129.247 144.924 130.226C144.414 131.206 144.794 132.414 145.774 132.924C146.753 133.434 147.961 133.054 148.471 132.074Z" fill="#FFB27D"/>
<path d="M148 137C148 137 148.458 141.858 155 142L154 139C154 139 150.291 140.152 148 137Z" fill="#ED975D"/>
<path d="M146 139V135H147V139H146Z" fill="#FFB27D"/>
<path d="M146 125C146 125 145.964 126.469 147 129C148.054 131.531 144 128 144 128C144 128 144.192 124.481 146 125Z" fill="#51638D"/>
<path d="M147 129C147 129 156.559 127.912 157 126C157.441 124.088 155 124 155 124C155 124 155.694 121.075 153 122C150.305 122.925 144.277 123.676 143 126C141.722 128.324 147 129 147 129Z" fill="#51638D"/>
<path d="M147 131V132H148C148 132 148.526 128.887 148 128C147.473 127.113 145 129 145 129L147 131Z" fill="#51638D"/>
<path d="M155 136C154.944 136 152 136 152 136C152 136 151.908 136.978 153 137C154.092 137.044 155 136 155 136Z" fill="#FBFDFC"/>
<path d="M146 249H139V243L146 242V249Z" fill="#FE9F73"/>
<path d="M161 249H154V243L161 242V249Z" fill="#FE9F73"/>
<path d="M161 194C160.087 195.296 159 194 159 194C158.437 194.648 158.15 195.221 158 195C157.9 194.848 157.95 194.179 158 194C158.162 193.421 158.612 192.089 159 191C158.912 190.255 158.575 190.628 158 191C157.7 191.193 156.537 190.841 157 190C157.375 189.31 159 188 159 188L158 184H164C164 184 163.962 189.269 164 190C164.037 190.717 163.537 193.228 163 194C162.025 195.393 162 194 162 194C160.9 195.338 161 194 161 194Z" fill="#FFB27D"/>
<path d="M160 193C160 192.955 160.027 193.015 160 193C159.96 192.985 160.013 192.955 160 193C159.785 193.685 159.013 194.985 159 195C158.973 195.045 158.96 194.97 159 195C159.04 195.03 158.973 195.045 159 195C159.027 194.955 159.772 193.7 160 193C160 192.97 160 193.015 160 193Z" fill="#F07162"/>
<path d="M162 193C162 192.954 162.048 193 162 193C161.952 192.985 162 192.954 162 193C161.808 193.884 161.016 195 161 195C160.968 195.046 160.952 194.97 161 195C161.048 195.03 160.968 195.046 161 195C161.016 194.97 161.808 193.915 162 193C162 192.97 162 193 162 193Z" fill="#F07162"/>
<path d="M165 186V188C165 188 163.872 189.062 162 189V186H165Z" fill="#233862"/>
<path d="M149 180C149 180 149.973 221.553 153 245C153 245 156.914 246.322 162 244V183L163 174L149 180Z" fill="#ED7D2B"/>
<path d="M139 180C139 180 136.968 220.255 139 244C139 244 142.707 246.024 148 244L154 186L157 171L139 180Z" fill="#F99746"/>
<path d="M160 145C160 145 163.529 146.402 164 149C164.471 151.598 165.848 182.909 165 186H160V145Z" fill="#233862"/>
<path d="M136 163L138 188C138 188 151.126 191.27 161 186C161 186 159.308 147.539 159 146C158.638 144.175 149.105 143.551 145 144C145 144 138.408 144.094 135 146L136 163Z" fill="#233862"/>
<path d="M137 158V189C137 189 145.08 190.586 149 189C149 189 148.6 145.354 147 144C146.8 144 142.88 143.631 140 144C137.133 144.356 137 158 137 158Z" fill="#51638D"/>
<path d="M154 144C154 144 155.203 182.333 156 188C156 188 158.858 188.45 163 187C163 187 162.075 147.061 161 146C159.925 144.939 154 144 154 144Z" fill="#51638D"/>
<path d="M127 172C127.849 167.709 125.383 165.435 124 164C123.521 165.366 123.137 166.62 123 168C122.808 169.845 124.467 172.445 126 175C126.438 174.358 126.795 173.093 127 172Z" fill="#FEC786"/>
<path d="M137 147C137.03 147 136.97 147.027 137 147C137.977 145.799 139.985 145 140 145C140.059 144.987 140.03 145.054 140 145C139.985 144.946 140.059 144.973 140 145C139.926 145.014 138.022 145.758 137 147C136.97 147.041 136.955 146.96 137 147C137.044 147.014 136.985 147 137 147Z" fill="#21111D"/>
<path d="M137 148C137.03 148 136.97 148.027 137 148C137.977 146.799 139.985 146 140 146C140.059 145.987 140.03 146.054 140 146C139.97 145.946 140.059 145.973 140 146C139.926 146.014 138.022 146.758 137 148C136.97 148.041 136.955 147.96 137 148C137.044 148.014 136.985 148 137 148Z" fill="#21111D"/>
<path d="M101.189 211.89L109 221L189.138 153.155L181.327 144.045L101.189 211.89Z" fill="url(#paint0_linear_1_2)"/>
<path d="M97.9999 221C100.142 223.696 104.488 223.299 107 221L113 217L105 207L98.9999 212C96.5008 214.299 95.8578 218.304 97.9999 221Z" fill="#B5453C"/>
<path d="M195 139L187 154C186.223 154.638 184.681 153.755 184 153C183.319 152.245 183.21 151.638 184 151C183.223 151.638 181.845 150.95 181 150C180.155 149.05 180.223 147.638 181 147C180.223 147.638 178.681 147.755 178 147C177.319 146.245 178.21 144.638 179 144L195 139Z" fill="#F7D6B2"/>
<path d="M187 154C187 154 184.842 153.44 185 151L183 153L185 156L187 154Z" fill="#F7D6B2"/>
<path d="M181 147C181 147 178.841 146.074 179 144L177 145L179 148L181 147Z" fill="#F7D6B2"/>
<path d="M185 150C185 150 182.18 150.285 182 147L180 149L183 152L185 150Z" fill="#F7D6B2"/>
<path d="M193 144C193 144 190.31 143.687 190 141L195 139L193 144Z" fill="#B5453C"/>
<path d="M144 192C145.567 192.208 145 191 145 191C145.856 191.026 146.039 190.247 146 190C145.974 189.818 146.171 190.078 146 190C145.486 189.727 144.014 188.455 143 188C142.565 187.429 143.315 187.169 144 187C144.356 186.922 144.922 186.234 144 186C143.249 185.805 141 186 141 186L139 183L135 187C135 187 138.539 190.494 139 191C139.461 191.507 141.078 192.87 142 193C143.659 193.234 143 193 143 193C144.738 193.078 144 192 144 192Z" fill="#FFB27D"/>
<path d="M143 190C142.971 189.967 142.985 190.033 143 190C143.029 189.95 142.956 189.983 143 190C143.637 190.365 144.985 191 145 191C145.043 191.017 145 190.934 145 191C144.985 191.05 145.058 191 145 191C144.956 190.983 143.652 190.365 143 190C142.985 189.983 143 190.017 143 190Z" fill="#FFB27D"/>
<path d="M143 191C142.969 190.971 142.969 191.044 143 191C143.031 190.956 142.953 190.971 143 191C143.764 191.482 145 192 145 192C145.047 192.015 145 191.942 145 192C144.984 192.044 145.062 192 145 192C144.953 191.985 143.811 191.511 143 191C143 191 143 191.015 143 191Z" fill="#FFB27D"/>
<path d="M142 192C141.983 191.966 141.983 192.051 142 192C142.017 191.949 141.975 191.966 142 192C142.363 192.456 142.991 193 143 193C143.025 193.017 143.008 192.949 143 193C142.991 193.051 143.025 193.017 143 193C142.983 193 142.388 192.473 142 192C141.991 192 142 192 142 192Z" fill="#FFB27D"/>
<path d="M142 144C142 144 136.302 143.435 133 149C129.979 154.089 123.722 160.966 123 168C122.412 173.687 133.26 185.292 136 188L141 183C141 183 132.601 170.538 132 169C131.452 167.599 143 152 143 152L142 144Z" fill="#51638D"/>
<path d="M139 251V248C139 248 139.545 246.266 141 247C141 247 144.069 249.085 146 247L150 250C150 250 151.646 250.222 152 251H139V251Z" fill="#3761B7"/>
<path d="M154 251V248C154 248 154.563 246.28 156 247C156 247 158.093 249.045 160 247L165 250C165 250 166.651 250.237 167 251H154Z" fill="#3761B7"/>
<path d="M293 236C293 236 296.765 244.191 294 250H357H363L368 247V242L367 238L362 236H293Z" fill="white"/>
<path d="M360 251H292C291.563 251 291 250.423 291 250C291 249.577 291.549 249 292 249H360C364.115 249 367 246.577 367 243C367 239.423 364.115 237 360 237H292C291.563 237 291 236.423 291 236C291 235.59 291.549 235 292 235H360C365.003 235 369 238.59 369 243C369 247.41 365.003 251 360 251Z" fill="#B8B8B8"/>
<path d="M294.178 243.333H327.614C327.71 243.333 327.792 243.256 327.792 243.167C327.792 243.077 327.71 243 327.614 243H294.178C294.082 243 294 243.077 294 243.167C294 243.256 294.068 243.333 294.178 243.333Z" fill="#DDDDDD"/>
<path d="M332.462 243.167H364.942C365.037 243.167 365.119 243.09 365.119 243C365.119 242.91 365.037 242.833 364.942 242.833H332.462C332.366 242.833 332.284 242.91 332.284 243C332.284 243.09 332.366 243.167 332.462 243.167Z" fill="#DDDDDD"/>
<path d="M347.402 246.167H364.065C364.161 246.167 364.243 246.09 364.243 246C364.243 245.91 364.161 245.833 364.065 245.833H347.402C347.306 245.833 347.224 245.91 347.224 246C347.224 246.09 347.306 246.167 347.402 246.167Z" fill="#D6D6E7"/>
<path d="M294.321 246.167H344.968C345.063 246.167 345.145 246.09 345.145 246C345.145 245.91 345.063 245.833 344.968 245.833H294.321C294.225 245.833 294.143 245.91 294.143 246C294.143 246.09 294.212 246.167 294.321 246.167Z" fill="#DDDDDD"/>
<path d="M294.321 240.167H364.078C364.174 240.167 364.256 240.09 364.256 240C364.256 239.91 364.174 239.833 364.078 239.833H294.321C294.225 239.833 294.143 239.91 294.143 240C294.143 240.09 294.212 240.167 294.321 240.167Z" fill="#DDDDDD"/>
<path d="M367.777 219.179C367.777 219.179 364.735 226.853 367.286 232.664L308.894 233.157L303.507 232.664L298.76 229.704V225.181L300.083 221.44L304.393 219.179H367.777V219.179Z" fill="white"/>
<path d="M306.153 232.349H369.25C369.659 232.349 370 232.052 370 231.669C370 231.298 369.672 230.989 369.25 230.989H306.153C302.347 230.989 299.251 228.379 299.251 225.175C299.251 221.971 302.347 219.361 306.153 219.361H369.25C369.659 219.361 370 219.064 370 218.68C370 218.309 369.672 218 369.25 218H306.153C301.529 218 297.764 221.216 297.764 225.162C297.764 229.145 301.529 232.349 306.153 232.349Z" fill="#B8B8B8"/>
<path d="M318.006 226.141H348.968C349.064 226.141 349.146 226.058 349.146 225.963C349.146 225.867 349.064 225.784 348.968 225.784H318.006C317.911 225.784 317.829 225.867 317.829 225.963C317.829 226.058 317.911 226.141 318.006 226.141Z" fill="#DDDDDD"/>
<path d="M301.516 226.141H331.591C331.687 226.141 331.769 226.058 331.769 225.963C331.769 225.867 331.687 225.784 331.591 225.784H301.516C301.421 225.784 301.339 225.867 301.339 225.963C301.339 226.058 301.421 226.141 301.516 226.141Z" fill="#DDDDDD"/>
<path d="M302.321 229.128H317.761C317.856 229.128 317.938 229.046 317.938 228.95C317.938 228.854 317.856 228.772 317.761 228.772H302.321C302.225 228.772 302.143 228.854 302.143 228.95C302.143 229.046 302.225 229.128 302.321 229.128Z" fill="#DDDDDD"/>
<path d="M302.321 223.167H366.918C367.014 223.167 367.095 223.085 367.095 222.989C367.095 222.893 367.014 222.81 366.918 222.81H302.321C302.225 222.81 302.143 222.893 302.143 222.989C302.143 223.085 302.225 223.167 302.321 223.167Z" fill="#DDDDDD"/>
<path d="M320.025 229.128H366.919C367.014 229.128 367.096 229.046 367.096 228.95C367.096 228.854 367.014 228.772 366.919 228.772H320.025C319.93 228.772 319.848 228.854 319.848 228.95C319.848 229.046 319.93 229.128 320.025 229.128Z" fill="#DDDDDD"/>
<path d="M192.006 36.561C192.006 36.561 192.347 39.1083 194.458 39.0674L192.006 36.561Z" fill="#FE9F73"/>
<path d="M192.592 48.9568L197.891 51.5995L204.266 55.5226L205.887 57.4433L208.979 62.1973C219.686 59.8135 217.125 53.7517 216.484 52.6756C214.754 49.7605 210.845 46.3959 208.679 43.9031C208.175 43.331 207.657 42.8134 207.167 42.3502C205.696 41.0017 203.762 40.2525 201.759 40.2525H198.667H196.814L192.592 48.9568ZM205.233 50.3326C205.233 50.3326 205.846 50.8639 205.873 50.8911C207.29 52.3078 209.142 54.1604 209.142 54.1604L209.374 54.2421L205.873 55.9721C205.873 55.9721 205.519 56.1083 205.478 56.0402C205.464 55.9993 205.233 50.3326 205.233 50.3326Z" fill="#3761B7"/>
<path d="M192.346 40.2797H190.494H187.402C185.399 40.2797 183.465 41.0153 181.994 42.3775C181.503 42.827 180.986 43.3446 180.482 43.9304C178.33 46.4096 174.42 49.7878 172.676 52.7029C172.036 53.7654 169.475 59.8407 180.182 62.2245L183.274 57.4705L184.895 55.5498L191.27 51.6267L196.569 48.9841L192.346 40.2797ZM183.669 56.0402C183.628 56.1219 183.274 55.9721 183.274 55.9721L179.773 54.2421L180.005 54.1604C180.005 54.1604 181.858 52.3078 183.274 50.8912C183.302 50.8639 183.915 50.3327 183.915 50.3327C183.915 50.3327 183.683 55.9994 183.669 56.0402Z" fill="#3761B7"/>
<path d="M186.667 109.043L192.933 107.081L190.508 99.3441L183.983 100.393L186.667 109.043Z" fill="#FE9F73"/>
<path d="M194.958 84.2617L191.898 78.0402L185.31 81.2811L188.37 87.5025L194.958 84.2617Z" fill="#FFB27D"/>
<path d="M196.583 76.1869C196.433 76.1869 190.835 78.666 190.835 78.666L189.05 79.8239C189.05 79.8239 191.775 98.4041 192.279 103.362C192.279 103.362 188.328 106.141 184.323 106.25C184.323 106.25 176.069 77.4809 176.069 73.8303C176.069 70.1796 193.627 61.5161 193.627 61.5161L201.61 66.1203C201.61 66.1203 213.61 67.1011 216.376 68.9809C219.141 70.8471 194.949 81.8127 194.949 81.8127L196.583 76.1869Z" fill="#F99746"/>
<path d="M190.412 77.9714C190.412 77.9714 203.966 69.8937 208.625 68.6404C213.283 67.3872 216.621 68.4497 217.125 69.9073C217.629 71.3784 218.133 75.5331 217.125 76.8953C216.117 78.2575 198.435 84.796 194.39 85.913C194.403 85.913 190.794 81.7174 190.412 77.9714Z" fill="#F99746"/>
<path d="M183.669 56.0402L183.492 67.0466C183.492 67.0466 195.357 69.2125 205.928 66.4064C206.186 66.3383 205.437 55.577 205.437 55.577C205.437 55.577 205.437 53.4929 204.334 52.8391C203.23 52.1852 194.308 40.988 194.09 40.988C193.872 40.988 183.669 56.0402 183.669 56.0402Z" fill="#3761B7"/>
<path d="M193.635 23.9682C193.792 22.9391 194.751 22.1192 195.78 22.1018C195.885 22.1018 196.007 22.1018 196.094 22.1541C196.216 22.2065 196.304 22.2762 196.408 22.3286C196.687 22.4681 197.036 22.4332 197.246 22.66C197.455 22.9042 197.35 23.2879 197.403 23.6019C197.455 23.8461 197.612 24.0554 197.699 24.2822C197.874 24.7357 197.786 25.259 197.56 25.6951C197.333 26.1312 197.001 26.48 196.67 26.8463C196.391 27.1429 196.112 27.4394 195.745 27.5789C195.013 27.858 194.49 27.3347 194.245 26.6893C193.949 25.8521 193.495 24.8927 193.635 23.9682Z" fill="#6175A8"/>
<path d="M189.396 28.5383C189.396 28.5383 187.32 34.5039 187.076 34.9923C186.832 35.4981 185.559 37.8006 186.012 40.5217C186.466 43.2429 194.681 44.2022 194.681 44.2022L194.524 25.5381C194.524 25.5556 190.861 25.1021 189.396 28.5383Z" fill="#6175A8"/>
<path d="M199.583 28.5383C199.583 28.5383 201.658 34.5039 201.903 34.9923C202.147 35.4981 203.42 37.8006 202.967 40.5217C202.513 43.2429 194.297 44.2022 194.297 44.2022L194.454 25.5381C194.454 25.5556 198.117 25.1021 199.583 28.5383Z" fill="#6175A8"/>
<path d="M197.263 41.2892L192.083 41.1846L192.362 36.9633H196.74L197.263 41.2892Z" fill="#FFB27D"/>
<path d="M192.239 38.7077C192.745 39.1263 193.425 39.4577 194.071 39.5449C194.175 39.5449 194.28 39.5449 194.402 39.5449H194.42H194.437C194.542 39.5449 194.664 39.5449 194.768 39.5449C195.518 39.4403 196.356 39.0216 196.914 38.4809L196.722 36.9633H192.344L192.239 38.7077Z" fill="#ED975D"/>
<path d="M197.856 29.6373C197.647 29.2186 197.368 28.9221 197.106 28.7477C196.566 28.5035 195.659 28.172 194.507 28.0325H194.455H194.42H194.368C193.217 28.1546 192.327 28.486 191.769 28.7477C191.507 28.9395 191.228 29.2186 191.019 29.6373C190.914 30.4222 190.792 31.8525 190.775 33.3003C190.757 34.5911 191.106 35.8819 191.821 36.9285C192.362 37.7134 193.129 38.4286 194.211 38.5332C194.281 38.5332 194.368 38.5332 194.438 38.5332H194.455H194.472C194.56 38.5332 194.629 38.5332 194.699 38.5332C195.763 38.4286 196.548 37.7134 197.089 36.9285C197.804 35.8819 198.153 34.6085 198.135 33.3003C198.083 31.87 197.944 30.4222 197.856 29.6373Z" fill="#FFB27D"/>
<path d="M197.211 34.1375C197.211 34.8003 197.752 35.341 198.414 35.341C199.077 35.341 199.618 34.8003 199.618 34.1375C199.618 33.4746 199.077 32.9339 198.414 32.9339C197.752 32.9339 197.211 33.4746 197.211 34.1375Z" fill="#FFB27D"/>
<path d="M191.96 34.1375C191.96 34.8003 191.42 35.341 190.757 35.341C190.094 35.341 189.553 34.8003 189.553 34.1375C189.553 33.4746 190.094 32.9339 190.757 32.9339C191.42 32.9339 191.96 33.4746 191.96 34.1375Z" fill="#FFB27D"/>
<path d="M190.233 32.9863C190.233 32.9863 194.681 30.8408 195.048 28.1023L195.24 28.7302C195.24 28.7302 196.775 32.7596 198.693 32.9689C198.693 32.9689 200.35 26.9336 195.588 25.73C190.792 24.5264 189.85 29.2535 190.233 32.9863Z" fill="#6175A8"/>
<path d="M197.874 35.219C197.874 35.219 197.438 38.568 194.734 38.5157L196.722 33.9282L197.874 35.219Z" fill="#FFB27D"/>
<path d="M189.083 40.0856H200.089C200.089 40.0856 198.101 43.5394 194.298 43.5219C192.554 43.5045 190.687 42.8591 189.083 40.0856Z" fill="#FFB27D"/>
<path d="M197.633 54.3239L198.982 60.767C198.982 60.767 201.747 58.5194 201.747 58.2742C201.747 58.029 200.875 55.0322 200.78 54.9777C200.684 54.9096 197.633 54.3239 197.633 54.3239Z" fill="#4CB7D8"/>
<path d="M185.698 50.3735V49.4609L194.484 52.3078L190.806 55.9176L185.698 50.3735Z" fill="white"/>
<path d="M203.598 50.3735V49.4608L194.812 52.3078L198.49 55.9175L203.598 50.3735Z" fill="white"/>
<path d="M185.318 49.7742C185.318 50.1147 185.986 63.3824 185.986 63.3824L194.581 65.6164V52.5667L185.318 49.7742Z" fill="#B5453C"/>
<path d="M203.831 49.7742C203.831 50.1147 203.164 63.3824 203.164 63.3824L194.569 65.6164V52.5667L203.831 49.7742Z" fill="#B5453C"/>
<path d="M190.276 59.0914C190.821 58.5329 190.317 57.8382 190.317 57.8382C190.426 57.3887 190.412 57.0754 190.371 56.8711C190.344 56.7349 190.208 56.6531 190.085 56.694C189.486 56.8711 187.77 57.4023 186.707 57.7974C185.972 57.6884 185.713 57.3342 185.713 57.3342L185.699 57.3615C185.685 56.7212 185.672 55.9312 185.672 55.8358C185.672 55.686 185.427 55.4408 185.045 55.9175C184.664 56.3943 183.928 57.6884 183.928 57.6884H181.708L180.482 61.9112C180.482 61.9112 185.086 62.565 185.794 62.6195C186.503 62.674 188.968 62.0883 189.704 61.4753C190.439 60.8623 190.276 60.3174 190.276 60.3174C190.821 59.6772 190.276 59.0914 190.276 59.0914Z" fill="#FFB27D"/>
<path d="M188.751 58.6555C188.71 58.6555 188.683 58.6283 188.669 58.6011C188.656 58.5602 188.683 58.5057 188.724 58.4921C189.351 58.2878 190.263 57.7701 190.263 57.7701C190.304 57.7429 190.359 57.7565 190.386 57.7974C190.413 57.8382 190.399 57.8927 190.359 57.92C190.318 57.9472 189.432 58.4512 188.778 58.6555C188.765 58.6555 188.765 58.6555 188.751 58.6555Z" fill="#FFB27D"/>
<path d="M188.751 59.7453C188.71 59.7453 188.669 59.7181 188.669 59.6772C188.655 59.6364 188.696 59.5819 188.737 59.5819C189.527 59.432 190.222 59.037 190.236 59.0234C190.276 58.9961 190.331 59.0098 190.358 59.0506C190.385 59.0915 190.372 59.146 190.331 59.1732C190.304 59.1869 189.609 59.5955 188.778 59.7453C188.764 59.7453 188.751 59.7453 188.751 59.7453Z" fill="#FFB27D"/>
<path d="M188.941 60.9849C188.9 60.9849 188.873 60.9577 188.859 60.9168C188.846 60.876 188.873 60.8215 188.928 60.8215C189.609 60.6716 190.222 60.2766 190.235 60.2766C190.276 60.2494 190.331 60.263 190.358 60.3038C190.385 60.3447 190.371 60.3992 190.331 60.4264C190.303 60.4401 189.677 60.8351 188.968 60.9986C188.955 60.9713 188.941 60.9849 188.941 60.9849Z" fill="#FFB27D"/>
<path d="M184.446 56.5579L183.915 62.6333C183.915 62.6333 181.994 62.8376 178.289 61.7206C174.584 60.59 177.663 54.5146 177.881 54.4193C178.112 54.3239 180.578 54.6372 180.578 54.6372L184.446 56.5579Z" fill="#3761B7"/>
<path d="M198.872 59.0914C198.327 58.5329 198.831 57.8382 198.831 57.8382C198.749 57.5113 198.736 57.2525 198.749 57.0618C198.763 56.8302 198.995 56.6804 199.213 56.7485C199.907 56.9528 201.46 57.4432 202.455 57.7974C203.19 57.6884 203.449 57.3342 203.449 57.3342L203.463 57.3615C203.476 56.7212 203.49 55.9312 203.49 55.8358C203.49 55.686 203.735 55.4408 204.116 55.9175C204.498 56.3943 205.233 57.6884 205.233 57.6884H207.454L208.68 61.9112C208.68 61.9112 204.076 62.565 203.367 62.6195C202.659 62.674 200.193 62.0883 199.458 61.4753C198.722 60.8623 198.886 60.3174 198.886 60.3174C198.327 59.6772 198.872 59.0914 198.872 59.0914Z" fill="#FFB27D"/>
<path d="M200.397 58.6555C200.438 58.6555 200.465 58.6283 200.479 58.6011C200.492 58.5602 200.465 58.5057 200.424 58.4921C199.798 58.2878 198.885 57.7701 198.885 57.7701C198.844 57.7429 198.79 57.7565 198.763 57.7974C198.735 57.8382 198.749 57.8927 198.79 57.92C198.831 57.9472 199.716 58.4512 200.37 58.6555C200.37 58.6555 200.384 58.6555 200.397 58.6555Z" fill="#FFB27D"/>
<path d="M200.397 59.7453C200.438 59.7453 200.479 59.7181 200.479 59.6772C200.493 59.6364 200.452 59.5819 200.411 59.5819C199.621 59.432 198.926 59.037 198.912 59.0234C198.872 58.9961 198.817 59.0098 198.79 59.0506C198.763 59.0915 198.776 59.146 198.817 59.1732C198.844 59.1869 199.539 59.5955 200.37 59.7453C200.384 59.7453 200.384 59.7453 200.397 59.7453Z" fill="#FFB27D"/>
<path d="M200.206 60.9849C200.247 60.9849 200.275 60.9577 200.288 60.9168C200.302 60.876 200.275 60.8215 200.22 60.8215C199.539 60.6716 198.926 60.2766 198.912 60.2766C198.872 60.2494 198.817 60.263 198.79 60.3038C198.763 60.3447 198.776 60.3992 198.817 60.4264C198.844 60.4401 199.471 60.8351 200.179 60.9986C200.193 60.9713 200.193 60.9849 200.206 60.9849Z" fill="#FFB27D"/>
<path d="M204.688 56.5579L205.219 62.6333C205.219 62.6333 207.14 62.8376 210.845 61.7206C214.55 60.59 211.472 54.5146 211.254 54.4193C211.022 54.3239 208.556 54.6372 208.556 54.6372L204.688 56.5579Z" fill="#3761B7"/>
<path fill-rule="evenodd" clip-rule="evenodd" d="M193.843 108.222L192.715 106.128C192.715 106.128 191.257 105.419 190.29 106.7C190.29 106.7 189.118 109.152 186.489 108.362L183.288 112.557C183.288 112.557 182.348 113.579 182.376 114.383L183.188 113.947L183.18 113.96L182.39 114.383C182.117 114.532 181.967 114.859 182.063 115.159C182.199 115.568 182.648 115.745 182.989 115.554L194.581 109.315C194.663 109.274 194.704 109.165 194.649 109.07L194.227 108.294C194.159 108.171 194.009 108.13 193.886 108.198L193.843 108.222ZM188.899 110.881L188.901 110.882L190.305 110.126L188.899 110.881Z" fill="#233862"/>
<path d="M366.473 185.721C366.473 185.721 365.833 176.758 362.359 178.501C358.886 180.245 356.052 191.646 355.671 191.987C355.289 192.328 355.412 202.762 355.412 202.762L359.458 200.719C359.444 200.732 360.52 175.791 366.473 185.721Z" fill="#B8B8B8"/>
<path d="M362.578 167.182C362.578 167.182 354.786 174.156 352.661 186.102C350.536 198.049 357.252 201.577 357.252 201.577C357.252 201.577 358.206 176.445 362.578 167.182Z" fill="#DDDDDD"/>
<path d="M348.125 203.184C348.125 203.184 346.817 177.739 340.251 166.705C340.251 166.705 351.802 173.598 355.63 191.674C355.848 192.695 355.971 193.826 356.134 194.916C356.298 196.046 356.407 197.054 356.379 198.049C356.338 199.82 356.093 201.345 356.012 202.462C355.385 212.12 348.125 203.184 348.125 203.184Z" fill="#B8B8B8"/>
<path d="M348.343 192.382C347.893 188.759 346.517 185.299 344.311 182.384C342.717 180.286 340.864 178.692 339.42 179.823C336.206 182.356 335.565 198.076 335.565 198.076C335.565 198.076 339.189 187.192 340.783 187.914C342.376 188.636 343.847 203.416 343.847 203.416L349.787 203.906L348.343 192.382Z" fill="#DDDDDD"/>
<path d="M361.502 200.078C361.502 200.078 361.161 218.686 356.176 218.236H352.252H351.626H347.703C342.717 218.672 342.377 200.078 342.377 200.078C347.117 199.37 356.789 199.37 361.502 200.078Z" fill="#B5453C"/>
<path d="M368.17 118.466L368.169 118.466C364.372 118.25 355.447 117.875 347.677 118.526L347.677 118.526C344.645 118.786 342.026 116.368 342.1 113.324L342.101 113.321C342.119 112.077 342.583 110.6 343.777 108.906L343.777 108.906C344.913 107.29 346.242 106.484 347.586 106.213C348.937 105.94 350.333 106.201 351.603 106.774C352.873 107.348 354 108.228 354.802 109.166C355.612 110.114 356.054 111.077 356.037 111.815L356.617 111.913C356.618 111.914 356.618 111.914 356.618 111.914L356.618 111.914L356.618 111.914L356.618 111.912L356.621 111.903C356.624 111.895 356.628 111.882 356.635 111.865C356.647 111.831 356.666 111.78 356.692 111.714C356.744 111.583 356.825 111.395 356.937 111.171C357.162 110.722 357.512 110.135 358.009 109.577C358.998 108.469 360.567 107.477 362.948 107.907L362.949 107.907C364.119 108.114 364.878 108.695 365.374 109.45C365.876 110.215 366.117 111.174 366.207 112.132C366.296 113.088 366.234 114.022 366.148 114.72C366.105 115.068 366.056 115.356 366.019 115.556C366 115.655 365.984 115.733 365.973 115.786C365.967 115.812 365.963 115.832 365.96 115.845L365.956 115.859L365.956 115.862L365.956 115.863L365.956 115.863L365.956 115.863L365.847 116.318L366.305 116.223L366.305 116.223L366.305 116.223L366.305 116.223L366.306 116.223L366.307 116.223L366.318 116.221C366.328 116.219 366.344 116.216 366.365 116.213C366.407 116.206 366.47 116.196 366.549 116.187C366.707 116.169 366.93 116.152 367.185 116.158C367.702 116.17 368.318 116.273 368.81 116.61L368.81 116.61L368.816 116.614C369.66 117.162 369.227 118.528 368.17 118.466Z" fill="white" stroke="#35354E" stroke-width="0.595323"/>
<path d="M135.508 108.505L135.51 108.505L135.51 108.505L135.51 108.505L135.51 108.505L135.51 108.505L135.968 108.6L135.86 108.145L135.86 108.145L135.86 108.144L135.859 108.14L135.855 108.124C135.852 108.109 135.847 108.087 135.841 108.058C135.828 107.999 135.81 107.912 135.789 107.801C135.747 107.577 135.693 107.256 135.645 106.867C135.549 106.087 135.479 105.043 135.579 103.974C135.679 102.902 135.949 101.828 136.513 100.968C137.071 100.119 137.925 99.4645 139.24 99.2326L139.241 99.2324C141.91 98.7508 143.67 99.8634 144.779 101.105C145.336 101.73 145.727 102.387 145.979 102.89C146.105 103.141 146.195 103.351 146.254 103.499C146.283 103.572 146.305 103.629 146.318 103.668C146.325 103.687 146.33 103.702 146.333 103.711L146.337 103.721L146.337 103.723L146.337 103.723L146.337 103.723C146.337 103.723 146.337 103.723 146.338 103.723L146.918 103.624C146.899 102.789 147.397 101.707 148.303 100.648C149.2 99.598 150.461 98.6138 151.882 97.972C153.302 97.3302 154.867 97.0376 156.382 97.3436C157.89 97.6483 159.379 98.5522 160.65 100.36L160.65 100.361C161.984 102.253 162.505 103.906 162.525 105.302L162.525 105.305C162.609 108.72 159.672 111.432 156.271 111.14L156.27 111.14C147.612 110.415 137.664 110.832 133.429 111.074C132.217 111.125 131.732 109.575 132.687 108.944L132.687 108.944L132.691 108.942C133.248 108.561 133.942 108.445 134.522 108.432C134.808 108.425 135.058 108.444 135.236 108.464C135.325 108.475 135.395 108.485 135.442 108.493C135.466 108.497 135.484 108.5 135.495 108.502L135.508 108.505Z" fill="white" stroke="#35354E" stroke-width="0.595323"/>
<path d="M110.101 140.728L110.587 140.193L118.224 141.457L118.225 141.457L118.227 141.456L118.237 141.451C118.246 141.446 118.26 141.439 118.279 141.43C118.317 141.412 118.374 141.386 118.448 141.353C118.595 141.287 118.81 141.196 119.076 141.097C119.608 140.898 120.342 140.668 121.152 140.536C122.784 140.272 124.634 140.422 125.826 141.921C126.474 142.739 126.398 143.819 125.887 144.517H90.8796C90.8225 144.149 90.8952 143.767 91.1273 143.452L91.1278 143.451C91.6918 142.678 92.7456 141.974 94.7329 141.856L95.0826 141.835L95.0056 141.494L95.0056 141.493L95.0056 141.493L95.0054 141.493L95.0044 141.488L95.0003 141.469C94.9967 141.452 94.9913 141.426 94.9845 141.391C94.9709 141.321 94.9518 141.218 94.9304 141.086C94.8876 140.822 94.8355 140.441 94.7993 139.98C94.7268 139.058 94.7188 137.824 94.9713 136.564C95.2238 135.304 95.7337 134.032 96.6852 133.016C97.6327 132.004 99.0384 131.222 101.126 130.97C103.271 130.712 104.883 131.15 106.103 131.933C107.327 132.719 108.18 133.868 108.772 135.067C109.364 136.266 109.689 137.502 109.866 138.442C109.954 138.911 110.005 139.304 110.034 139.579C110.049 139.717 110.057 139.825 110.063 139.897C110.065 139.934 110.067 139.961 110.068 139.98L110.069 140L110.069 140.004L110.069 140.005L110.069 140.005L110.069 140.005L110.101 140.728ZM117.936 141.602L118.224 141.457L110.587 140.192L110.587 140.192L110.589 140.19L110.599 140.18C110.607 140.171 110.62 140.157 110.638 140.139C110.673 140.102 110.725 140.049 110.794 139.983C110.931 139.851 111.13 139.668 111.377 139.469C111.875 139.069 112.553 138.614 113.302 138.36C114.047 138.108 114.841 138.062 115.601 138.443C116.365 138.825 117.149 139.667 117.815 141.303L117.936 141.602Z" fill="white" stroke="#35354E" stroke-width="0.595323"/>
<path d="M246.12 61.8684L246.119 61.8693C245.887 62.1848 245.814 62.5671 245.871 62.9345H280.879C281.389 62.2368 281.466 61.1571 280.817 60.3384C279.625 58.8392 277.776 58.6893 276.144 58.9542C275.334 59.0855 274.6 59.3162 274.067 59.515C273.801 59.6142 273.587 59.705 273.439 59.7706C273.366 59.8034 273.309 59.8298 273.271 59.8479C273.252 59.8569 273.238 59.8638 273.229 59.8684L273.218 59.8734L273.216 59.8745L273.216 59.8746L246.12 61.8684ZM246.12 61.8684C246.683 61.0961 247.737 60.3921 249.725 60.2737L250.074 60.2529L249.997 59.9112L249.997 59.9111L249.997 59.9111L249.997 59.9103L249.996 59.9059L249.992 59.8868C249.988 59.8695 249.983 59.8433 249.976 59.8085C249.963 59.7391 249.944 59.636 249.922 59.5038C249.879 59.2392 249.827 58.8586 249.791 58.3982C249.718 57.4755 249.71 56.2415 249.963 54.9813C250.215 53.7213 250.725 52.45 251.677 51.4335C252.624 50.4213 254.03 49.6396 256.118 49.3882C258.262 49.13 259.875 49.568 261.094 50.3508C262.319 51.1368 263.171 52.2857 263.763 53.4847C264.355 54.6837 264.681 55.9198 264.858 56.8599C264.946 57.329 264.997 57.7222 265.026 57.9971C265.04 58.1346 265.049 58.2423 265.054 58.3151C265.057 58.3515 265.059 58.3791 265.06 58.3973L265.061 58.4174L265.061 58.422L265.061 58.4229V58.423L265.061 58.4231L265.092 59.1456L265.579 58.6103L265.579 58.6102L265.579 58.61L265.581 58.6078L265.59 58.5977C265.599 58.5886 265.612 58.5747 265.629 58.5565C265.665 58.5201 265.717 58.4667 265.785 58.4006C265.922 58.2683 266.121 58.0857 266.369 57.8868C266.866 57.4866 267.545 57.0315 268.294 56.7781C269.039 56.5261 269.832 56.4796 270.593 56.8602C271.357 57.243 272.141 58.0842 272.806 59.7209L272.928 60.0198L273.216 59.8747L246.12 61.8684Z" fill="white" stroke="#35354E" stroke-width="0.595323"/>
<path d="M322.938 120.362C322.952 120.362 324.069 120.621 324.069 120.621C324.069 120.621 323.81 121.043 323.402 120.948C322.993 120.852 322.938 120.362 322.938 120.362Z" fill="#FBFDFC"/>
<line x1="216.922" y1="153.275" x2="286.014" y2="153.275" stroke="#35364E" stroke-width="0.595323"/>
<line x1="216.922" y1="185.56" x2="286.014" y2="185.56" stroke="#35364E" stroke-width="0.595323"/>
<line x1="216.922" y1="218.061" x2="286.014" y2="218.061" stroke="#35364E" stroke-width="0.595323"/>
<line x1="216.922" y1="161.238" x2="286.014" y2="161.238" stroke="#35364E" stroke-width="0.595323"/>
<line x1="216.922" y1="193.524" x2="286.014" y2="193.524" stroke="#35364E" stroke-width="0.595323"/>
<line x1="216.922" y1="226.025" x2="286.014" y2="226.025" stroke="#35364E" stroke-width="0.595323"/>
<path d="M312.928 216.71L319.398 216.806L319.494 210.69L313.05 209.886L312.928 216.71Z" fill="#FFB27D"/>
<path d="M324.069 216.71L330.553 216.806L330.648 210.69L324.192 209.886L324.069 216.71Z" fill="#FFB27D"/>
<path d="M323.389 163.858C323.171 170.164 322.244 194.834 320.283 210.976C320.16 212.038 319.248 212.842 318.185 212.842C317 212.842 315.352 212.692 313.526 212.133C312.641 211.861 312.028 211.057 312.014 210.131L311.211 161.024C311.211 160.902 311.211 160.779 311.238 160.67L311.279 160.425C311.483 159.09 312.873 158.286 314.139 158.763L322.054 161.801C322.871 162.128 323.416 162.945 323.389 163.858Z" fill="#ED7D2B"/>
<path d="M332.079 162.577C332.079 162.577 332.624 192.913 331.207 211.616C331.139 212.501 330.445 213.196 329.559 213.264C328.306 213.36 326.399 213.346 324.247 212.774C323.511 212.583 322.98 211.956 322.925 211.194L319.166 167.699L316.85 155.616L332.079 162.577Z" fill="#F99746"/>
<path d="M334.491 152.933C334.355 154.145 333.633 172.126 331.617 173.611C329.601 175.096 310.298 173.666 309.849 171.922C309.399 170.165 310.353 151.38 310.353 151.38L334.491 152.933Z" fill="#51638D"/>
<path d="M312.709 144.46C312.45 144.46 302.125 149.323 302.125 149.323L304.373 153.287L310.203 151.802L312.709 144.46Z" fill="#233862"/>
<path d="M331.575 125.825C329.028 125.567 322.339 125.553 322.339 125.553C322.339 125.553 321.468 125.812 321.74 125.676C314.411 127.228 313.785 132.732 313.785 132.732L310.72 148.656L306.715 149.01C305.503 151.516 306.674 158.109 306.674 158.109L326.153 159.635C326.153 159.635 330.376 160.18 333.768 155.507C336.016 152.415 336.492 143.152 336.261 136.396C336.288 136.382 335.539 126.234 331.575 125.825Z" fill="#51638D"/>
<path d="M330.472 130.334L328.101 126.357L323.933 127.61L322.244 125.812C322.244 125.812 321.89 127.474 321.89 127.61C321.903 127.746 323.797 129.721 324.042 129.694C324.287 129.667 330.472 130.334 330.472 130.334Z" fill="#51638D"/>
<path d="M300.754 137.403L298.029 138.684L297.852 138.765L295.128 140.046L307.483 172.03C307.837 172.929 308.872 173.351 309.744 172.943L316.678 169.687C317.55 169.278 317.89 168.216 317.427 167.371L300.754 137.403Z" fill="url(#paint1_linear_1_2)"/>
<path d="M301.162 138.016L295.291 140.768C294.678 141.054 293.956 140.795 293.67 140.182L292.335 137.349L300.413 133.562L301.748 136.395C302.034 137.008 301.775 137.73 301.162 138.016Z" fill="url(#paint2_linear_1_2)"/>
<path d="M300.834 132.044C307.202 125.676 307.202 115.352 300.834 108.985C294.467 102.617 284.143 102.617 277.775 108.985C271.408 115.352 271.408 125.676 277.775 132.044C284.143 138.411 294.467 138.411 300.834 132.044Z" fill="#D6D6E7"/>
<path d="M298.33 112.884C297.785 114.396 294.761 114.696 291.574 113.551C288.386 112.407 286.261 110.241 286.806 108.716C287.351 107.204 290.375 106.904 293.563 108.048C296.75 109.206 298.875 111.372 298.33 112.884Z" fill="#F3FFFE"/>
<path d="M274.546 127.432C270.732 119.273 274.246 109.574 282.392 105.746C290.552 101.932 300.25 105.446 304.078 113.592C307.892 121.752 304.391 131.45 296.232 135.278C288.073 139.106 278.374 135.591 274.546 127.432ZM297.322 137.635C306.775 133.208 310.848 121.956 306.421 112.502C301.994 103.049 290.742 98.9759 281.289 103.403C271.835 107.83 267.762 119.082 272.189 128.535C276.63 137.989 287.882 142.062 297.322 137.635Z" fill="url(#paint3_linear_1_2)"/>
<path d="M299.073 154.69C299.06 154.377 299.332 154.104 299.645 154.077L301.593 153.941C301.661 153.941 301.702 153.9 301.716 153.832C301.743 153.75 301.675 153.655 301.593 153.655L298.705 153.464C298.379 153.437 298.174 153.164 298.256 152.837C298.338 152.511 298.678 152.279 299.019 152.293L301.961 152.483C302.029 152.483 302.097 152.442 302.111 152.374L302.125 152.333C302.152 152.252 302.097 152.184 302.029 152.156L298.869 151.312C298.569 151.23 298.351 150.903 298.419 150.603C298.501 150.277 298.828 150.086 299.155 150.168L302.343 151.026C302.424 151.053 302.492 150.999 302.52 150.93L302.56 150.781C302.574 150.712 302.547 150.644 302.479 150.617L299.659 149.446C299.373 149.323 299.196 148.969 299.305 148.683C299.427 148.369 299.782 148.22 300.081 148.342C300.081 148.342 302.465 149.228 303.173 149.418L303.827 149.459C302.86 150.358 303.95 149.132 304.74 148.969C305.612 148.792 307.927 150.93 307.927 150.93C308.036 151.121 307.927 151.53 307.764 151.843C307.124 155.276 306.988 155.793 306.729 156.706L303.16 155.616C302.125 155.303 301.048 155.18 299.972 155.249L299.7 155.262C299.373 155.289 299.087 155.031 299.073 154.69Z" fill="#FFB27D"/>
<path d="M306.729 148.996C306.729 148.996 305.558 152.061 306.688 158.096L310.707 158.314L309.753 150.931L306.729 148.996Z" fill="#51638D"/>
<path d="M327.244 125.172C327.244 125.172 331.698 124.858 333.864 126.003C337.093 127.692 336.316 138.031 336.316 138.031C336.316 138.031 333.565 136.655 333.388 136.164C333.21 135.674 327.244 125.172 327.244 125.172Z" fill="#51638D"/>
<path d="M331.543 107.458C331.543 107.458 333.886 109.137 331.854 114.072L330.962 113.429L331.688 110.754L331.543 107.458Z" fill="#51638D"/>
<path d="M322.192 109.303L321.073 116.809C321.073 116.809 320.596 119.317 322.752 119.981L321.84 123.298C321.508 124.542 322.068 125.849 323.208 126.408C323.768 126.678 324.452 126.927 325.24 127.051C327.749 127.424 329.408 125.724 329.76 124.812C330.113 123.9 330.154 119.255 330.154 119.255L330.569 117.037L331.585 108.349L322.192 109.303Z" fill="#FFB27D"/>
<path d="M329.179 114.735C329.013 115.793 329.739 116.767 330.775 116.912C331.812 117.078 332.786 116.352 332.952 115.295C333.118 114.238 332.392 113.263 331.356 113.118C330.298 112.952 329.324 113.678 329.179 114.735Z" fill="#FFB27D"/>
<path d="M320.865 115.544C320.865 115.544 319.413 120.52 322.752 121.204C327.5 122.179 328.391 119.504 329.013 117.286L329.76 112.641L329.801 111.273C329.407 111.604 329.117 112.061 329.013 112.558C328.744 113.657 328.059 116.622 327.748 116.726C327.334 116.85 321.694 115.171 320.865 115.544Z" fill="#51638D"/>
<path d="M329.803 111.356L330.882 110.63L331.504 113.139C331.504 113.139 330.26 113.159 330.052 114.424C329.845 115.689 330.239 117.762 327.626 120.25C325.014 122.759 328.435 116.041 328.497 115.813C328.539 115.585 329.803 111.356 329.803 111.356Z" fill="#51638D"/>
<path d="M331.542 107.458C330.672 106.297 327.251 105.198 324.534 106.338C321.466 107.313 321.943 110.277 322.026 110.381L322.067 110.36C322.046 110.423 322.026 110.485 322.005 110.547C322.005 110.547 322.15 110.381 322.44 110.153L323.684 109.469C324.369 109.199 325.26 109.033 326.359 109.116C327.458 109.199 328.391 109.407 329.137 109.759C329.241 110.443 329.22 111.729 328.598 114.217C327.665 117.991 330.029 113.595 330.9 111.915C330.983 112.268 331.024 112.662 331.003 113.097C331.003 113.077 333.263 109.78 331.542 107.458Z" fill="#51638D"/>
<path d="M328.744 109.842L330.818 108.432L328.744 110.65V109.842Z" fill="#FFB27D"/>
<path d="M321.773 123.632L322.205 125.305C322.205 125.305 323.429 126.37 324.137 126.861C325.54 125.893 329.447 125.253 329.447 125.253L329.953 123.4C332.555 123.1 333.073 124.708 332.392 125.539C331.711 126.384 328.196 126.643 327.256 126.942C326.33 127.242 323.973 127.964 323.973 127.964C323.36 127.501 321.118 126.029 321.118 126.029L319.834 126.37C319.807 124.668 321.773 123.632 321.773 123.632Z" fill="#233862"/>
<path fill-rule="evenodd" clip-rule="evenodd" d="M306.436 217.168C306.137 217.184 305.869 217.414 305.816 217.74C305.735 218.196 306.048 218.593 306.443 218.593H319.602C319.697 218.593 319.779 218.504 319.779 218.402V217.446C319.765 217.299 319.643 217.167 319.506 217.167H319.453V214.609C319.453 214.609 318.499 213.183 317.041 213.918C317.041 213.918 314.848 215.638 312.914 213.55L308.106 215.917C308.106 215.917 306.8 216.397 306.436 217.168Z" fill="#3761B7"/>
<path fill-rule="evenodd" clip-rule="evenodd" d="M317.701 217.141C317.396 217.151 317.122 217.382 317.069 217.71C316.987 218.162 317.3 218.556 317.695 218.556H330.854C330.949 218.556 331.031 218.469 331.031 218.366V217.418C331.017 217.272 330.908 217.141 330.759 217.141H330.717V214.601C330.717 214.601 329.763 213.185 328.306 213.915C328.306 213.915 326.113 215.623 324.178 213.55L319.37 215.9C319.37 215.9 318.065 216.376 317.701 217.141Z" fill="#3761B7"/>
<path d="M323.322 149.617C320.515 150.684 313.685 149.547 310.621 148.845C311.65 148.565 314.326 148.059 316.796 148.284C319.883 148.565 322.059 147.161 325.146 146.249C328.234 145.337 331.251 138.179 332.163 138.319C333.076 138.46 331.672 140.916 330.409 142.81C329.146 144.705 326.83 148.284 323.322 149.617Z" fill="#233862"/>
<path d="M324.7 159.091C321.929 159.658 313.939 158.803 310.291 158.304L310.46 158.725C310.52 158.884 311.964 160.184 317.78 160.738C325.93 161.514 331.402 156.249 334.389 155.438C334.587 154.183 334.433 154.443 334.149 154.524C333.519 155.076 328.165 158.383 324.7 159.091Z" fill="#233862"/>
<path d="M194.685 158.467L198.947 163.285L207.213 150.885" stroke="#B5453C" stroke-width="1.19065" stroke-linecap="round"/>
<mask id="mask1_1_2" style="mask-type:alpha" maskUnits="userSpaceOnUse" x="0" y="251" width="469" height="58">
<path d="M0 256C0 253.239 2.23858 251 5 251H464C466.761 251 469 253.239 469 256V304C469 306.761 466.761 309 464 309H5.00001C2.23859 309 0 306.761 0 304V256Z" fill="#D6D6E7"/>
</mask>
<g mask="url(#mask1_1_2)">
<rect x="-5.86728" y="241.185" width="481.36" height="68.3159" fill="#35364E"/>
</g>
<path d="M21.85 275.165C20.9 275.165 20.025 274.94 19.225 274.49C18.435 274.04 17.805 273.425 17.335 272.645C16.875 271.865 16.645 271 16.645 270.05C16.645 269.1 16.875 268.235 17.335 267.455C17.805 266.675 18.435 266.06 19.225 265.61C20.025 265.16 20.9 264.935 21.85 264.935C22.76 264.935 23.585 265.14 24.325 265.55C25.075 265.96 25.665 266.515 26.095 267.215L24.895 268.1C24.545 267.55 24.115 267.13 23.605 266.84C23.095 266.54 22.515 266.39 21.865 266.39C21.195 266.39 20.585 266.55 20.035 266.87C19.495 267.18 19.07 267.615 18.76 268.175C18.45 268.735 18.295 269.36 18.295 270.05C18.295 270.74 18.45 271.365 18.76 271.925C19.07 272.485 19.495 272.925 20.035 273.245C20.585 273.555 21.195 273.71 21.865 273.71C22.515 273.71 23.095 273.565 23.605 273.275C24.115 272.975 24.545 272.55 24.895 272L26.095 272.885C25.675 273.585 25.09 274.14 24.34 274.55C23.6 274.96 22.77 275.165 21.85 275.165ZM32.107 267.635V269.03H31.627C31.007 269.03 30.492 269.21 30.082 269.57C29.672 269.92 29.467 270.42 29.467 271.07V275H27.892V267.635H29.362V268.595C29.622 268.265 29.937 268.01 30.307 267.83C30.687 267.65 31.087 267.56 31.507 267.56C31.727 267.56 31.927 267.585 32.107 267.635ZM36.2055 267.47C37.1155 267.47 37.8455 267.735 38.3955 268.265C38.9455 268.795 39.2205 269.555 39.2205 270.545V275H37.7505V274.175C37.4805 274.495 37.1455 274.74 36.7455 274.91C36.3455 275.08 35.8955 275.165 35.3955 275.165C34.6255 275.165 34.0055 274.97 33.5355 274.58C33.0655 274.19 32.8305 273.675 32.8305 273.035C32.8305 272.395 33.0755 271.885 33.5655 271.505C34.0555 271.125 34.7155 270.935 35.5455 270.935H37.6305V270.455C37.6305 269.945 37.4905 269.555 37.2105 269.285C36.9405 269.015 36.5555 268.88 36.0555 268.88C35.6455 268.88 35.2805 268.97 34.9605 269.15C34.6405 269.33 34.3255 269.605 34.0155 269.975L33.1005 269.045C33.4705 268.515 33.9205 268.12 34.4505 267.86C34.9805 267.6 35.5655 267.47 36.2055 267.47ZM35.7255 273.95C36.2555 273.95 36.7055 273.785 37.0755 273.455C37.4455 273.125 37.6305 272.71 37.6305 272.21V272.075H35.7405C35.3205 272.075 34.9955 272.15 34.7655 272.3C34.5455 272.45 34.4355 272.675 34.4355 272.975C34.4355 273.285 34.5555 273.525 34.7955 273.695C35.0355 273.865 35.3455 273.95 35.7255 273.95ZM44.6975 265.01C44.2175 265.01 43.8575 265.105 43.6175 265.295C43.3775 265.485 43.2575 265.815 43.2575 266.285V267.635H44.9975V269H43.2575V275H41.6825V269H40.6325V267.635H41.6825V266.15C41.6825 265.29 41.9175 264.65 42.3875 264.23C42.8575 263.8 43.4975 263.585 44.3075 263.585C44.7075 263.585 45.0475 263.63 45.3275 263.72V265.055C45.0875 265.025 44.8775 265.01 44.6975 265.01ZM50.2456 273.665V275C49.7556 275.11 49.3206 275.165 48.9406 275.165C48.0906 275.165 47.4256 274.955 46.9456 274.535C46.4656 274.105 46.2256 273.46 46.2256 272.6V269H45.0256V267.635H46.2256V265.7H47.8156V267.635H50.0056V269H47.8156V272.465C47.8156 272.935 47.9356 273.265 48.1756 273.455C48.4256 273.645 48.7906 273.74 49.2706 273.74C49.4906 273.74 49.8156 273.715 50.2456 273.665ZM58.8813 267.47C59.7913 267.47 60.5213 267.735 61.0713 268.265C61.6213 268.795 61.8963 269.555 61.8963 270.545V275H60.4263V274.175C60.1563 274.495 59.8213 274.74 59.4213 274.91C59.0213 275.08 58.5713 275.165 58.0713 275.165C57.3013 275.165 56.6813 274.97 56.2113 274.58C55.7413 274.19 55.5063 273.675 55.5063 273.035C55.5063 272.395 55.7513 271.885 56.2413 271.505C56.7313 271.125 57.3913 270.935 58.2213 270.935H60.3063V270.455C60.3063 269.945 60.1663 269.555 59.8863 269.285C59.6163 269.015 59.2313 268.88 58.7313 268.88C58.3213 268.88 57.9563 268.97 57.6363 269.15C57.3163 269.33 57.0013 269.605 56.6913 269.975L55.7763 269.045C56.1463 268.515 56.5963 268.12 57.1263 267.86C57.6563 267.6 58.2413 267.47 58.8813 267.47ZM58.4013 273.95C58.9313 273.95 59.3813 273.785 59.7513 273.455C60.1213 273.125 60.3063 272.71 60.3063 272.21V272.075H58.4163C57.9963 272.075 57.6713 272.15 57.4413 272.3C57.2213 272.45 57.1112 272.675 57.1112 272.975C57.1112 273.285 57.2313 273.525 57.4713 273.695C57.7113 273.865 58.0213 273.95 58.4013 273.95ZM75.5223 267.635V274.235C75.5223 275.395 75.1873 276.29 74.5173 276.92C73.8473 277.55 72.9523 277.865 71.8323 277.865C71.1023 277.865 70.4373 277.735 69.8373 277.475C69.2473 277.215 68.7323 276.88 68.2923 276.47L69.1623 275.375C69.5723 275.705 69.9773 275.96 70.3773 276.14C70.7873 276.33 71.2423 276.425 71.7423 276.425C72.4123 276.425 72.9473 276.245 73.3473 275.885C73.7473 275.535 73.9473 275.015 73.9473 274.325V273.8C73.6673 274.14 73.3073 274.4 72.8673 274.58C72.4373 274.76 71.9673 274.85 71.4573 274.85C70.7773 274.85 70.1623 274.695 69.6123 274.385C69.0723 274.065 68.6473 273.625 68.3373 273.065C68.0273 272.505 67.8723 271.87 67.8723 271.16C67.8723 270.45 68.0273 269.815 68.3373 269.255C68.6473 268.695 69.0773 268.26 69.6273 267.95C70.1773 267.63 70.7873 267.47 71.4573 267.47C72.0173 267.47 72.5223 267.58 72.9723 267.8C73.4323 268.01 73.7973 268.305 74.0673 268.685V267.635H75.5223ZM71.7423 273.47C72.3523 273.47 72.8723 273.27 73.3023 272.87C73.7423 272.47 73.9623 271.895 73.9623 271.145C73.9623 270.395 73.7423 269.83 73.3023 269.45C72.8723 269.07 72.3523 268.88 71.7423 268.88C71.1023 268.88 70.5673 269.09 70.1373 269.51C69.7073 269.93 69.4923 270.48 69.4923 271.16C69.4923 271.85 69.7073 272.41 70.1373 272.84C70.5673 273.26 71.1023 273.47 71.7423 273.47ZM77.7992 267.635H79.3742V275H77.7992V267.635ZM78.5942 265.925C78.2942 265.925 78.0392 265.825 77.8292 265.625C77.6192 265.425 77.5142 265.18 77.5142 264.89C77.5142 264.6 77.6192 264.355 77.8292 264.155C78.0392 263.945 78.2942 263.84 78.5942 263.84C78.8842 263.84 79.1342 263.945 79.3442 264.155C79.5542 264.355 79.6592 264.6 79.6592 264.89C79.6592 265.18 79.5542 265.425 79.3442 265.625C79.1342 265.825 78.8842 265.925 78.5942 265.925ZM88.8817 267.635V274.235C88.8817 275.395 88.5467 276.29 87.8767 276.92C87.2067 277.55 86.3117 277.865 85.1917 277.865C84.4617 277.865 83.7967 277.735 83.1967 277.475C82.6067 277.215 82.0917 276.88 81.6517 276.47L82.5217 275.375C82.9317 275.705 83.3367 275.96 83.7367 276.14C84.1467 276.33 84.6017 276.425 85.1017 276.425C85.7717 276.425 86.3067 276.245 86.7067 275.885C87.1067 275.535 87.3067 275.015 87.3067 274.325V273.8C87.0267 274.14 86.6667 274.4 86.2267 274.58C85.7967 274.76 85.3267 274.85 84.8167 274.85C84.1367 274.85 83.5217 274.695 82.9717 274.385C82.4317 274.065 82.0067 273.625 81.6967 273.065C81.3867 272.505 81.2317 271.87 81.2317 271.16C81.2317 270.45 81.3867 269.815 81.6967 269.255C82.0067 268.695 82.4367 268.26 82.9867 267.95C83.5367 267.63 84.1467 267.47 84.8167 267.47C85.3767 267.47 85.8817 267.58 86.3317 267.8C86.7917 268.01 87.1567 268.305 87.4267 268.685V267.635H88.8817ZM85.1017 273.47C85.7117 273.47 86.2317 273.27 86.6617 272.87C87.1017 272.47 87.3217 271.895 87.3217 271.145C87.3217 270.395 87.1017 269.83 86.6617 269.45C86.2317 269.07 85.7117 268.88 85.1017 268.88C84.4617 268.88 83.9267 269.09 83.4967 269.51C83.0667 269.93 82.8517 270.48 82.8517 271.16C82.8517 271.85 83.0667 272.41 83.4967 272.84C83.9267 273.26 84.4617 273.47 85.1017 273.47ZM90.7536 269.57H94.4436V270.905H90.7536V269.57ZM99.7498 275.165C99.0298 275.165 98.3698 274.995 97.7698 274.655C97.1798 274.315 96.7098 273.85 96.3598 273.26C96.0198 272.67 95.8498 272.02 95.8498 271.31C95.8498 270.6 96.0198 269.955 96.3598 269.375C96.7098 268.785 97.1848 268.32 97.7848 267.98C98.3848 267.64 99.0398 267.47 99.7498 267.47C100.43 267.47 101.035 267.625 101.565 267.935C102.105 268.235 102.535 268.65 102.855 269.18L101.745 270.05C101.215 269.3 100.555 268.925 99.7648 268.925C99.3248 268.925 98.9298 269.03 98.5798 269.24C98.2298 269.45 97.9548 269.74 97.7548 270.11C97.5548 270.47 97.4548 270.87 97.4548 271.31C97.4548 271.76 97.5548 272.17 97.7548 272.54C97.9548 272.9 98.2298 273.185 98.5798 273.395C98.9298 273.605 99.3248 273.71 99.7648 273.71C100.545 273.71 101.205 273.34 101.745 272.6L102.855 273.455C102.525 273.985 102.09 274.405 101.55 274.715C101.02 275.015 100.42 275.165 99.7498 275.165ZM107.865 275.165C107.155 275.165 106.5 274.995 105.9 274.655C105.31 274.305 104.84 273.835 104.49 273.245C104.15 272.655 103.98 272.01 103.98 271.31C103.98 270.6 104.15 269.955 104.49 269.375C104.84 268.785 105.31 268.32 105.9 267.98C106.5 267.64 107.155 267.47 107.865 267.47C108.585 267.47 109.245 267.64 109.845 267.98C110.445 268.32 110.915 268.785 111.255 269.375C111.605 269.965 111.78 270.61 111.78 271.31C111.78 272.01 111.605 272.655 111.255 273.245C110.915 273.835 110.445 274.305 109.845 274.655C109.245 274.995 108.585 275.165 107.865 275.165ZM107.865 273.71C108.295 273.71 108.685 273.605 109.035 273.395C109.385 273.185 109.66 272.9 109.86 272.54C110.06 272.17 110.16 271.765 110.16 271.325C110.16 270.875 110.06 270.465 109.86 270.095C109.66 269.725 109.385 269.435 109.035 269.225C108.685 269.015 108.3 268.91 107.88 268.91C107.45 268.91 107.06 269.015 106.71 269.225C106.36 269.435 106.085 269.725 105.885 270.095C105.685 270.465 105.585 270.875 105.585 271.325C105.585 271.775 105.685 272.185 105.885 272.555C106.085 272.915 106.355 273.2 106.695 273.41C107.045 273.61 107.435 273.71 107.865 273.71ZM117.26 267.47C118.12 267.47 118.795 267.74 119.285 268.28C119.775 268.81 120.02 269.515 120.02 270.395V275H118.445V270.605C118.445 270.095 118.295 269.685 117.995 269.375C117.705 269.055 117.32 268.895 116.84 268.895C116.35 268.895 115.945 269.055 115.625 269.375C115.315 269.695 115.16 270.105 115.16 270.605V275H113.585V267.635H115.055V268.355C115.615 267.765 116.35 267.47 117.26 267.47ZM126.593 273.665V275C126.103 275.11 125.668 275.165 125.288 275.165C124.438 275.165 123.773 274.955 123.293 274.535C122.813 274.105 122.573 273.46 122.573 272.6V269H121.373V267.635H122.573V265.7H124.163V267.635H126.353V269H124.163V272.465C124.163 272.935 124.283 273.265 124.523 273.455C124.773 273.645 125.138 273.74 125.618 273.74C125.838 273.74 126.163 273.715 126.593 273.665ZM132.405 267.635V269.03H131.925C131.305 269.03 130.79 269.21 130.38 269.57C129.97 269.92 129.765 270.42 129.765 271.07V275H128.19V267.635H129.66V268.595C129.92 268.265 130.235 268.01 130.605 267.83C130.985 267.65 131.385 267.56 131.805 267.56C132.025 267.56 132.225 267.585 132.405 267.635ZM136.503 267.47C137.413 267.47 138.143 267.735 138.693 268.265C139.243 268.795 139.518 269.555 139.518 270.545V275H138.048V274.175C137.778 274.495 137.443 274.74 137.043 274.91C136.643 275.08 136.193 275.165 135.693 275.165C134.923 275.165 134.303 274.97 133.833 274.58C133.363 274.19 133.128 273.675 133.128 273.035C133.128 272.395 133.373 271.885 133.863 271.505C134.353 271.125 135.013 270.935 135.843 270.935H137.928V270.455C137.928 269.945 137.788 269.555 137.508 269.285C137.238 269.015 136.853 268.88 136.353 268.88C135.943 268.88 135.578 268.97 135.258 269.15C134.938 269.33 134.623 269.605 134.313 269.975L133.398 269.045C133.768 268.515 134.218 268.12 134.748 267.86C135.278 267.6 135.863 267.47 136.503 267.47ZM136.023 273.95C136.553 273.95 137.003 273.785 137.373 273.455C137.743 273.125 137.928 272.71 137.928 272.21V272.075H136.038C135.618 272.075 135.293 272.15 135.063 272.3C134.843 272.45 134.733 272.675 134.733 272.975C134.733 273.285 134.853 273.525 135.093 273.695C135.333 273.865 135.643 273.95 136.023 273.95ZM145.145 275.165C144.425 275.165 143.765 274.995 143.165 274.655C142.575 274.315 142.105 273.85 141.755 273.26C141.415 272.67 141.245 272.02 141.245 271.31C141.245 270.6 141.415 269.955 141.755 269.375C142.105 268.785 142.58 268.32 143.18 267.98C143.78 267.64 144.435 267.47 145.145 267.47C145.825 267.47 146.43 267.625 146.96 267.935C147.5 268.235 147.93 268.65 148.25 269.18L147.14 270.05C146.61 269.3 145.95 268.925 145.16 268.925C144.72 268.925 144.325 269.03 143.975 269.24C143.625 269.45 143.35 269.74 143.15 270.11C142.95 270.47 142.85 270.87 142.85 271.31C142.85 271.76 142.95 272.17 143.15 272.54C143.35 272.9 143.625 273.185 143.975 273.395C144.325 273.605 144.72 273.71 145.16 273.71C145.94 273.71 146.6 273.34 147.14 272.6L148.25 273.455C147.92 273.985 147.485 274.405 146.945 274.715C146.415 275.015 145.815 275.165 145.145 275.165ZM154.367 273.665V275C153.877 275.11 153.442 275.165 153.062 275.165C152.212 275.165 151.547 274.955 151.067 274.535C150.587 274.105 150.347 273.46 150.347 272.6V269H149.147V267.635H150.347V265.7H151.937V267.635H154.127V269H151.937V272.465C151.937 272.935 152.057 273.265 152.297 273.455C152.547 273.645 152.912 273.74 153.392 273.74C153.612 273.74 153.937 273.715 154.367 273.665ZM171.098 267.635L167.828 275.165H167.288L164.978 270.26L162.668 275.165H162.128L158.858 267.635H160.538L162.473 272.45L164.708 267.47H165.248L167.513 272.39L169.418 267.635H171.098ZM172.516 267.635H174.091V275H172.516V267.635ZM173.311 265.925C173.011 265.925 172.756 265.825 172.546 265.625C172.336 265.425 172.231 265.18 172.231 264.89C172.231 264.6 172.336 264.355 172.546 264.155C172.756 263.945 173.011 263.84 173.311 263.84C173.601 263.84 173.851 263.945 174.061 264.155C174.271 264.355 174.376 264.6 174.376 264.89C174.376 265.18 174.271 265.425 174.061 265.625C173.851 265.825 173.601 265.925 173.311 265.925ZM180.749 273.665V275C180.259 275.11 179.824 275.165 179.444 275.165C178.594 275.165 177.929 274.955 177.449 274.535C176.969 274.105 176.729 273.46 176.729 272.6V269H175.529V267.635H176.729V265.7H178.319V267.635H180.509V269H178.319V272.465C178.319 272.935 178.439 273.265 178.679 273.455C178.929 273.645 179.294 273.74 179.774 273.74C179.994 273.74 180.319 273.715 180.749 273.665ZM186.05 267.47C186.89 267.47 187.555 267.74 188.045 268.28C188.535 268.82 188.78 269.525 188.78 270.395V275H187.205V270.62C187.205 270.11 187.06 269.7 186.77 269.39C186.48 269.07 186.09 268.91 185.6 268.91C185.11 268.91 184.705 269.07 184.385 269.39C184.075 269.71 183.92 270.12 183.92 270.62V275H182.345V263.75H183.92V268.37C184.17 268.08 184.475 267.86 184.835 267.71C185.205 267.55 185.61 267.47 186.05 267.47ZM195.282 265.1H196.872V275H195.282V265.1ZM201.694 266.525H198.364V265.1H206.629V266.525H203.284V275H201.694V266.525ZM213.746 275.165C213.116 275.165 212.546 275.035 212.036 274.775C211.526 274.515 211.106 274.17 210.776 273.74L211.676 272.75C211.996 273.09 212.321 273.35 212.651 273.53C212.991 273.71 213.356 273.8 213.746 273.8C214.086 273.8 214.366 273.73 214.586 273.59C214.816 273.45 214.931 273.245 214.931 272.975C214.931 272.755 214.846 272.585 214.676 272.465C214.516 272.345 214.256 272.21 213.896 272.06L213.146 271.745C212.496 271.475 212.011 271.18 211.691 270.86C211.381 270.54 211.226 270.12 211.226 269.6C211.226 268.94 211.471 268.42 211.961 268.04C212.451 267.66 213.071 267.47 213.821 267.47C214.881 267.47 215.731 267.85 216.371 268.61L215.516 269.585C215.286 269.345 215.021 269.16 214.721 269.03C214.421 268.9 214.111 268.835 213.791 268.835C213.481 268.835 213.236 268.895 213.056 269.015C212.876 269.135 212.786 269.31 212.786 269.54C212.786 269.73 212.856 269.885 212.996 270.005C213.146 270.125 213.401 270.26 213.761 270.41L214.466 270.695C215.166 270.985 215.676 271.3 215.996 271.64C216.316 271.97 216.476 272.395 216.476 272.915C216.476 273.625 216.216 274.18 215.696 274.58C215.176 274.97 214.526 275.165 213.746 275.165ZM222.327 267.47C223.017 267.47 223.637 267.64 224.187 267.98C224.737 268.31 225.167 268.77 225.477 269.36C225.787 269.94 225.942 270.59 225.942 271.31C225.942 272.04 225.787 272.7 225.477 273.29C225.167 273.87 224.737 274.33 224.187 274.67C223.637 275 223.017 275.165 222.327 275.165C221.827 275.165 221.362 275.075 220.932 274.895C220.512 274.705 220.157 274.44 219.867 274.1V277.7H218.292V267.635H219.762V268.67C220.032 268.29 220.392 267.995 220.842 267.785C221.292 267.575 221.787 267.47 222.327 267.47ZM222.072 273.725C222.492 273.725 222.872 273.625 223.212 273.425C223.552 273.215 223.822 272.93 224.022 272.57C224.222 272.21 224.322 271.795 224.322 271.325C224.322 270.855 224.222 270.44 224.022 270.08C223.832 269.71 223.562 269.425 223.212 269.225C222.872 269.015 222.492 268.91 222.072 268.91C221.682 268.91 221.317 269 220.977 269.18C220.647 269.35 220.377 269.615 220.167 269.975C219.957 270.335 219.852 270.78 219.852 271.31C219.852 271.84 219.957 272.29 220.167 272.66C220.377 273.02 220.647 273.29 220.977 273.47C221.317 273.64 221.682 273.725 222.072 273.725ZM234.385 271.835H228.895C228.995 272.435 229.26 272.91 229.69 273.26C230.13 273.6 230.665 273.77 231.295 273.77C232.065 273.77 232.78 273.48 233.44 272.9L234.19 273.98C233.35 274.77 232.37 275.165 231.25 275.165C230.5 275.165 229.825 275 229.225 274.67C228.625 274.33 228.15 273.87 227.8 273.29C227.46 272.7 227.29 272.045 227.29 271.325C227.29 270.615 227.455 269.965 227.785 269.375C228.125 268.785 228.585 268.32 229.165 267.98C229.755 267.64 230.4 267.47 231.1 267.47C231.75 267.47 232.33 267.62 232.84 267.92C233.36 268.21 233.765 268.61 234.055 269.12C234.355 269.63 234.505 270.205 234.505 270.845C234.505 271.155 234.465 271.485 234.385 271.835ZM231.04 268.805C230.52 268.805 230.065 268.97 229.675 269.3C229.295 269.62 229.045 270.055 228.925 270.605H232.93C232.92 270.045 232.73 269.605 232.36 269.285C232 268.965 231.56 268.805 231.04 268.805ZM239.745 275.165C239.025 275.165 238.365 274.995 237.765 274.655C237.175 274.315 236.705 273.85 236.355 273.26C236.015 272.67 235.845 272.02 235.845 271.31C235.845 270.6 236.015 269.955 236.355 269.375C236.705 268.785 237.18 268.32 237.78 267.98C238.38 267.64 239.035 267.47 239.745 267.47C240.425 267.47 241.03 267.625 241.56 267.935C242.1 268.235 242.53 268.65 242.85 269.18L241.74 270.05C241.21 269.3 240.55 268.925 239.76 268.925C239.32 268.925 238.925 269.03 238.575 269.24C238.225 269.45 237.95 269.74 237.75 270.11C237.55 270.47 237.45 270.87 237.45 271.31C237.45 271.76 237.55 272.17 237.75 272.54C237.95 272.9 238.225 273.185 238.575 273.395C238.925 273.605 239.32 273.71 239.76 273.71C240.54 273.71 241.2 273.34 241.74 272.6L242.85 273.455C242.52 273.985 242.085 274.405 241.545 274.715C241.015 275.015 240.415 275.165 239.745 275.165ZM244.586 267.635H246.161V275H244.586V267.635ZM245.381 265.925C245.081 265.925 244.826 265.825 244.616 265.625C244.406 265.425 244.301 265.18 244.301 264.89C244.301 264.6 244.406 264.355 244.616 264.155C244.826 263.945 245.081 263.84 245.381 263.84C245.671 263.84 245.921 263.945 246.131 264.155C246.341 264.355 246.446 264.6 246.446 264.89C246.446 265.18 246.341 265.425 246.131 265.625C245.921 265.825 245.671 265.925 245.381 265.925ZM251.274 267.47C252.184 267.47 252.914 267.735 253.464 268.265C254.014 268.795 254.289 269.555 254.289 270.545V275H252.819V274.175C252.549 274.495 252.214 274.74 251.814 274.91C251.414 275.08 250.964 275.165 250.464 275.165C249.694 275.165 249.074 274.97 248.604 274.58C248.134 274.19 247.899 273.675 247.899 273.035C247.899 272.395 248.144 271.885 248.634 271.505C249.124 271.125 249.784 270.935 250.614 270.935H252.699V270.455C252.699 269.945 252.559 269.555 252.279 269.285C252.009 269.015 251.624 268.88 251.124 268.88C250.714 268.88 250.349 268.97 250.029 269.15C249.709 269.33 249.394 269.605 249.084 269.975L248.169 269.045C248.539 268.515 248.989 268.12 249.519 267.86C250.049 267.6 250.634 267.47 251.274 267.47ZM250.794 273.95C251.324 273.95 251.774 273.785 252.144 273.455C252.514 273.125 252.699 272.71 252.699 272.21V272.075H250.809C250.389 272.075 250.064 272.15 249.834 272.3C249.614 272.45 249.504 272.675 249.504 272.975C249.504 273.285 249.624 273.525 249.864 273.695C250.104 273.865 250.414 273.95 250.794 273.95ZM256.481 263.75H258.056V275H256.481V263.75ZM260.333 267.635H261.908V275H260.333V267.635ZM261.128 265.925C260.828 265.925 260.573 265.825 260.363 265.625C260.153 265.425 260.048 265.18 260.048 264.89C260.048 264.6 260.153 264.355 260.363 264.155C260.573 263.945 260.828 263.84 261.128 263.84C261.418 263.84 261.668 263.945 261.878 264.155C262.088 264.355 262.193 264.6 262.193 264.89C262.193 265.18 262.088 265.425 261.878 265.625C261.668 265.825 261.418 265.925 261.128 265.925ZM266.466 275.165C265.836 275.165 265.266 275.035 264.756 274.775C264.246 274.515 263.826 274.17 263.496 273.74L264.396 272.75C264.716 273.09 265.041 273.35 265.371 273.53C265.711 273.71 266.076 273.8 266.466 273.8C266.806 273.8 267.086 273.73 267.306 273.59C267.536 273.45 267.651 273.245 267.651 272.975C267.651 272.755 267.566 272.585 267.396 272.465C267.236 272.345 266.976 272.21 266.616 272.06L265.866 271.745C265.216 271.475 264.731 271.18 264.411 270.86C264.101 270.54 263.946 270.12 263.946 269.6C263.946 268.94 264.191 268.42 264.681 268.04C265.171 267.66 265.791 267.47 266.541 267.47C267.601 267.47 268.451 267.85 269.091 268.61L268.236 269.585C268.006 269.345 267.741 269.16 267.441 269.03C267.141 268.9 266.831 268.835 266.511 268.835C266.201 268.835 265.956 268.895 265.776 269.015C265.596 269.135 265.506 269.31 265.506 269.54C265.506 269.73 265.576 269.885 265.716 270.005C265.866 270.125 266.121 270.26 266.481 270.41L267.186 270.695C267.886 270.985 268.396 271.3 268.716 271.64C269.036 271.97 269.196 272.395 269.196 272.915C269.196 273.625 268.936 274.18 268.416 274.58C267.896 274.97 267.246 275.165 266.466 275.165ZM275.392 273.665V275C274.902 275.11 274.467 275.165 274.087 275.165C273.237 275.165 272.572 274.955 272.092 274.535C271.612 274.105 271.372 273.46 271.372 272.6V269H270.172V267.635H271.372V265.7H272.962V267.635H275.152V269H272.962V272.465C272.962 272.935 273.082 273.265 273.322 273.455C273.572 273.645 273.937 273.74 274.417 273.74C274.637 273.74 274.962 273.715 275.392 273.665ZM292.124 267.635L288.854 275.165H288.314L286.004 270.26L283.694 275.165H283.154L279.884 267.635H281.564L283.499 272.45L285.734 267.47H286.274L288.539 272.39L290.444 267.635H292.124ZM297.246 267.47C298.086 267.47 298.751 267.74 299.241 268.28C299.731 268.82 299.976 269.525 299.976 270.395V275H298.401V270.62C298.401 270.11 298.256 269.7 297.966 269.39C297.676 269.07 297.286 268.91 296.796 268.91C296.306 268.91 295.901 269.07 295.581 269.39C295.271 269.71 295.116 270.12 295.116 270.62V275H293.541V263.75H295.116V268.37C295.366 268.08 295.671 267.86 296.031 267.71C296.401 267.55 296.806 267.47 297.246 267.47ZM305.589 275.165C304.879 275.165 304.224 274.995 303.624 274.655C303.034 274.305 302.564 273.835 302.214 273.245C301.874 272.655 301.704 272.01 301.704 271.31C301.704 270.6 301.874 269.955 302.214 269.375C302.564 268.785 303.034 268.32 303.624 267.98C304.224 267.64 304.879 267.47 305.589 267.47C306.309 267.47 306.969 267.64 307.569 267.98C308.169 268.32 308.639 268.785 308.979 269.375C309.329 269.965 309.504 270.61 309.504 271.31C309.504 272.01 309.329 272.655 308.979 273.245C308.639 273.835 308.169 274.305 307.569 274.655C306.969 274.995 306.309 275.165 305.589 275.165ZM305.589 273.71C306.019 273.71 306.409 273.605 306.759 273.395C307.109 273.185 307.384 272.9 307.584 272.54C307.784 272.17 307.884 271.765 307.884 271.325C307.884 270.875 307.784 270.465 307.584 270.095C307.384 269.725 307.109 269.435 306.759 269.225C306.409 269.015 306.024 268.91 305.604 268.91C305.174 268.91 304.784 269.015 304.434 269.225C304.084 269.435 303.809 269.725 303.609 270.095C303.409 270.465 303.309 270.875 303.309 271.325C303.309 271.775 303.409 272.185 303.609 272.555C303.809 272.915 304.079 273.2 304.419 273.41C304.769 273.61 305.159 273.71 305.589 273.71ZM326.445 267.635L323.175 275.165H322.635L320.325 270.26L318.015 275.165H317.475L314.205 267.635H315.885L317.82 272.45L320.055 267.47H320.595L322.86 272.39L324.765 267.635H326.445ZM327.863 267.635H329.438V275H327.863V267.635ZM328.658 265.925C328.358 265.925 328.103 265.825 327.893 265.625C327.683 265.425 327.578 265.18 327.578 264.89C327.578 264.6 327.683 264.355 327.893 264.155C328.103 263.945 328.358 263.84 328.658 263.84C328.948 263.84 329.198 263.945 329.408 264.155C329.618 264.355 329.723 264.6 329.723 264.89C329.723 265.18 329.618 265.425 329.408 265.625C329.198 265.825 328.948 265.925 328.658 265.925ZM331.715 263.75H333.29V275H331.715V263.75ZM335.568 263.75H337.143V275H335.568V263.75ZM347.659 267.47C348.349 267.47 348.969 267.64 349.519 267.98C350.069 268.31 350.499 268.77 350.809 269.36C351.119 269.95 351.274 270.605 351.274 271.325C351.274 272.045 351.119 272.7 350.809 273.29C350.499 273.87 350.069 274.33 349.519 274.67C348.969 275 348.354 275.165 347.674 275.165C347.134 275.165 346.639 275.065 346.189 274.865C345.739 274.655 345.374 274.36 345.094 273.98V275H343.624V263.75H345.199V268.535C345.479 268.195 345.829 267.935 346.249 267.755C346.679 267.565 347.149 267.47 347.659 267.47ZM347.404 273.725C347.824 273.725 348.204 273.625 348.544 273.425C348.894 273.215 349.164 272.93 349.354 272.57C349.554 272.2 349.654 271.78 349.654 271.31C349.654 270.84 349.554 270.425 349.354 270.065C349.154 269.705 348.884 269.425 348.544 269.225C348.204 269.015 347.824 268.91 347.404 268.91C347.014 268.91 346.649 269 346.309 269.18C345.979 269.35 345.709 269.62 345.499 269.99C345.289 270.35 345.184 270.795 345.184 271.325C345.184 271.855 345.289 272.3 345.499 272.66C345.709 273.02 345.979 273.29 346.309 273.47C346.649 273.64 347.014 273.725 347.404 273.725ZM359.717 271.835H354.227C354.327 272.435 354.592 272.91 355.022 273.26C355.462 273.6 355.997 273.77 356.627 273.77C357.397 273.77 358.112 273.48 358.772 272.9L359.522 273.98C358.682 274.77 357.702 275.165 356.582 275.165C355.832 275.165 355.157 275 354.557 274.67C353.957 274.33 353.482 273.87 353.132 273.29C352.792 272.7 352.622 272.045 352.622 271.325C352.622 270.615 352.787 269.965 353.117 269.375C353.457 268.785 353.917 268.32 354.497 267.98C355.087 267.64 355.732 267.47 356.432 267.47C357.082 267.47 357.662 267.62 358.172 267.92C358.692 268.21 359.097 268.61 359.387 269.12C359.687 269.63 359.837 270.205 359.837 270.845C359.837 271.155 359.797 271.485 359.717 271.835ZM356.372 268.805C355.852 268.805 355.397 268.97 355.007 269.3C354.627 269.62 354.377 270.055 354.257 270.605H358.262C358.252 270.045 358.062 269.605 357.692 269.285C357.332 268.965 356.892 268.805 356.372 268.805ZM369.881 267.47C370.571 267.47 371.191 267.64 371.741 267.98C372.291 268.31 372.721 268.77 373.031 269.36C373.341 269.94 373.496 270.59 373.496 271.31C373.496 272.04 373.341 272.7 373.031 273.29C372.721 273.87 372.291 274.33 371.741 274.67C371.191 275 370.571 275.165 369.881 275.165C369.381 275.165 368.916 275.075 368.486 274.895C368.066 274.705 367.711 274.44 367.421 274.1V277.7H365.846V267.635H367.316V268.67C367.586 268.29 367.946 267.995 368.396 267.785C368.846 267.575 369.341 267.47 369.881 267.47ZM369.626 273.725C370.046 273.725 370.426 273.625 370.766 273.425C371.106 273.215 371.376 272.93 371.576 272.57C371.776 272.21 371.876 271.795 371.876 271.325C371.876 270.855 371.776 270.44 371.576 270.08C371.386 269.71 371.116 269.425 370.766 269.225C370.426 269.015 370.046 268.91 369.626 268.91C369.236 268.91 368.871 269 368.531 269.18C368.201 269.35 367.931 269.615 367.721 269.975C367.511 270.335 367.406 270.78 367.406 271.31C367.406 271.84 367.511 272.29 367.721 272.66C367.931 273.02 368.201 273.29 368.531 273.47C368.871 273.64 369.236 273.725 369.626 273.725ZM379.524 267.635V269.03H379.044C378.424 269.03 377.909 269.21 377.499 269.57C377.089 269.92 376.884 270.42 376.884 271.07V275H375.309V267.635H376.779V268.595C377.039 268.265 377.354 268.01 377.724 267.83C378.104 267.65 378.504 267.56 378.924 267.56C379.144 267.56 379.344 267.585 379.524 267.635ZM384.207 275.165C383.497 275.165 382.842 274.995 382.242 274.655C381.652 274.305 381.182 273.835 380.832 273.245C380.492 272.655 380.322 272.01 380.322 271.31C380.322 270.6 380.492 269.955 380.832 269.375C381.182 268.785 381.652 268.32 382.242 267.98C382.842 267.64 383.497 267.47 384.207 267.47C384.927 267.47 385.587 267.64 386.187 267.98C386.787 268.32 387.257 268.785 387.597 269.375C387.947 269.965 388.122 270.61 388.122 271.31C388.122 272.01 387.947 272.655 387.597 273.245C387.257 273.835 386.787 274.305 386.187 274.655C385.587 274.995 384.927 275.165 384.207 275.165ZM384.207 273.71C384.637 273.71 385.027 273.605 385.377 273.395C385.727 273.185 386.002 272.9 386.202 272.54C386.402 272.17 386.502 271.765 386.502 271.325C386.502 270.875 386.402 270.465 386.202 270.095C386.002 269.725 385.727 269.435 385.377 269.225C385.027 269.015 384.642 268.91 384.222 268.91C383.792 268.91 383.402 269.015 383.052 269.225C382.702 269.435 382.427 269.725 382.227 270.095C382.027 270.465 381.927 270.875 381.927 271.325C381.927 271.775 382.027 272.185 382.227 272.555C382.427 272.915 382.697 273.2 383.037 273.41C383.387 273.61 383.777 273.71 384.207 273.71ZM396.445 267.635L392.89 275.165H392.35L388.78 267.635H390.46L392.62 272.51L394.765 267.635H396.445ZM397.868 267.635H399.443V275H397.868V267.635ZM398.663 265.925C398.363 265.925 398.108 265.825 397.898 265.625C397.688 265.425 397.583 265.18 397.583 264.89C397.583 264.6 397.688 264.355 397.898 264.155C398.108 263.945 398.363 263.84 398.663 263.84C398.953 263.84 399.203 263.945 399.413 264.155C399.623 264.355 399.728 264.6 399.728 264.89C399.728 265.18 399.623 265.425 399.413 265.625C399.203 265.825 398.953 265.925 398.663 265.925ZM408.905 263.75V275H407.435V273.95C407.165 274.33 406.805 274.63 406.355 274.85C405.905 275.06 405.405 275.165 404.855 275.165C404.165 275.165 403.545 275 402.995 274.67C402.455 274.33 402.03 273.87 401.72 273.29C401.41 272.7 401.255 272.045 401.255 271.325C401.255 270.605 401.41 269.95 401.72 269.36C402.03 268.77 402.46 268.31 403.01 267.98C403.56 267.64 404.175 267.47 404.855 267.47C405.365 267.47 405.83 267.565 406.25 267.755C406.68 267.935 407.035 268.195 407.315 268.535V263.75H408.905ZM405.125 273.725C405.515 273.725 405.875 273.64 406.205 273.47C406.545 273.29 406.82 273.02 407.03 272.66C407.24 272.3 407.345 271.855 407.345 271.325C407.345 270.795 407.24 270.35 407.03 269.99C406.82 269.63 406.545 269.36 406.205 269.18C405.865 269 405.505 268.91 405.125 268.91C404.705 268.91 404.32 269.015 403.97 269.225C403.63 269.425 403.36 269.705 403.16 270.065C402.96 270.425 402.86 270.84 402.86 271.31C402.86 271.78 402.955 272.2 403.145 272.57C403.345 272.93 403.615 273.215 403.955 273.425C404.305 273.625 404.695 273.725 405.125 273.725ZM411.183 267.635H412.758V275H411.183V267.635ZM411.978 265.925C411.678 265.925 411.423 265.825 411.213 265.625C411.003 265.425 410.898 265.18 410.898 264.89C410.898 264.6 411.003 264.355 411.213 264.155C411.423 263.945 411.678 263.84 411.978 263.84C412.268 263.84 412.518 263.945 412.728 264.155C412.938 264.355 413.043 264.6 413.043 264.89C413.043 265.18 412.938 265.425 412.728 265.625C412.518 265.825 412.268 265.925 411.978 265.925ZM418.711 267.47C419.571 267.47 420.246 267.74 420.736 268.28C421.226 268.81 421.471 269.515 421.471 270.395V275H419.896V270.605C419.896 270.095 419.746 269.685 419.446 269.375C419.156 269.055 418.771 268.895 418.291 268.895C417.801 268.895 417.396 269.055 417.076 269.375C416.766 269.695 416.611 270.105 416.611 270.605V275H415.036V267.635H416.506V268.355C417.066 267.765 417.801 267.47 418.711 267.47ZM430.893 267.635V274.235C430.893 275.395 430.558 276.29 429.888 276.92C429.218 277.55 428.323 277.865 427.203 277.865C426.473 277.865 425.808 277.735 425.208 277.475C424.618 277.215 424.103 276.88 423.663 276.47L424.533 275.375C424.943 275.705 425.348 275.96 425.748 276.14C426.158 276.33 426.613 276.425 427.113 276.425C427.783 276.425 428.318 276.245 428.718 275.885C429.118 275.535 429.318 275.015 429.318 274.325V273.8C429.038 274.14 428.678 274.4 428.238 274.58C427.808 274.76 427.338 274.85 426.828 274.85C426.148 274.85 425.533 274.695 424.983 274.385C424.443 274.065 424.018 273.625 423.708 273.065C423.398 272.505 423.243 271.87 423.243 271.16C423.243 270.45 423.398 269.815 423.708 269.255C424.018 268.695 424.448 268.26 424.998 267.95C425.548 267.63 426.158 267.47 426.828 267.47C427.388 267.47 427.893 267.58 428.343 267.8C428.803 268.01 429.168 268.305 429.438 268.685V267.635H430.893ZM427.113 273.47C427.723 273.47 428.243 273.27 428.673 272.87C429.113 272.47 429.333 271.895 429.333 271.145C429.333 270.395 429.113 269.83 428.673 269.45C428.243 269.07 427.723 268.88 427.113 268.88C426.473 268.88 425.938 269.09 425.508 269.51C425.078 269.93 424.863 270.48 424.863 271.16C424.863 271.85 425.078 272.41 425.508 272.84C425.938 273.26 426.473 273.47 427.113 273.47ZM19.42 294.165C18.79 294.165 18.22 294.035 17.71 293.775C17.2 293.515 16.78 293.17 16.45 292.74L17.35 291.75C17.67 292.09 17.995 292.35 18.325 292.53C18.665 292.71 19.03 292.8 19.42 292.8C19.76 292.8 20.04 292.73 20.26 292.59C20.49 292.45 20.605 292.245 20.605 291.975C20.605 291.755 20.52 291.585 20.35 291.465C20.19 291.345 19.93 291.21 19.57 291.06L18.82 290.745C18.17 290.475 17.685 290.18 17.365 289.86C17.055 289.54 16.9 289.12 16.9 288.6C16.9 287.94 17.145 287.42 17.635 287.04C18.125 286.66 18.745 286.47 19.495 286.47C20.555 286.47 21.405 286.85 22.045 287.61L21.19 288.585C20.96 288.345 20.695 288.16 20.395 288.03C20.095 287.9 19.785 287.835 19.465 287.835C19.155 287.835 18.91 287.895 18.73 288.015C18.55 288.135 18.46 288.31 18.46 288.54C18.46 288.73 18.53 288.885 18.67 289.005C18.82 289.125 19.075 289.26 19.435 289.41L20.14 289.695C20.84 289.985 21.35 290.3 21.67 290.64C21.99 290.97 22.15 291.395 22.15 291.915C22.15 292.625 21.89 293.18 21.37 293.58C20.85 293.97 20.2 294.165 19.42 294.165ZM30.5962 290.835H25.1062C25.2062 291.435 25.4712 291.91 25.9012 292.26C26.3412 292.6 26.8762 292.77 27.5062 292.77C28.2762 292.77 28.9912 292.48 29.6512 291.9L30.4012 292.98C29.5612 293.77 28.5812 294.165 27.4612 294.165C26.7112 294.165 26.0362 294 25.4362 293.67C24.8362 293.33 24.3612 292.87 24.0112 292.29C23.6712 291.7 23.5012 291.045 23.5012 290.325C23.5012 289.615 23.6662 288.965 23.9962 288.375C24.3362 287.785 24.7962 287.32 25.3762 286.98C25.9662 286.64 26.6112 286.47 27.3112 286.47C27.9612 286.47 28.5412 286.62 29.0512 286.92C29.5712 287.21 29.9762 287.61 30.2662 288.12C30.5662 288.63 30.7162 289.205 30.7162 289.845C30.7162 290.155 30.6762 290.485 30.5962 290.835ZM27.2512 287.805C26.7312 287.805 26.2762 287.97 25.8862 288.3C25.5062 288.62 25.2562 289.055 25.1362 289.605H29.1412C29.1312 289.045 28.9412 288.605 28.5712 288.285C28.2112 287.965 27.7712 287.805 27.2512 287.805ZM36.7359 286.635V288.03H36.2559C35.6359 288.03 35.1209 288.21 34.7109 288.57C34.3009 288.92 34.0959 289.42 34.0959 290.07V294H32.5209V286.635H33.9909V287.595C34.2509 287.265 34.5659 287.01 34.9359 286.83C35.3159 286.65 35.7159 286.56 36.1359 286.56C36.3559 286.56 36.5559 286.585 36.7359 286.635ZM44.9559 286.635L41.4009 294.165H40.8609L37.2909 286.635H38.9709L41.1309 291.51L43.2759 286.635H44.9559ZM46.3783 286.635H47.9533V294H46.3783V286.635ZM47.1733 284.925C46.8733 284.925 46.6183 284.825 46.4083 284.625C46.1983 284.425 46.0933 284.18 46.0933 283.89C46.0933 283.6 46.1983 283.355 46.4083 283.155C46.6183 282.945 46.8733 282.84 47.1733 282.84C47.4633 282.84 47.7133 282.945 47.9233 283.155C48.1333 283.355 48.2383 283.6 48.2383 283.89C48.2383 284.18 48.1333 284.425 47.9233 284.625C47.7133 284.825 47.4633 284.925 47.1733 284.925ZM53.6658 294.165C52.9458 294.165 52.2858 293.995 51.6858 293.655C51.0958 293.315 50.6258 292.85 50.2758 292.26C49.9358 291.67 49.7658 291.02 49.7658 290.31C49.7658 289.6 49.9358 288.955 50.2758 288.375C50.6258 287.785 51.1008 287.32 51.7008 286.98C52.3008 286.64 52.9558 286.47 53.6658 286.47C54.3458 286.47 54.9508 286.625 55.4808 286.935C56.0208 287.235 56.4508 287.65 56.7708 288.18L55.6608 289.05C55.1308 288.3 54.4708 287.925 53.6808 287.925C53.2408 287.925 52.8458 288.03 52.4958 288.24C52.1458 288.45 51.8708 288.74 51.6708 289.11C51.4708 289.47 51.3708 289.87 51.3708 290.31C51.3708 290.76 51.4708 291.17 51.6708 291.54C51.8708 291.9 52.1458 292.185 52.4958 292.395C52.8458 292.605 53.2408 292.71 53.6808 292.71C54.4608 292.71 55.1208 292.34 55.6608 291.6L56.7708 292.455C56.4408 292.985 56.0058 293.405 55.4658 293.715C54.9358 294.015 54.3358 294.165 53.6658 294.165ZM64.9907 290.835H59.5007C59.6007 291.435 59.8657 291.91 60.2957 292.26C60.7357 292.6 61.2707 292.77 61.9007 292.77C62.6707 292.77 63.3857 292.48 64.0457 291.9L64.7957 292.98C63.9557 293.77 62.9757 294.165 61.8557 294.165C61.1057 294.165 60.4307 294 59.8307 293.67C59.2307 293.33 58.7557 292.87 58.4057 292.29C58.0657 291.7 57.8957 291.045 57.8957 290.325C57.8957 289.615 58.0607 288.965 58.3907 288.375C58.7307 287.785 59.1907 287.32 59.7707 286.98C60.3607 286.64 61.0057 286.47 61.7057 286.47C62.3557 286.47 62.9357 286.62 63.4457 286.92C63.9657 287.21 64.3707 287.61 64.6607 288.12C64.9607 288.63 65.1107 289.205 65.1107 289.845C65.1107 290.155 65.0707 290.485 64.9907 290.835ZM61.6457 287.805C61.1257 287.805 60.6707 287.97 60.2807 288.3C59.9007 288.62 59.6507 289.055 59.5307 289.605H63.5357C63.5257 289.045 63.3357 288.605 62.9657 288.285C62.6057 287.965 62.1657 287.805 61.6457 287.805ZM69.1954 294.165C68.5654 294.165 67.9954 294.035 67.4854 293.775C66.9754 293.515 66.5554 293.17 66.2254 292.74L67.1254 291.75C67.4454 292.09 67.7704 292.35 68.1004 292.53C68.4404 292.71 68.8054 292.8 69.1954 292.8C69.5354 292.8 69.8154 292.73 70.0354 292.59C70.2654 292.45 70.3804 292.245 70.3804 291.975C70.3804 291.755 70.2954 291.585 70.1254 291.465C69.9654 291.345 69.7054 291.21 69.3454 291.06L68.5954 290.745C67.9454 290.475 67.4604 290.18 67.1404 289.86C66.8304 289.54 66.6754 289.12 66.6754 288.6C66.6754 287.94 66.9204 287.42 67.4104 287.04C67.9004 286.66 68.5204 286.47 69.2704 286.47C70.3304 286.47 71.1804 286.85 71.8204 287.61L70.9654 288.585C70.7354 288.345 70.4704 288.16 70.1704 288.03C69.8704 287.9 69.5604 287.835 69.2404 287.835C68.9304 287.835 68.6854 287.895 68.5054 288.015C68.3254 288.135 68.2354 288.31 68.2354 288.54C68.2354 288.73 68.3054 288.885 68.4454 289.005C68.5954 289.125 68.8504 289.26 69.2104 289.41L69.9154 289.695C70.6154 289.985 71.1254 290.3 71.4454 290.64C71.7654 290.97 71.9254 291.395 71.9254 291.915C71.9254 292.625 71.6654 293.18 71.1454 293.58C70.6254 293.97 69.9754 294.165 69.1954 294.165Z" fill="white"/>
<defs>
<linearGradient id="paint0_linear_1_2" x1="160.224" y1="173.602" x2="158.956" y2="171.982" gradientUnits="userSpaceOnUse">
<stop stop-color="#353957"/>
<stop offset="1" stop-color="#615376"/>
</linearGradient>
<linearGradient id="paint1_linear_1_2" x1="304.307" y1="160.255" x2="310.699" y2="156.752" gradientUnits="userSpaceOnUse">
<stop offset="0.080217" stop-color="#353957"/>
<stop offset="0.768165" stop-color="#615376"/>
</linearGradient>
<linearGradient id="paint2_linear_1_2" x1="296.222" y1="138.249" x2="297.766" y2="136.503" gradientUnits="userSpaceOnUse">
<stop offset="0.080217" stop-color="#353957"/>
<stop offset="0.768165" stop-color="#615376"/>
</linearGradient>
<linearGradient id="paint3_linear_1_2" x1="285.821" y1="125.819" x2="293.776" y2="118.905" gradientUnits="userSpaceOnUse">
<stop offset="0.080217" stop-color="#353957"/>
<stop offset="0.768165" stop-color="#615376"/>
</linearGradient>
</defs>
</svg>
