<svg width="469" height="309" viewBox="0 0 469 309" fill="none" xmlns="http://www.w3.org/2000/svg">
<mask id="mask0_1_500" style="mask-type:alpha" maskUnits="userSpaceOnUse" x="0" y="0" width="469" height="309">
<path d="M0 5C0 2.23858 2.23858 0 5 0H464C466.761 0 469 2.23858 469 5V304C469 306.761 466.761 309 464 309H5.00001C2.23859 309 0 306.761 0 304V5Z" fill="#D6D6E7"/>
</mask>
<g mask="url(#mask0_1_500)">
<rect x="-6" y="-52" width="481" height="364" fill="#474864"/>
</g>
<path d="M80 123C80 201.802 126.544 253.866 150 270L359 271C381.891 254.583 424.53 207.987 413 155C398.587 88.7658 343.097 124.155 278 56.9999C240.719 18.5401 80 24.4979 80 123Z" fill="white" stroke="#35364E" stroke-width="0.6"/>
<path d="M245.708 62.3626L124 102L178.27 268.372L299.978 228.735L245.708 62.3626Z" fill="#DDDDDD"/>
<path d="M128.378 92.1921L249.508 52.7165L303.559 218.529L182.429 258.005L128.378 92.1921Z" fill="white" stroke="#35364E" stroke-width="0.6"/>
<path d="M175.077 162.685L180.381 166.272L185.415 152.143" stroke="#B5453C" stroke-width="1.19065" stroke-linecap="round"/>
<path d="M168 147C166.807 147.323 165.381 146.205 165 145L160 131C159.803 130.403 159.717 129.559 160 129C160.283 128.441 161.41 128.186 162 128L176 123C177.217 122.615 178.607 123.757 179 125L184 139C184.393 140.242 183.23 141.602 182 142L168 147C167.963 147.012 168.037 146.987 168 147ZM176 124C175.975 124.012 176.025 123.987 176 124L162 128C161.533 128.149 161.221 128.553 161 129C160.779 129.435 160.84 130.528 161 131L165 145C165.307 145.969 167.029 146.298 168 146L182 142C182.959 141.689 183.307 139.981 183 139L179 125C178.68 124.056 176.934 123.751 176 124Z" fill="#35364E"/>
<path d="M177 173C175.807 173.323 174.381 172.205 174 171L169 157C168.803 156.403 168.717 155.559 169 155C169.283 154.441 170.41 154.186 171 154L185 149C186.217 148.615 187.607 149.757 188 151L193 165C193.393 166.242 192.23 167.602 191 168L177 173C176.975 173.012 177.049 172.987 177 173ZM185 150C184.975 150.012 185.025 149.987 185 150L171 154C170.533 154.149 170.221 154.553 170 155C169.779 155.435 169.84 156.528 170 157L174 171C174.307 171.969 176.029 172.298 177 172L191 168C191.959 167.689 192.307 165.981 192 165L188 151C187.668 150.056 185.934 149.751 185 150Z" fill="#35364E"/>
<line y1="-0.297661" x2="111" y2="-0.297661" transform="matrix(0.950991 -0.309219 0.309289 0.950968 181 192)" stroke="#35364E" stroke-width="0.595323"/>
<line y1="-0.297661" x2="111" y2="-0.297661" transform="matrix(0.950991 -0.309219 0.309289 0.950968 190 219)" stroke="#35364E" stroke-width="0.595323"/>
<line y1="-0.297661" x2="111" y2="-0.297661" transform="matrix(0.950991 -0.309219 0.309289 0.950968 183 197)" stroke="#35364E" stroke-width="0.595323"/>
<line y1="-0.297661" x2="111" y2="-0.297661" transform="matrix(0.950991 -0.309219 0.309289 0.950968 192 224)" stroke="#35364E" stroke-width="0.595323"/>
<line y1="-0.297661" x2="65" y2="-0.297661" transform="matrix(0.950569 -0.310514 0.310584 0.950546 190 122)" stroke="#35364E" stroke-width="0.595323"/>
<line y1="-0.297661" x2="111" y2="-0.297661" transform="matrix(0.950991 -0.309219 0.309289 0.950968 184 201)" stroke="#35364E" stroke-width="0.595323"/>
<line y1="-0.297661" x2="111" y2="-0.297661" transform="matrix(0.950991 -0.309219 0.309289 0.950968 193 228)" stroke="#35364E" stroke-width="0.595323"/>
<line y1="-0.297661" x2="65" y2="-0.297661" transform="matrix(0.950569 -0.310514 0.310584 0.950546 192 127)" stroke="#35364E" stroke-width="0.595323"/>
<line y1="-0.297661" x2="111" y2="-0.297661" transform="matrix(0.950991 -0.309219 0.309289 0.950968 186 206)" stroke="#35364E" stroke-width="0.595323"/>
<line y1="-0.297661" x2="111" y2="-0.297661" transform="matrix(0.950991 -0.309219 0.309289 0.950968 195 233)" stroke="#35364E" stroke-width="0.595323"/>
<line y1="-0.297661" x2="65" y2="-0.297661" transform="matrix(0.950569 -0.310514 0.310584 0.950546 193 131)" stroke="#35364E" stroke-width="0.595323"/>
<line y1="-0.297661" x2="65" y2="-0.297661" transform="matrix(0.950569 -0.310514 0.310584 0.950546 195 136)" stroke="#35364E" stroke-width="0.595323"/>
<path fill-rule="evenodd" clip-rule="evenodd" d="M308.647 132.217C305.927 128.735 299.34 120.776 291 114C287.049 110.785 267.131 108.715 265 111C263.907 112.175 264.183 113.434 265.264 114.679C261.184 115.674 257.936 117.136 256.588 117.743L256.419 117.819C252.785 117.651 249.897 117.788 249 118C246.005 118.706 240.492 123.235 236.542 127.331C229.17 129.943 221.291 133.504 221 136C220.521 140.115 228.335 141.868 233 141C237.665 140.131 245.284 139.21 248 142C252.729 146.831 258.276 154.165 259 156C259.312 156.777 259.572 157.515 259.789 158.219C259.159 160.117 258.508 161.675 258 162C255.19 163.811 248.419 159.289 241.022 154.348C240.352 153.9 239.677 153.45 239 153C232.462 148.672 225.667 144.967 222 145C217.269 145.043 217.581 149.715 219 151C220.034 151.932 221.648 153.762 223.72 156.11C225.247 157.842 227.024 159.856 229 162C234.71 168.206 241.656 175.528 247 181C256.699 190.941 266.387 197.308 284 204C301.613 210.692 339 256 339 256L387 215C387 215 349.85 186.966 340 179C331.49 172.118 326.247 160.893 319.382 146.195C318.301 143.882 317.18 141.482 316 139C314.336 135.499 311.652 133.339 308.647 132.217Z" fill="#FDBAA0"/>
<path fill-rule="evenodd" clip-rule="evenodd" d="M308.647 132.217C305.927 128.735 299.34 120.776 291 114C287.049 110.785 267.131 108.715 265 111C263.907 112.175 264.183 113.434 265.264 114.679C261.184 115.674 257.936 117.136 256.588 117.743L256.419 117.819C252.779 117.652 249.886 117.788 249 118C240.232 118.614 235.759 123.922 233.894 128.304C227.396 130.778 221.257 133.802 221 136C220.521 140.115 228.335 141.868 233 141C237.665 140.131 245.284 139.21 248 142C252.729 146.831 258.276 154.165 259 156C259.312 156.777 259.572 157.515 259.789 158.219C259.159 160.117 258.508 161.675 258 162C255.19 163.811 248.419 159.289 241.022 154.348C240.352 153.9 239.677 153.45 239 153C232.462 148.672 225.667 144.967 222 145C217.269 145.043 217.581 149.715 219 151C220.034 151.932 221.648 153.762 223.72 156.11C225.247 157.842 227.024 159.856 229 162C234.71 168.206 241.656 175.528 247 181C256.699 190.941 266.387 197.308 284 204C301.613 210.692 339 256 339 256L387 215C387 215 349.85 186.966 340 179C331.49 172.118 326.247 160.893 319.382 146.195C318.301 143.882 317.18 141.482 316 139C314.336 135.499 311.652 133.339 308.647 132.217Z" fill="#FDBAA0"/>
<path fill-rule="evenodd" clip-rule="evenodd" d="M290 124C287.053 122.633 284.305 120.241 282 118C281.405 117.424 280.703 116.962 280 116.5C279.297 116.038 278.595 115.575 278 115C277.781 114.79 277.556 114.558 277.323 114.317L277.323 114.317C276.368 113.332 275.286 112.215 274 112C271.556 111.602 268.91 112.575 266.506 113.459C265.992 113.648 265.488 113.833 265 114C262.424 114.877 258.993 115.74 256.04 116.483L256.04 116.483C255.485 116.623 254.946 116.759 254.433 116.889C253.334 116.815 252.196 116.846 251 117C250.191 117.256 250.014 117.628 250 118C255.46 117.846 261.899 120.007 267 123C268.961 124.145 270.81 125.643 272.626 127.114C273.421 127.758 274.211 128.398 275 129C275.475 129.361 275.947 129.726 276.419 130.09L276.419 130.09C278.825 131.952 281.217 133.802 284 135C284.788 135.353 285.778 134.342 285 134C281.303 132.409 277.868 129.681 274.46 126.975C271.664 124.756 268.887 122.551 266 121C263.149 119.468 260.562 118.187 257.879 117.47C259.737 116.905 261.61 116.226 263.429 115.567L263.43 115.567C263.958 115.375 264.482 115.185 265 115C265.551 114.804 266.113 114.582 266.683 114.357C269.042 113.425 271.542 112.437 274 113C275.437 113.331 277.192 115.142 278.405 116.393L278.405 116.393C278.623 116.617 278.823 116.823 279 117C279.379 117.377 279.728 117.736 280.071 118.088L280.072 118.089C280.691 118.724 281.289 119.338 282 120C284.094 121.942 286.39 123.787 289 125C289.768 125.37 290.779 124.36 290 124ZM277.696 140.559C278.488 140.707 279.26 140.851 280 141C280.762 141.155 279.74 142.144 279 142C275.382 141.268 271.385 140.413 268 139C265.722 138.043 264 136.503 262.239 134.927C261.513 134.278 260.781 133.623 260 133C257.155 130.741 253.66 128.907 250 128C247.948 127.484 245.105 126.855 243 127C241.168 127.123 237.324 128.009 234.702 128.613C234.039 128.765 233.455 128.9 233 129C232.238 129.175 235.238 127.165 236 127C240.115 126.103 244.822 125.329 249 126C252.512 126.557 256.303 128.906 259 131C259.972 131.756 260.906 132.607 261.847 133.463C263.753 135.199 265.684 136.957 268 138C270.836 139.279 274.424 139.948 277.696 140.559Z" fill="#E5967E"/>
<path d="M317 241C317 241 298.587 219.735 300 218C301.413 216.265 329.973 187.118 335 177C335 177 335.195 175.449 338 177C340.816 178.551 364 193 364 193L350 225L317 241Z" fill="#EBEBF3"/>
<path d="M446 271L407 270H335C319.276 251.172 310.259 240.397 311 237C311.161 236.25 311.238 234.986 312 234C312.891 232.843 314.476 231.436 316 230C323.749 222.681 338.496 212.505 345 203C348.628 197.695 351.285 193.957 354 191C354.869 190.046 356.152 188.664 357 188C359.952 185.664 362.437 185.425 366 187C368.243 187.986 434.329 256.161 446 271Z" fill="#51638D"/>
<path d="M310.024 220.048C310.037 218.943 309.152 218.037 308.048 218.024C306.943 218.011 306.037 218.896 306.024 220C306.011 221.105 306.895 222.011 308 222.024C309.104 222.037 310.01 221.152 310.024 220.048Z" fill="#35364E"/>
<path d="M214 140V149C214 149 205.402 147.224 202 146C201.103 145.68 201.014 145.165 201 145C200.986 144.834 201.075 144.419 202 144C205.36 142.5 214 140 214 140Z" fill="#F7D6B2"/>
<path fill-rule="evenodd" clip-rule="evenodd" d="M338 128C338 128 219.47 138.346 216 139V139.018C213.255 139.027 211.027 141.25 211.018 144C211.008 146.761 213.239 149.008 216 149.018C216.181 149.018 216.359 149.009 216.535 148.991L339 147L338 128Z" fill="url(#paint0_linear_1_500)"/>
<path d="M338.034 146.983C343.281 146.974 348.027 143.212 348.018 137.965C348.009 132.718 343.247 127.974 338 127.983C332.753 127.993 329.009 132.753 329.018 138C329.027 143.247 332.788 146.993 338.034 146.983Z" fill="#F99746"/>
<path d="M339.012 140.994C340.669 140.99 342.01 139.644 342.006 137.987C342.003 136.33 340.657 134.99 339 134.994C337.343 134.997 336.003 136.343 336.006 138C336.01 139.657 337.356 140.997 339.012 140.994Z" fill="#35364E"/>
<path d="M343 138C342.519 136.227 344.227 134.481 346 134C347.773 133.519 349.519 135.227 350 137C350.481 138.773 348.773 140.519 347 141C345.237 141.481 343.481 139.773 343 138Z" fill="#35364E"/>
<path d="M339 135C339.241 134.977 347 134 347 134L348 141H339V135Z" fill="#35364E"/>
<path d="M328 138C328.498 139.759 314.292 139.952 313 140C308.085 140.179 302.915 140.072 298 140C296.57 139.976 296.559 141.976 298 142C306.326 142.12 314.684 141.383 323 141C325.966 140.868 331.345 141.75 330 137C329.555 135.468 327.566 136.468 328 138Z" fill="#35364E"/>
<path fill-rule="evenodd" clip-rule="evenodd" d="M206.9 142.198C206.575 142.88 205.653 145.187 207 147C206.434 146.87 205.894 146.748 205.384 146.633C203.691 146.25 202.323 145.941 201.389 145.673C201.056 145.402 201.01 145.115 201 145C200.986 144.834 201.075 144.419 202 144C203.182 143.472 205.017 142.821 206.9 142.198Z" fill="#B5453C"/>
<path d="M179.75 94.9456C179.138 95.1426 178.54 95.1766 177.957 95.0476C177.373 94.9185 176.856 94.6471 176.406 94.2333L177.048 93.3137C177.414 93.5961 177.788 93.797 178.168 93.9164C178.553 94.0258 178.961 94.0112 179.392 93.8726C179.777 93.7486 180.057 93.5544 180.23 93.2901C180.411 93.0234 180.451 92.7314 180.348 92.414C180.263 92.1496 180.11 91.9698 179.887 91.8746C179.672 91.777 179.339 91.7007 178.888 91.6459L177.936 91.5268C177.312 91.4526 176.794 91.3067 176.382 91.089C175.97 90.8714 175.684 90.5133 175.523 90.0146C175.394 89.6141 175.386 89.225 175.498 88.8471C175.609 88.4692 175.816 88.14 176.118 87.8595C176.427 87.5765 176.797 87.3657 177.228 87.2271C177.757 87.0568 178.273 87.0283 178.776 87.1414C179.277 87.247 179.709 87.4624 180.072 87.7874L179.442 88.7034C179.15 88.4719 178.844 88.3244 178.524 88.2609C178.208 88.1873 177.892 88.2016 177.574 88.3038C177.257 88.4059 177.014 88.5716 176.846 88.8008C176.676 89.0224 176.638 89.2806 176.733 89.5753C176.791 89.7566 176.881 89.8943 177.003 89.9885C177.125 90.0826 177.268 90.1493 177.431 90.1887C177.591 90.2205 177.82 90.2592 178.118 90.305L179.081 90.4204C179.776 90.5054 180.323 90.6629 180.722 90.893C181.121 91.123 181.4 91.4836 181.558 91.9747C181.697 92.4054 181.71 92.8222 181.598 93.2252C181.491 93.6182 181.274 93.9674 180.947 94.2727C180.625 94.5681 180.226 94.7924 179.75 94.9456ZM181.343 86.04L186.262 84.4567L186.609 85.5334L182.891 86.73L183.508 88.6453L186.307 87.7443L186.643 88.787L183.844 89.688L184.606 92.0567L188.46 90.8164L188.806 91.8931L183.752 93.5201L181.343 86.04ZM194.908 89.9292L191.847 87.725L190.475 88.1664L191.406 91.0565L190.204 91.4432L187.796 83.963L190.528 83.0838C191.026 82.9233 191.5 82.8793 191.948 82.9517C192.395 83.0166 192.779 83.1887 193.103 83.4682C193.426 83.7477 193.66 84.1103 193.803 84.5561C193.961 85.0472 193.972 85.5192 193.834 85.9721C193.696 86.425 193.433 86.8101 193.043 87.1274L196.279 89.4878L194.908 89.9292ZM190.132 87.1011L191.64 86.6159C192.055 86.4821 192.344 86.2642 192.505 85.9621C192.666 85.6601 192.688 85.3277 192.572 84.965C192.452 84.5948 192.239 84.3341 191.932 84.1828C191.625 84.0315 191.263 84.0227 190.848 84.1565L189.34 84.6417L190.132 87.1011ZM200.861 79.7579L200.011 88.4243L199.603 88.5557L193.856 82.0124L195.205 81.5783L199.033 86.0873L199.512 80.1921L200.861 79.7579ZM202.052 79.3745L203.253 78.9878L205.662 86.468L204.46 86.8547L202.052 79.3745ZM211.068 84.8655C210.35 85.0965 209.634 85.1393 208.92 84.9938C208.214 84.846 207.588 84.5345 207.043 84.0595C206.506 83.582 206.122 82.9844 205.891 82.2666C205.66 81.5488 205.623 80.8393 205.781 80.1381C205.946 79.4344 206.273 78.8165 206.76 78.2844C207.255 77.7498 207.861 77.367 208.579 77.136C209.267 76.9147 209.94 76.8689 210.599 76.9987C211.265 77.1261 211.846 77.402 212.341 77.8263L211.65 78.7868C211.252 78.4564 210.825 78.2436 210.369 78.1485C209.91 78.0459 209.436 78.0736 208.945 78.2317C208.438 78.3946 208.016 78.6639 207.679 79.0394C207.346 79.405 207.131 79.837 207.033 80.3355C206.935 80.834 206.97 81.3439 207.137 81.8653C207.305 82.3866 207.574 82.8212 207.945 83.1689C208.315 83.5166 208.743 83.7457 209.229 83.8562C209.72 83.9566 210.219 83.9254 210.725 83.7625C211.216 83.6044 211.619 83.3538 211.934 83.0106C212.246 82.6599 212.468 82.2342 212.599 81.7335L213.721 82.1104C213.574 82.7414 213.267 83.303 212.8 83.7952C212.34 84.285 211.763 84.6417 211.068 84.8655ZM213.264 75.7657L218.183 74.1825L218.53 75.2591L214.812 76.4557L215.429 78.3711L218.228 77.47L218.564 78.5127L215.764 79.4138L216.527 81.7825L220.38 80.5421L220.727 81.6188L215.672 83.2458L213.264 75.7657ZM177.496 111.429C176.778 111.66 176.062 111.703 175.348 111.557C174.642 111.41 174.016 111.098 173.472 110.623C172.934 110.146 172.55 109.548 172.319 108.83C172.088 108.112 172.051 107.403 172.209 106.702C172.374 105.998 172.701 105.38 173.188 104.848C173.683 104.313 174.29 103.931 175.007 103.7C175.695 103.478 176.368 103.432 177.027 103.562C177.694 103.69 178.274 103.966 178.77 104.39L178.078 105.35C177.68 105.02 177.253 104.807 176.797 104.712C176.339 104.609 175.864 104.637 175.373 104.795C174.867 104.958 174.445 105.227 174.107 105.603C173.774 105.969 173.559 106.401 173.461 106.899C173.363 107.398 173.398 107.907 173.566 108.429C173.733 108.95 174.003 109.385 174.373 109.732C174.744 110.08 175.172 110.309 175.658 110.42C176.149 110.52 176.647 110.489 177.153 110.326C177.645 110.168 178.047 109.917 178.362 109.574C178.675 109.223 178.896 108.798 179.027 108.297L180.149 108.674C180.002 109.305 179.695 109.867 179.228 110.359C178.768 110.849 178.191 111.205 177.496 111.429ZM185.553 108.836C184.836 109.067 184.12 109.109 183.406 108.964C182.699 108.816 182.078 108.503 181.54 108.026C181.003 107.548 180.619 106.951 180.388 106.233C180.157 105.515 180.12 104.806 180.278 104.105C180.443 103.401 180.77 102.783 181.257 102.251C181.744 101.719 182.347 101.337 183.065 101.106C183.775 100.877 184.487 100.836 185.201 100.981C185.915 101.127 186.541 101.438 187.078 101.916C187.623 102.391 188.011 102.987 188.242 103.705C188.473 104.423 188.506 105.134 188.341 105.837C188.183 106.538 187.856 107.156 187.361 107.691C186.866 108.225 186.264 108.607 185.553 108.836ZM185.211 107.733C185.717 107.57 186.136 107.305 186.469 106.94C186.799 106.567 187.013 106.131 187.111 105.632C187.209 105.134 187.173 104.62 187.003 104.091C186.838 103.577 186.57 103.147 186.199 102.799C185.829 102.451 185.402 102.226 184.918 102.123C184.432 102.013 183.936 102.039 183.43 102.202C182.916 102.367 182.494 102.636 182.164 103.01C181.832 103.375 181.616 103.807 181.518 104.306C181.425 104.794 181.463 105.299 181.631 105.82C181.801 106.349 182.068 106.789 182.43 107.139C182.801 107.487 183.229 107.716 183.715 107.826C184.198 107.929 184.697 107.898 185.211 107.733ZM194.646 97.5161L197.094 105.121L196.686 105.252L190.459 101.528L192.09 106.594L190.889 106.981L188.44 99.3759L188.86 99.241L195.068 102.946L193.445 97.9028L194.646 97.5161ZM198.641 97.4184L196.125 98.2282L195.779 97.1515L202.024 95.1415L202.37 96.2182L199.843 97.0317L201.904 103.435L200.703 103.822L198.641 97.4184ZM210.257 100.747L207.196 98.5423L205.825 98.9837L206.755 101.874L205.554 102.26L203.146 94.7803L205.877 93.9011C206.376 93.7406 206.849 93.6966 207.298 93.769C207.744 93.8338 208.129 94.006 208.453 94.2855C208.776 94.5649 209.009 94.9276 209.153 95.3734C209.311 95.8645 209.321 96.3365 209.184 96.7894C209.046 97.2423 208.782 97.6274 208.392 97.9447L211.629 100.305L210.257 100.747ZM205.482 97.9184L206.989 97.4332C207.405 97.2994 207.693 97.0815 207.855 96.7794C208.016 96.4774 208.038 96.145 207.921 95.7823C207.802 95.4121 207.589 95.1513 207.282 95.0001C206.974 94.8488 206.613 94.84 206.197 94.9738L204.69 95.459L205.482 97.9184ZM216.791 97.2678L213.425 98.3512L213.293 99.7694L212.013 100.182L212.862 91.5152L213.27 91.3839L219.017 97.9271L217.725 98.343L216.791 97.2678ZM213.785 93.6823L213.523 97.1813L216.028 96.375L213.785 93.6823ZM223.551 96.6054C222.833 96.8365 222.117 96.8793 221.403 96.7338C220.697 96.5859 220.071 96.2745 219.526 95.7994C218.989 95.322 218.605 94.7243 218.374 94.0065C218.143 93.2888 218.106 92.5792 218.264 91.878C218.429 91.1744 218.756 90.5565 219.243 90.0244C219.738 89.4898 220.344 89.107 221.062 88.8759C221.75 88.6546 222.423 88.6089 223.082 88.7387C223.748 88.8661 224.329 89.1419 224.824 89.5663L224.133 90.5268C223.735 90.1963 223.308 89.9836 222.852 89.8885C222.393 89.7858 221.919 89.8136 221.428 89.9716C220.921 90.1346 220.499 90.4038 220.162 90.7794C219.829 91.1449 219.614 91.577 219.516 92.0755C219.418 92.574 219.453 93.0839 219.62 93.6053C219.788 94.1266 220.057 94.5611 220.428 94.9089C220.798 95.2566 221.226 95.4857 221.712 95.5961C222.203 95.6966 222.702 95.6654 223.208 95.5024C223.699 95.3443 224.102 95.0937 224.417 94.7506C224.729 94.3999 224.951 93.9742 225.082 93.4735L226.204 93.8503C226.057 94.4814 225.75 95.043 225.283 95.5352C224.823 96.0249 224.246 96.3817 223.551 96.6054ZM227.85 88.0169L225.334 88.8268L224.988 87.7501L231.233 85.74L231.579 86.8167L229.052 87.6302L231.113 94.0337L229.912 94.4204L227.85 88.0169Z" fill="#35364E"/>
<mask id="mask1_1_500" style="mask-type:alpha" maskUnits="userSpaceOnUse" x="0" y="251" width="469" height="58">
<path d="M0 256C0 253.239 2.23858 251 5 251H464C466.761 251 469 253.239 469 256V304C469 306.761 466.761 309 464 309H5.00001C2.23859 309 0 306.761 0 304V256Z" fill="#D6D6E7"/>
</mask>
<g mask="url(#mask1_1_500)">
<rect x="-6" y="241" width="481" height="68" fill="#35364E"/>
</g>
<path d="M21.85 275.165C20.9 275.165 20.025 274.94 19.225 274.49C18.435 274.04 17.805 273.425 17.335 272.645C16.875 271.865 16.645 271 16.645 270.05C16.645 269.1 16.875 268.235 17.335 267.455C17.805 266.675 18.435 266.06 19.225 265.61C20.025 265.16 20.9 264.935 21.85 264.935C22.76 264.935 23.585 265.14 24.325 265.55C25.075 265.96 25.665 266.515 26.095 267.215L24.895 268.1C24.545 267.55 24.115 267.13 23.605 266.84C23.095 266.54 22.515 266.39 21.865 266.39C21.195 266.39 20.585 266.55 20.035 266.87C19.495 267.18 19.07 267.615 18.76 268.175C18.45 268.735 18.295 269.36 18.295 270.05C18.295 270.74 18.45 271.365 18.76 271.925C19.07 272.485 19.495 272.925 20.035 273.245C20.585 273.555 21.195 273.71 21.865 273.71C22.515 273.71 23.095 273.565 23.605 273.275C24.115 272.975 24.545 272.55 24.895 272L26.095 272.885C25.675 273.585 25.09 274.14 24.34 274.55C23.6 274.96 22.77 275.165 21.85 275.165ZM32.107 267.635V269.03H31.627C31.007 269.03 30.492 269.21 30.082 269.57C29.672 269.92 29.467 270.42 29.467 271.07V275H27.892V267.635H29.362V268.595C29.622 268.265 29.937 268.01 30.307 267.83C30.687 267.65 31.087 267.56 31.507 267.56C31.727 267.56 31.927 267.585 32.107 267.635ZM36.2055 267.47C37.1155 267.47 37.8455 267.735 38.3955 268.265C38.9455 268.795 39.2205 269.555 39.2205 270.545V275H37.7505V274.175C37.4805 274.495 37.1455 274.74 36.7455 274.91C36.3455 275.08 35.8955 275.165 35.3955 275.165C34.6255 275.165 34.0055 274.97 33.5355 274.58C33.0655 274.19 32.8305 273.675 32.8305 273.035C32.8305 272.395 33.0755 271.885 33.5655 271.505C34.0555 271.125 34.7155 270.935 35.5455 270.935H37.6305V270.455C37.6305 269.945 37.4905 269.555 37.2105 269.285C36.9405 269.015 36.5555 268.88 36.0555 268.88C35.6455 268.88 35.2805 268.97 34.9605 269.15C34.6405 269.33 34.3255 269.605 34.0155 269.975L33.1005 269.045C33.4705 268.515 33.9205 268.12 34.4505 267.86C34.9805 267.6 35.5655 267.47 36.2055 267.47ZM35.7255 273.95C36.2555 273.95 36.7055 273.785 37.0755 273.455C37.4455 273.125 37.6305 272.71 37.6305 272.21V272.075H35.7405C35.3205 272.075 34.9955 272.15 34.7655 272.3C34.5455 272.45 34.4355 272.675 34.4355 272.975C34.4355 273.285 34.5555 273.525 34.7955 273.695C35.0355 273.865 35.3455 273.95 35.7255 273.95ZM44.6975 265.01C44.2175 265.01 43.8575 265.105 43.6175 265.295C43.3775 265.485 43.2575 265.815 43.2575 266.285V267.635H44.9975V269H43.2575V275H41.6825V269H40.6325V267.635H41.6825V266.15C41.6825 265.29 41.9175 264.65 42.3875 264.23C42.8575 263.8 43.4975 263.585 44.3075 263.585C44.7075 263.585 45.0475 263.63 45.3275 263.72V265.055C45.0875 265.025 44.8775 265.01 44.6975 265.01ZM50.2456 273.665V275C49.7556 275.11 49.3206 275.165 48.9406 275.165C48.0906 275.165 47.4256 274.955 46.9456 274.535C46.4656 274.105 46.2256 273.46 46.2256 272.6V269H45.0256V267.635H46.2256V265.7H47.8156V267.635H50.0056V269H47.8156V272.465C47.8156 272.935 47.9356 273.265 48.1756 273.455C48.4256 273.645 48.7906 273.74 49.2706 273.74C49.4906 273.74 49.8156 273.715 50.2456 273.665ZM58.8813 267.47C59.7913 267.47 60.5213 267.735 61.0713 268.265C61.6213 268.795 61.8963 269.555 61.8963 270.545V275H60.4263V274.175C60.1563 274.495 59.8213 274.74 59.4213 274.91C59.0213 275.08 58.5713 275.165 58.0713 275.165C57.3013 275.165 56.6813 274.97 56.2113 274.58C55.7413 274.19 55.5063 273.675 55.5063 273.035C55.5063 272.395 55.7513 271.885 56.2413 271.505C56.7313 271.125 57.3913 270.935 58.2213 270.935H60.3063V270.455C60.3063 269.945 60.1663 269.555 59.8863 269.285C59.6163 269.015 59.2313 268.88 58.7313 268.88C58.3213 268.88 57.9563 268.97 57.6363 269.15C57.3163 269.33 57.0013 269.605 56.6913 269.975L55.7763 269.045C56.1463 268.515 56.5963 268.12 57.1263 267.86C57.6563 267.6 58.2413 267.47 58.8813 267.47ZM58.4013 273.95C58.9313 273.95 59.3813 273.785 59.7513 273.455C60.1213 273.125 60.3063 272.71 60.3063 272.21V272.075H58.4163C57.9963 272.075 57.6713 272.15 57.4413 272.3C57.2213 272.45 57.1112 272.675 57.1112 272.975C57.1112 273.285 57.2313 273.525 57.4713 273.695C57.7113 273.865 58.0213 273.95 58.4013 273.95ZM70.5723 275.165C69.9423 275.165 69.3723 275.035 68.8623 274.775C68.3523 274.515 67.9323 274.17 67.6023 273.74L68.5023 272.75C68.8223 273.09 69.1473 273.35 69.4773 273.53C69.8173 273.71 70.1823 273.8 70.5723 273.8C70.9123 273.8 71.1923 273.73 71.4123 273.59C71.6423 273.45 71.7573 273.245 71.7573 272.975C71.7573 272.755 71.6723 272.585 71.5023 272.465C71.3423 272.345 71.0823 272.21 70.7223 272.06L69.9723 271.745C69.3223 271.475 68.8373 271.18 68.5173 270.86C68.2073 270.54 68.0523 270.12 68.0523 269.6C68.0523 268.94 68.2973 268.42 68.7873 268.04C69.2773 267.66 69.8973 267.47 70.6473 267.47C71.7073 267.47 72.5573 267.85 73.1973 268.61L72.3423 269.585C72.1123 269.345 71.8473 269.16 71.5473 269.03C71.2473 268.9 70.9373 268.835 70.6173 268.835C70.3073 268.835 70.0623 268.895 69.8823 269.015C69.7023 269.135 69.6123 269.31 69.6123 269.54C69.6123 269.73 69.6823 269.885 69.8223 270.005C69.9723 270.125 70.2273 270.26 70.5873 270.41L71.2923 270.695C71.9923 270.985 72.5023 271.3 72.8223 271.64C73.1423 271.97 73.3023 272.395 73.3023 272.915C73.3023 273.625 73.0423 274.18 72.5223 274.58C72.0023 274.97 71.3523 275.165 70.5723 275.165ZM81.7485 271.835H76.2585C76.3585 272.435 76.6235 272.91 77.0535 273.26C77.4935 273.6 78.0285 273.77 78.6585 273.77C79.4285 273.77 80.1435 273.48 80.8035 272.9L81.5535 273.98C80.7135 274.77 79.7335 275.165 78.6135 275.165C77.8635 275.165 77.1885 275 76.5885 274.67C75.9885 274.33 75.5135 273.87 75.1635 273.29C74.8235 272.7 74.6535 272.045 74.6535 271.325C74.6535 270.615 74.8185 269.965 75.1485 269.375C75.4885 268.785 75.9485 268.32 76.5285 267.98C77.1185 267.64 77.7635 267.47 78.4635 267.47C79.1135 267.47 79.6935 267.62 80.2035 267.92C80.7235 268.21 81.1285 268.61 81.4185 269.12C81.7185 269.63 81.8685 270.205 81.8685 270.845C81.8685 271.155 81.8285 271.485 81.7485 271.835ZM78.4035 268.805C77.8835 268.805 77.4285 268.97 77.0385 269.3C76.6585 269.62 76.4085 270.055 76.2885 270.605H80.2935C80.2835 270.045 80.0935 269.605 79.7235 269.285C79.3635 268.965 78.9235 268.805 78.4035 268.805ZM87.8882 267.635V269.03H87.4082C86.7882 269.03 86.2732 269.21 85.8632 269.57C85.4532 269.92 85.2482 270.42 85.2482 271.07V275H83.6732V267.635H85.1432V268.595C85.4032 268.265 85.7182 268.01 86.0882 267.83C86.4682 267.65 86.8682 267.56 87.2882 267.56C87.5082 267.56 87.7082 267.585 87.8882 267.635ZM96.1082 267.635L92.5532 275.165H92.0132L88.4432 267.635H90.1232L92.2832 272.51L94.4282 267.635H96.1082ZM97.5306 267.635H99.1056V275H97.5306V267.635ZM98.3256 265.925C98.0256 265.925 97.7706 265.825 97.5606 265.625C97.3506 265.425 97.2456 265.18 97.2456 264.89C97.2456 264.6 97.3506 264.355 97.5606 264.155C97.7706 263.945 98.0256 263.84 98.3256 263.84C98.6156 263.84 98.8656 263.945 99.0756 264.155C99.2856 264.355 99.3906 264.6 99.3906 264.89C99.3906 265.18 99.2856 265.425 99.0756 265.625C98.8656 265.825 98.6156 265.925 98.3256 265.925ZM104.818 275.165C104.098 275.165 103.438 274.995 102.838 274.655C102.248 274.315 101.778 273.85 101.428 273.26C101.088 272.67 100.918 272.02 100.918 271.31C100.918 270.6 101.088 269.955 101.428 269.375C101.778 268.785 102.253 268.32 102.853 267.98C103.453 267.64 104.108 267.47 104.818 267.47C105.498 267.47 106.103 267.625 106.633 267.935C107.173 268.235 107.603 268.65 107.923 269.18L106.813 270.05C106.283 269.3 105.623 268.925 104.833 268.925C104.393 268.925 103.998 269.03 103.648 269.24C103.298 269.45 103.023 269.74 102.823 270.11C102.623 270.47 102.523 270.87 102.523 271.31C102.523 271.76 102.623 272.17 102.823 272.54C103.023 272.9 103.298 273.185 103.648 273.395C103.998 273.605 104.393 273.71 104.833 273.71C105.613 273.71 106.273 273.34 106.813 272.6L107.923 273.455C107.593 273.985 107.158 274.405 106.618 274.715C106.088 275.015 105.488 275.165 104.818 275.165ZM116.143 271.835H110.653C110.753 272.435 111.018 272.91 111.448 273.26C111.888 273.6 112.423 273.77 113.053 273.77C113.823 273.77 114.538 273.48 115.198 272.9L115.948 273.98C115.108 274.77 114.128 275.165 113.008 275.165C112.258 275.165 111.583 275 110.983 274.67C110.383 274.33 109.908 273.87 109.558 273.29C109.218 272.7 109.048 272.045 109.048 271.325C109.048 270.615 109.213 269.965 109.543 269.375C109.883 268.785 110.343 268.32 110.923 267.98C111.513 267.64 112.158 267.47 112.858 267.47C113.508 267.47 114.088 267.62 114.598 267.92C115.118 268.21 115.523 268.61 115.813 269.12C116.113 269.63 116.263 270.205 116.263 270.845C116.263 271.155 116.223 271.485 116.143 271.835ZM112.798 268.805C112.278 268.805 111.823 268.97 111.433 269.3C111.053 269.62 110.803 270.055 110.683 270.605H114.688C114.678 270.045 114.488 269.605 114.118 269.285C113.758 268.965 113.318 268.805 112.798 268.805ZM125.707 275.165C124.987 275.165 124.327 274.995 123.727 274.655C123.137 274.315 122.667 273.85 122.317 273.26C121.977 272.67 121.807 272.02 121.807 271.31C121.807 270.6 121.977 269.955 122.317 269.375C122.667 268.785 123.142 268.32 123.742 267.98C124.342 267.64 124.997 267.47 125.707 267.47C126.387 267.47 126.992 267.625 127.522 267.935C128.062 268.235 128.492 268.65 128.812 269.18L127.702 270.05C127.172 269.3 126.512 268.925 125.722 268.925C125.282 268.925 124.887 269.03 124.537 269.24C124.187 269.45 123.912 269.74 123.712 270.11C123.512 270.47 123.412 270.87 123.412 271.31C123.412 271.76 123.512 272.17 123.712 272.54C123.912 272.9 124.187 273.185 124.537 273.395C124.887 273.605 125.282 273.71 125.722 273.71C126.502 273.71 127.162 273.34 127.702 272.6L128.812 273.455C128.482 273.985 128.047 274.405 127.507 274.715C126.977 275.015 126.377 275.165 125.707 275.165ZM133.822 275.165C133.112 275.165 132.457 274.995 131.857 274.655C131.267 274.305 130.797 273.835 130.447 273.245C130.107 272.655 129.937 272.01 129.937 271.31C129.937 270.6 130.107 269.955 130.447 269.375C130.797 268.785 131.267 268.32 131.857 267.98C132.457 267.64 133.112 267.47 133.822 267.47C134.542 267.47 135.202 267.64 135.802 267.98C136.402 268.32 136.872 268.785 137.212 269.375C137.562 269.965 137.737 270.61 137.737 271.31C137.737 272.01 137.562 272.655 137.212 273.245C136.872 273.835 136.402 274.305 135.802 274.655C135.202 274.995 134.542 275.165 133.822 275.165ZM133.822 273.71C134.252 273.71 134.642 273.605 134.992 273.395C135.342 273.185 135.617 272.9 135.817 272.54C136.017 272.17 136.117 271.765 136.117 271.325C136.117 270.875 136.017 270.465 135.817 270.095C135.617 269.725 135.342 269.435 134.992 269.225C134.642 269.015 134.257 268.91 133.837 268.91C133.407 268.91 133.017 269.015 132.667 269.225C132.317 269.435 132.042 269.725 131.842 270.095C131.642 270.465 131.542 270.875 131.542 271.325C131.542 271.775 131.642 272.185 131.842 272.555C132.042 272.915 132.312 273.2 132.652 273.41C133.002 273.61 133.392 273.71 133.822 273.71ZM143.217 267.47C144.077 267.47 144.752 267.74 145.242 268.28C145.732 268.81 145.977 269.515 145.977 270.395V275H144.402V270.605C144.402 270.095 144.252 269.685 143.952 269.375C143.662 269.055 143.277 268.895 142.797 268.895C142.307 268.895 141.902 269.055 141.582 269.375C141.272 269.695 141.117 270.105 141.117 270.605V275H139.542V267.635H141.012V268.355C141.572 267.765 142.307 267.47 143.217 267.47ZM152.55 273.665V275C152.06 275.11 151.625 275.165 151.245 275.165C150.395 275.165 149.73 274.955 149.25 274.535C148.77 274.105 148.53 273.46 148.53 272.6V269H147.33V267.635H148.53V265.7H150.12V267.635H152.31V269H150.12V272.465C150.12 272.935 150.24 273.265 150.48 273.455C150.73 273.645 151.095 273.74 151.575 273.74C151.795 273.74 152.12 273.715 152.55 273.665ZM158.362 267.635V269.03H157.882C157.262 269.03 156.747 269.21 156.337 269.57C155.927 269.92 155.722 270.42 155.722 271.07V275H154.147V267.635H155.617V268.595C155.877 268.265 156.192 268.01 156.562 267.83C156.942 267.65 157.342 267.56 157.762 267.56C157.982 267.56 158.182 267.585 158.362 267.635ZM162.46 267.47C163.37 267.47 164.1 267.735 164.65 268.265C165.2 268.795 165.475 269.555 165.475 270.545V275H164.005V274.175C163.735 274.495 163.4 274.74 163 274.91C162.6 275.08 162.15 275.165 161.65 275.165C160.88 275.165 160.26 274.97 159.79 274.58C159.32 274.19 159.085 273.675 159.085 273.035C159.085 272.395 159.33 271.885 159.82 271.505C160.31 271.125 160.97 270.935 161.8 270.935H163.885V270.455C163.885 269.945 163.745 269.555 163.465 269.285C163.195 269.015 162.81 268.88 162.31 268.88C161.9 268.88 161.535 268.97 161.215 269.15C160.895 269.33 160.58 269.605 160.27 269.975L159.355 269.045C159.725 268.515 160.175 268.12 160.705 267.86C161.235 267.6 161.82 267.47 162.46 267.47ZM161.98 273.95C162.51 273.95 162.96 273.785 163.33 273.455C163.7 273.125 163.885 272.71 163.885 272.21V272.075H161.995C161.575 272.075 161.25 272.15 161.02 272.3C160.8 272.45 160.69 272.675 160.69 272.975C160.69 273.285 160.81 273.525 161.05 273.695C161.29 273.865 161.6 273.95 161.98 273.95ZM171.102 275.165C170.382 275.165 169.722 274.995 169.122 274.655C168.532 274.315 168.062 273.85 167.712 273.26C167.372 272.67 167.202 272.02 167.202 271.31C167.202 270.6 167.372 269.955 167.712 269.375C168.062 268.785 168.537 268.32 169.137 267.98C169.737 267.64 170.392 267.47 171.102 267.47C171.782 267.47 172.387 267.625 172.917 267.935C173.457 268.235 173.887 268.65 174.207 269.18L173.097 270.05C172.567 269.3 171.907 268.925 171.117 268.925C170.677 268.925 170.282 269.03 169.932 269.24C169.582 269.45 169.307 269.74 169.107 270.11C168.907 270.47 168.807 270.87 168.807 271.31C168.807 271.76 168.907 272.17 169.107 272.54C169.307 272.9 169.582 273.185 169.932 273.395C170.282 273.605 170.677 273.71 171.117 273.71C171.897 273.71 172.557 273.34 173.097 272.6L174.207 273.455C173.877 273.985 173.442 274.405 172.902 274.715C172.372 275.015 171.772 275.165 171.102 275.165ZM180.324 273.665V275C179.834 275.11 179.399 275.165 179.019 275.165C178.169 275.165 177.504 274.955 177.024 274.535C176.544 274.105 176.304 273.46 176.304 272.6V269H175.104V267.635H176.304V265.7H177.894V267.635H180.084V269H177.894V272.465C177.894 272.935 178.014 273.265 178.254 273.455C178.504 273.645 178.869 273.74 179.349 273.74C179.569 273.74 179.894 273.715 180.324 273.665ZM190.159 267.47C190.849 267.47 191.469 267.64 192.019 267.98C192.569 268.31 192.999 268.77 193.309 269.36C193.619 269.95 193.774 270.605 193.774 271.325C193.774 272.045 193.619 272.7 193.309 273.29C192.999 273.87 192.569 274.33 192.019 274.67C191.469 275 190.854 275.165 190.174 275.165C189.634 275.165 189.139 275.065 188.689 274.865C188.239 274.655 187.874 274.36 187.594 273.98V275H186.124V263.75H187.699V268.535C187.979 268.195 188.329 267.935 188.749 267.755C189.179 267.565 189.649 267.47 190.159 267.47ZM189.904 273.725C190.324 273.725 190.704 273.625 191.044 273.425C191.394 273.215 191.664 272.93 191.854 272.57C192.054 272.2 192.154 271.78 192.154 271.31C192.154 270.84 192.054 270.425 191.854 270.065C191.654 269.705 191.384 269.425 191.044 269.225C190.704 269.015 190.324 268.91 189.904 268.91C189.514 268.91 189.149 269 188.809 269.18C188.479 269.35 188.209 269.62 187.999 269.99C187.789 270.35 187.684 270.795 187.684 271.325C187.684 271.855 187.789 272.3 187.999 272.66C188.209 273.02 188.479 273.29 188.809 273.47C189.149 273.64 189.514 273.725 189.904 273.725ZM202.217 271.835H196.727C196.827 272.435 197.092 272.91 197.522 273.26C197.962 273.6 198.497 273.77 199.127 273.77C199.897 273.77 200.612 273.48 201.272 272.9L202.022 273.98C201.182 274.77 200.202 275.165 199.082 275.165C198.332 275.165 197.657 275 197.057 274.67C196.457 274.33 195.982 273.87 195.632 273.29C195.292 272.7 195.122 272.045 195.122 271.325C195.122 270.615 195.287 269.965 195.617 269.375C195.957 268.785 196.417 268.32 196.997 267.98C197.587 267.64 198.232 267.47 198.932 267.47C199.582 267.47 200.162 267.62 200.672 267.92C201.192 268.21 201.597 268.61 201.887 269.12C202.187 269.63 202.337 270.205 202.337 270.845C202.337 271.155 202.297 271.485 202.217 271.835ZM198.872 268.805C198.352 268.805 197.897 268.97 197.507 269.3C197.127 269.62 196.877 270.055 196.757 270.605H200.762C200.752 270.045 200.562 269.605 200.192 269.285C199.832 268.965 199.392 268.805 198.872 268.805ZM208.522 273.665V275C208.032 275.11 207.597 275.165 207.217 275.165C206.367 275.165 205.702 274.955 205.222 274.535C204.742 274.105 204.502 273.46 204.502 272.6V269H203.302V267.635H204.502V265.7H206.092V267.635H208.282V269H206.092V272.465C206.092 272.935 206.212 273.265 206.452 273.455C206.702 273.645 207.067 273.74 207.547 273.74C207.767 273.74 208.092 273.715 208.522 273.665ZM221.504 267.635L218.234 275.165H217.694L215.384 270.26L213.074 275.165H212.534L209.264 267.635H210.944L212.879 272.45L215.114 267.47H215.654L217.919 272.39L219.824 267.635H221.504ZM229.258 271.835H223.768C223.868 272.435 224.133 272.91 224.563 273.26C225.003 273.6 225.538 273.77 226.168 273.77C226.938 273.77 227.653 273.48 228.313 272.9L229.063 273.98C228.223 274.77 227.243 275.165 226.123 275.165C225.373 275.165 224.698 275 224.098 274.67C223.498 274.33 223.023 273.87 222.673 273.29C222.333 272.7 222.163 272.045 222.163 271.325C222.163 270.615 222.328 269.965 222.658 269.375C222.998 268.785 223.458 268.32 224.038 267.98C224.628 267.64 225.273 267.47 225.973 267.47C226.623 267.47 227.203 267.62 227.713 267.92C228.233 268.21 228.638 268.61 228.928 269.12C229.228 269.63 229.378 270.205 229.378 270.845C229.378 271.155 229.338 271.485 229.258 271.835ZM225.913 268.805C225.393 268.805 224.938 268.97 224.548 269.3C224.168 269.62 223.918 270.055 223.798 270.605H227.803C227.793 270.045 227.603 269.605 227.233 269.285C226.873 268.965 226.433 268.805 225.913 268.805ZM237.813 271.835H232.323C232.423 272.435 232.688 272.91 233.118 273.26C233.558 273.6 234.093 273.77 234.723 273.77C235.493 273.77 236.208 273.48 236.868 272.9L237.618 273.98C236.778 274.77 235.798 275.165 234.678 275.165C233.928 275.165 233.253 275 232.653 274.67C232.053 274.33 231.578 273.87 231.228 273.29C230.888 272.7 230.718 272.045 230.718 271.325C230.718 270.615 230.883 269.965 231.213 269.375C231.553 268.785 232.013 268.32 232.593 267.98C233.183 267.64 233.828 267.47 234.528 267.47C235.178 267.47 235.758 267.62 236.268 267.92C236.788 268.21 237.193 268.61 237.483 269.12C237.783 269.63 237.933 270.205 237.933 270.845C237.933 271.155 237.893 271.485 237.813 271.835ZM234.468 268.805C233.948 268.805 233.493 268.97 233.103 269.3C232.723 269.62 232.473 270.055 232.353 270.605H236.358C236.348 270.045 236.158 269.605 235.788 269.285C235.428 268.965 234.988 268.805 234.468 268.805ZM243.413 267.47C244.273 267.47 244.948 267.74 245.438 268.28C245.928 268.81 246.173 269.515 246.173 270.395V275H244.598V270.605C244.598 270.095 244.448 269.685 244.148 269.375C243.858 269.055 243.473 268.895 242.993 268.895C242.503 268.895 242.098 269.055 241.778 269.375C241.468 269.695 241.313 270.105 241.313 270.605V275H239.738V267.635H241.208V268.355C241.768 267.765 242.503 267.47 243.413 267.47ZM252.675 265.1H255.78C256.86 265.1 257.805 265.31 258.615 265.73C259.425 266.14 260.05 266.72 260.49 267.47C260.94 268.21 261.165 269.065 261.165 270.035C261.165 270.995 260.94 271.85 260.49 272.6C260.05 273.35 259.42 273.94 258.6 274.37C257.79 274.79 256.85 275 255.78 275H252.675V265.1ZM255.765 273.575C256.525 273.575 257.19 273.425 257.76 273.125C258.33 272.825 258.765 272.405 259.065 271.865C259.375 271.325 259.53 270.715 259.53 270.035C259.53 269.335 259.375 268.725 259.065 268.205C258.765 267.675 258.33 267.265 257.76 266.975C257.2 266.685 256.535 266.54 255.765 266.54H254.265V273.575H255.765ZM262.955 267.635H264.53V275H262.955V267.635ZM263.75 265.925C263.45 265.925 263.195 265.825 262.985 265.625C262.775 265.425 262.67 265.18 262.67 264.89C262.67 264.6 262.775 264.355 262.985 264.155C263.195 263.945 263.45 263.84 263.75 263.84C264.04 263.84 264.29 263.945 264.5 264.155C264.71 264.355 264.815 264.6 264.815 264.89C264.815 265.18 264.71 265.425 264.5 265.625C264.29 265.825 264.04 265.925 263.75 265.925ZM266.808 267.635H268.383V275H266.808V267.635ZM267.603 265.925C267.303 265.925 267.048 265.825 266.838 265.625C266.628 265.425 266.523 265.18 266.523 264.89C266.523 264.6 266.628 264.355 266.838 264.155C267.048 263.945 267.303 263.84 267.603 263.84C267.893 263.84 268.143 263.945 268.353 264.155C268.563 264.355 268.668 264.6 268.668 264.89C268.668 265.18 268.563 265.425 268.353 265.625C268.143 265.825 267.893 265.925 267.603 265.925ZM273.496 267.47C274.406 267.47 275.136 267.735 275.686 268.265C276.236 268.795 276.511 269.555 276.511 270.545V275H275.041V274.175C274.771 274.495 274.436 274.74 274.036 274.91C273.636 275.08 273.186 275.165 272.686 275.165C271.916 275.165 271.296 274.97 270.826 274.58C270.356 274.19 270.121 273.675 270.121 273.035C270.121 272.395 270.366 271.885 270.856 271.505C271.346 271.125 272.006 270.935 272.836 270.935H274.921V270.455C274.921 269.945 274.781 269.555 274.501 269.285C274.231 269.015 273.846 268.88 273.346 268.88C272.936 268.88 272.571 268.97 272.251 269.15C271.931 269.33 271.616 269.605 271.306 269.975L270.391 269.045C270.761 268.515 271.211 268.12 271.741 267.86C272.271 267.6 272.856 267.47 273.496 267.47ZM273.016 273.95C273.546 273.95 273.996 273.785 274.366 273.455C274.736 273.125 274.921 272.71 274.921 272.21V272.075H273.031C272.611 272.075 272.286 272.15 272.056 272.3C271.836 272.45 271.726 272.675 271.726 272.975C271.726 273.285 271.846 273.525 272.086 273.695C272.326 273.865 272.636 273.95 273.016 273.95ZM287.617 275.165C286.667 275.165 285.792 274.94 284.992 274.49C284.202 274.04 283.572 273.425 283.102 272.645C282.642 271.865 282.412 271 282.412 270.05C282.412 269.1 282.642 268.235 283.102 267.455C283.572 266.675 284.202 266.06 284.992 265.61C285.792 265.16 286.667 264.935 287.617 264.935C288.527 264.935 289.352 265.14 290.092 265.55C290.842 265.96 291.432 266.515 291.862 267.215L290.662 268.1C290.312 267.55 289.882 267.13 289.372 266.84C288.862 266.54 288.282 266.39 287.632 266.39C286.962 266.39 286.352 266.55 285.802 266.87C285.262 267.18 284.837 267.615 284.527 268.175C284.217 268.735 284.062 269.36 284.062 270.05C284.062 270.74 284.217 271.365 284.527 271.925C284.837 272.485 285.262 272.925 285.802 273.245C286.352 273.555 286.962 273.71 287.632 273.71C288.282 273.71 288.862 273.565 289.372 273.275C289.882 272.975 290.312 272.55 290.662 272L291.862 272.885C291.442 273.585 290.857 274.14 290.107 274.55C289.367 274.96 288.537 275.165 287.617 275.165ZM293.659 267.635H295.234V275H293.659V267.635ZM294.454 265.925C294.154 265.925 293.899 265.825 293.689 265.625C293.479 265.425 293.374 265.18 293.374 264.89C293.374 264.6 293.479 264.355 293.689 264.155C293.899 263.945 294.154 263.84 294.454 263.84C294.744 263.84 294.994 263.945 295.204 264.155C295.414 264.355 295.519 264.6 295.519 264.89C295.519 265.18 295.414 265.425 295.204 265.625C294.994 265.825 294.744 265.925 294.454 265.925ZM301.891 273.665V275C301.401 275.11 300.966 275.165 300.586 275.165C299.736 275.165 299.071 274.955 298.591 274.535C298.111 274.105 297.871 273.46 297.871 272.6V269H296.671V267.635H297.871V265.7H299.461V267.635H301.651V269H299.461V272.465C299.461 272.935 299.581 273.265 299.821 273.455C300.071 273.645 300.436 273.74 300.916 273.74C301.136 273.74 301.461 273.715 301.891 273.665ZM310.298 267.635L306.713 275.84C306.403 276.54 306.033 277.05 305.603 277.37C305.173 277.7 304.643 277.865 304.013 277.865C303.603 277.865 303.198 277.815 302.798 277.715V276.38C303.258 276.42 303.548 276.44 303.668 276.44C304.038 276.44 304.353 276.36 304.613 276.2C304.873 276.05 305.093 275.77 305.273 275.36L305.573 274.67L302.633 267.635H304.328L306.443 272.99L308.618 267.635H310.298ZM320.139 267.635V269.03H319.659C319.039 269.03 318.524 269.21 318.114 269.57C317.704 269.92 317.499 270.42 317.499 271.07V275H315.924V267.635H317.394V268.595C317.654 268.265 317.969 268.01 318.339 267.83C318.719 267.65 319.119 267.56 319.539 267.56C319.759 267.56 319.959 267.585 320.139 267.635ZM328.033 271.835H322.543C322.643 272.435 322.908 272.91 323.338 273.26C323.778 273.6 324.313 273.77 324.943 273.77C325.713 273.77 326.428 273.48 327.088 272.9L327.838 273.98C326.998 274.77 326.018 275.165 324.898 275.165C324.148 275.165 323.473 275 322.873 274.67C322.273 274.33 321.798 273.87 321.448 273.29C321.108 272.7 320.938 272.045 320.938 271.325C320.938 270.615 321.103 269.965 321.433 269.375C321.773 268.785 322.233 268.32 322.813 267.98C323.403 267.64 324.048 267.47 324.748 267.47C325.398 267.47 325.978 267.62 326.488 267.92C327.008 268.21 327.413 268.61 327.703 269.12C328.003 269.63 328.153 270.205 328.153 270.845C328.153 271.155 328.113 271.485 328.033 271.835ZM324.688 268.805C324.168 268.805 323.713 268.97 323.323 269.3C322.943 269.62 322.693 270.055 322.573 270.605H326.578C326.568 270.045 326.378 269.605 326.008 269.285C325.648 268.965 325.208 268.805 324.688 268.805ZM332.237 275.165C331.607 275.165 331.037 275.035 330.527 274.775C330.017 274.515 329.597 274.17 329.267 273.74L330.167 272.75C330.487 273.09 330.812 273.35 331.142 273.53C331.482 273.71 331.847 273.8 332.237 273.8C332.577 273.8 332.857 273.73 333.077 273.59C333.307 273.45 333.422 273.245 333.422 272.975C333.422 272.755 333.337 272.585 333.167 272.465C333.007 272.345 332.747 272.21 332.387 272.06L331.637 271.745C330.987 271.475 330.502 271.18 330.182 270.86C329.872 270.54 329.717 270.12 329.717 269.6C329.717 268.94 329.962 268.42 330.452 268.04C330.942 267.66 331.562 267.47 332.312 267.47C333.372 267.47 334.222 267.85 334.862 268.61L334.007 269.585C333.777 269.345 333.512 269.16 333.212 269.03C332.912 268.9 332.602 268.835 332.282 268.835C331.972 268.835 331.727 268.895 331.547 269.015C331.367 269.135 331.277 269.31 331.277 269.54C331.277 269.73 331.347 269.885 331.487 270.005C331.637 270.125 331.892 270.26 332.252 270.41L332.957 270.695C333.657 270.985 334.167 271.3 334.487 271.64C334.807 271.97 334.967 272.395 334.967 272.915C334.967 273.625 334.707 274.18 334.187 274.58C333.667 274.97 333.017 275.165 332.237 275.165ZM336.784 267.635H338.359V275H336.784V267.635ZM337.579 265.925C337.279 265.925 337.024 265.825 336.814 265.625C336.604 265.425 336.499 265.18 336.499 264.89C336.499 264.6 336.604 264.355 336.814 264.155C337.024 263.945 337.279 263.84 337.579 263.84C337.869 263.84 338.119 263.945 338.329 264.155C338.539 264.355 338.644 264.6 338.644 264.89C338.644 265.18 338.539 265.425 338.329 265.625C338.119 265.825 337.869 265.925 337.579 265.925ZM347.821 263.75V275H346.351V273.95C346.081 274.33 345.721 274.63 345.271 274.85C344.821 275.06 344.321 275.165 343.771 275.165C343.081 275.165 342.461 275 341.911 274.67C341.371 274.33 340.946 273.87 340.636 273.29C340.326 272.7 340.171 272.045 340.171 271.325C340.171 270.605 340.326 269.95 340.636 269.36C340.946 268.77 341.376 268.31 341.926 267.98C342.476 267.64 343.091 267.47 343.771 267.47C344.281 267.47 344.746 267.565 345.166 267.755C345.596 267.935 345.951 268.195 346.231 268.535V263.75H347.821ZM344.041 273.725C344.431 273.725 344.791 273.64 345.121 273.47C345.461 273.29 345.736 273.02 345.946 272.66C346.156 272.3 346.261 271.855 346.261 271.325C346.261 270.795 346.156 270.35 345.946 269.99C345.736 269.63 345.461 269.36 345.121 269.18C344.781 269 344.421 268.91 344.041 268.91C343.621 268.91 343.236 269.015 342.886 269.225C342.546 269.425 342.276 269.705 342.076 270.065C341.876 270.425 341.776 270.84 341.776 271.31C341.776 271.78 341.871 272.2 342.061 272.57C342.261 272.93 342.531 273.215 342.871 273.425C343.221 273.625 343.611 273.725 344.041 273.725ZM356.729 271.835H351.239C351.339 272.435 351.604 272.91 352.034 273.26C352.474 273.6 353.009 273.77 353.639 273.77C354.409 273.77 355.124 273.48 355.784 272.9L356.534 273.98C355.694 274.77 354.714 275.165 353.594 275.165C352.844 275.165 352.169 275 351.569 274.67C350.969 274.33 350.494 273.87 350.144 273.29C349.804 272.7 349.634 272.045 349.634 271.325C349.634 270.615 349.799 269.965 350.129 269.375C350.469 268.785 350.929 268.32 351.509 267.98C352.099 267.64 352.744 267.47 353.444 267.47C354.094 267.47 354.674 267.62 355.184 267.92C355.704 268.21 356.109 268.61 356.399 269.12C356.699 269.63 356.849 270.205 356.849 270.845C356.849 271.155 356.809 271.485 356.729 271.835ZM353.384 268.805C352.864 268.805 352.409 268.97 352.019 269.3C351.639 269.62 351.389 270.055 351.269 270.605H355.274C355.264 270.045 355.074 269.605 354.704 269.285C354.344 268.965 353.904 268.805 353.384 268.805ZM362.329 267.47C363.189 267.47 363.864 267.74 364.354 268.28C364.844 268.81 365.089 269.515 365.089 270.395V275H363.514V270.605C363.514 270.095 363.364 269.685 363.064 269.375C362.774 269.055 362.389 268.895 361.909 268.895C361.419 268.895 361.014 269.055 360.694 269.375C360.384 269.695 360.229 270.105 360.229 270.605V275H358.654V267.635H360.124V268.355C360.684 267.765 361.419 267.47 362.329 267.47ZM371.662 273.665V275C371.172 275.11 370.737 275.165 370.357 275.165C369.507 275.165 368.842 274.955 368.362 274.535C367.882 274.105 367.642 273.46 367.642 272.6V269H366.442V267.635H367.642V265.7H369.232V267.635H371.422V269H369.232V272.465C369.232 272.935 369.352 273.265 369.592 273.455C369.842 273.645 370.207 273.74 370.687 273.74C370.907 273.74 371.232 273.715 371.662 273.665ZM380.297 267.47C381.207 267.47 381.937 267.735 382.487 268.265C383.037 268.795 383.312 269.555 383.312 270.545V275H381.842V274.175C381.572 274.495 381.237 274.74 380.837 274.91C380.437 275.08 379.987 275.165 379.487 275.165C378.717 275.165 378.097 274.97 377.627 274.58C377.157 274.19 376.922 273.675 376.922 273.035C376.922 272.395 377.167 271.885 377.657 271.505C378.147 271.125 378.807 270.935 379.637 270.935H381.722V270.455C381.722 269.945 381.582 269.555 381.302 269.285C381.032 269.015 380.647 268.88 380.147 268.88C379.737 268.88 379.372 268.97 379.052 269.15C378.732 269.33 378.417 269.605 378.107 269.975L377.192 269.045C377.562 268.515 378.012 268.12 378.542 267.86C379.072 267.6 379.657 267.47 380.297 267.47ZM379.817 273.95C380.347 273.95 380.797 273.785 381.167 273.455C381.537 273.125 381.722 272.71 381.722 272.21V272.075H379.832C379.412 272.075 379.087 272.15 378.857 272.3C378.637 272.45 378.527 272.675 378.527 272.975C378.527 273.285 378.647 273.525 378.887 273.695C379.127 273.865 379.437 273.95 379.817 273.95ZM389.179 267.47C390.039 267.47 390.714 267.74 391.204 268.28C391.694 268.81 391.939 269.515 391.939 270.395V275H390.364V270.605C390.364 270.095 390.214 269.685 389.914 269.375C389.624 269.055 389.239 268.895 388.759 268.895C388.269 268.895 387.864 269.055 387.544 269.375C387.234 269.695 387.079 270.105 387.079 270.605V275H385.504V267.635H386.974V268.355C387.534 267.765 388.269 267.47 389.179 267.47ZM401.317 263.75V275H399.847V273.95C399.577 274.33 399.217 274.63 398.767 274.85C398.317 275.06 397.817 275.165 397.267 275.165C396.577 275.165 395.957 275 395.407 274.67C394.867 274.33 394.442 273.87 394.132 273.29C393.822 272.7 393.667 272.045 393.667 271.325C393.667 270.605 393.822 269.95 394.132 269.36C394.442 268.77 394.872 268.31 395.422 267.98C395.972 267.64 396.587 267.47 397.267 267.47C397.777 267.47 398.242 267.565 398.662 267.755C399.092 267.935 399.447 268.195 399.727 268.535V263.75H401.317ZM397.537 273.725C397.927 273.725 398.287 273.64 398.617 273.47C398.957 273.29 399.232 273.02 399.442 272.66C399.652 272.3 399.757 271.855 399.757 271.325C399.757 270.795 399.652 270.35 399.442 269.99C399.232 269.63 398.957 269.36 398.617 269.18C398.277 269 397.917 268.91 397.537 268.91C397.117 268.91 396.732 269.015 396.382 269.225C396.042 269.425 395.772 269.705 395.572 270.065C395.372 270.425 395.272 270.84 395.272 271.31C395.272 271.78 395.367 272.2 395.557 272.57C395.757 272.93 396.027 273.215 396.367 273.425C396.717 273.625 397.107 273.725 397.537 273.725ZM407.904 265.1H409.494V275H407.904V265.1ZM414.316 266.525H410.986V265.1H419.251V266.525H415.906V275H414.316V266.525ZM19.42 294.165C18.79 294.165 18.22 294.035 17.71 293.775C17.2 293.515 16.78 293.17 16.45 292.74L17.35 291.75C17.67 292.09 17.995 292.35 18.325 292.53C18.665 292.71 19.03 292.8 19.42 292.8C19.76 292.8 20.04 292.73 20.26 292.59C20.49 292.45 20.605 292.245 20.605 291.975C20.605 291.755 20.52 291.585 20.35 291.465C20.19 291.345 19.93 291.21 19.57 291.06L18.82 290.745C18.17 290.475 17.685 290.18 17.365 289.86C17.055 289.54 16.9 289.12 16.9 288.6C16.9 287.94 17.145 287.42 17.635 287.04C18.125 286.66 18.745 286.47 19.495 286.47C20.555 286.47 21.405 286.85 22.045 287.61L21.19 288.585C20.96 288.345 20.695 288.16 20.395 288.03C20.095 287.9 19.785 287.835 19.465 287.835C19.155 287.835 18.91 287.895 18.73 288.015C18.55 288.135 18.46 288.31 18.46 288.54C18.46 288.73 18.53 288.885 18.67 289.005C18.82 289.125 19.075 289.26 19.435 289.41L20.14 289.695C20.84 289.985 21.35 290.3 21.67 290.64C21.99 290.97 22.15 291.395 22.15 291.915C22.15 292.625 21.89 293.18 21.37 293.58C20.85 293.97 20.2 294.165 19.42 294.165ZM28.0012 286.47C28.6912 286.47 29.3112 286.64 29.8612 286.98C30.4112 287.31 30.8412 287.77 31.1512 288.36C31.4612 288.94 31.6162 289.59 31.6162 290.31C31.6162 291.04 31.4612 291.7 31.1512 292.29C30.8412 292.87 30.4112 293.33 29.8612 293.67C29.3112 294 28.6912 294.165 28.0012 294.165C27.5012 294.165 27.0362 294.075 26.6062 293.895C26.1862 293.705 25.8312 293.44 25.5412 293.1V296.7H23.9662V286.635H25.4362V287.67C25.7062 287.29 26.0662 286.995 26.5162 286.785C26.9662 286.575 27.4612 286.47 28.0012 286.47ZM27.7462 292.725C28.1662 292.725 28.5462 292.625 28.8862 292.425C29.2262 292.215 29.4962 291.93 29.6962 291.57C29.8962 291.21 29.9962 290.795 29.9962 290.325C29.9962 289.855 29.8962 289.44 29.6962 289.08C29.5062 288.71 29.2362 288.425 28.8862 288.225C28.5462 288.015 28.1662 287.91 27.7462 287.91C27.3562 287.91 26.9912 288 26.6512 288.18C26.3212 288.35 26.0512 288.615 25.8412 288.975C25.6312 289.335 25.5262 289.78 25.5262 290.31C25.5262 290.84 25.6312 291.29 25.8412 291.66C26.0512 292.02 26.3212 292.29 26.6512 292.47C26.9912 292.64 27.3562 292.725 27.7462 292.725ZM40.0591 290.835H34.5691C34.6691 291.435 34.9341 291.91 35.3641 292.26C35.8041 292.6 36.3391 292.77 36.9691 292.77C37.7391 292.77 38.4541 292.48 39.1141 291.9L39.8641 292.98C39.0241 293.77 38.0441 294.165 36.9241 294.165C36.1741 294.165 35.4991 294 34.8991 293.67C34.2991 293.33 33.8241 292.87 33.4741 292.29C33.1341 291.7 32.9641 291.045 32.9641 290.325C32.9641 289.615 33.1291 288.965 33.4591 288.375C33.7991 287.785 34.2591 287.32 34.8391 286.98C35.4291 286.64 36.0741 286.47 36.7741 286.47C37.4241 286.47 38.0041 286.62 38.5141 286.92C39.0341 287.21 39.4391 287.61 39.7291 288.12C40.0291 288.63 40.1791 289.205 40.1791 289.845C40.1791 290.155 40.1391 290.485 40.0591 290.835ZM36.7141 287.805C36.1941 287.805 35.7391 287.97 35.3491 288.3C34.9691 288.62 34.7191 289.055 34.5991 289.605H38.6041C38.5941 289.045 38.4041 288.605 38.0341 288.285C37.6741 287.965 37.2341 287.805 36.7141 287.805ZM45.4188 294.165C44.6988 294.165 44.0388 293.995 43.4388 293.655C42.8488 293.315 42.3788 292.85 42.0288 292.26C41.6888 291.67 41.5188 291.02 41.5188 290.31C41.5188 289.6 41.6888 288.955 42.0288 288.375C42.3788 287.785 42.8538 287.32 43.4538 286.98C44.0538 286.64 44.7088 286.47 45.4188 286.47C46.0988 286.47 46.7038 286.625 47.2338 286.935C47.7738 287.235 48.2038 287.65 48.5238 288.18L47.4138 289.05C46.8838 288.3 46.2238 287.925 45.4338 287.925C44.9938 287.925 44.5988 288.03 44.2488 288.24C43.8988 288.45 43.6238 288.74 43.4238 289.11C43.2238 289.47 43.1238 289.87 43.1238 290.31C43.1238 290.76 43.2238 291.17 43.4238 291.54C43.6238 291.9 43.8988 292.185 44.2488 292.395C44.5988 292.605 44.9938 292.71 45.4338 292.71C46.2138 292.71 46.8738 292.34 47.4138 291.6L48.5238 292.455C48.1938 292.985 47.7588 293.405 47.2188 293.715C46.6888 294.015 46.0888 294.165 45.4188 294.165ZM50.2601 286.635H51.8351V294H50.2601V286.635ZM51.0551 284.925C50.7551 284.925 50.5001 284.825 50.2901 284.625C50.0801 284.425 49.9751 284.18 49.9751 283.89C49.9751 283.6 50.0801 283.355 50.2901 283.155C50.5001 282.945 50.7551 282.84 51.0551 282.84C51.3451 282.84 51.5951 282.945 51.8051 283.155C52.0151 283.355 52.1201 283.6 52.1201 283.89C52.1201 284.18 52.0151 284.425 51.8051 284.625C51.5951 284.825 51.3451 284.925 51.0551 284.925ZM56.9477 286.47C57.8577 286.47 58.5877 286.735 59.1377 287.265C59.6877 287.795 59.9627 288.555 59.9627 289.545V294H58.4927V293.175C58.2227 293.495 57.8877 293.74 57.4877 293.91C57.0877 294.08 56.6377 294.165 56.1377 294.165C55.3677 294.165 54.7477 293.97 54.2777 293.58C53.8077 293.19 53.5727 292.675 53.5727 292.035C53.5727 291.395 53.8177 290.885 54.3077 290.505C54.7977 290.125 55.4577 289.935 56.2877 289.935H58.3727V289.455C58.3727 288.945 58.2327 288.555 57.9527 288.285C57.6827 288.015 57.2977 287.88 56.7977 287.88C56.3877 287.88 56.0227 287.97 55.7027 288.15C55.3827 288.33 55.0677 288.605 54.7577 288.975L53.8427 288.045C54.2127 287.515 54.6627 287.12 55.1927 286.86C55.7227 286.6 56.3077 286.47 56.9477 286.47ZM56.4677 292.95C56.9977 292.95 57.4477 292.785 57.8177 292.455C58.1877 292.125 58.3727 291.71 58.3727 291.21V291.075H56.4827C56.0627 291.075 55.7377 291.15 55.5077 291.3C55.2877 291.45 55.1777 291.675 55.1777 291.975C55.1777 292.285 55.2977 292.525 55.5377 292.695C55.7777 292.865 56.0877 292.95 56.4677 292.95ZM62.1546 282.75H63.7296V294H62.1546V282.75ZM66.0072 286.635H67.5822V294H66.0072V286.635ZM66.8022 284.925C66.5022 284.925 66.2472 284.825 66.0372 284.625C65.8272 284.425 65.7222 284.18 65.7222 283.89C65.7222 283.6 65.8272 283.355 66.0372 283.155C66.2472 282.945 66.5022 282.84 66.8022 282.84C67.0922 282.84 67.3422 282.945 67.5522 283.155C67.7622 283.355 67.8672 283.6 67.8672 283.89C67.8672 284.18 67.7622 284.425 67.5522 284.625C67.3422 284.825 67.0922 284.925 66.8022 284.925ZM72.1397 294.165C71.5097 294.165 70.9397 294.035 70.4297 293.775C69.9197 293.515 69.4997 293.17 69.1697 292.74L70.0697 291.75C70.3897 292.09 70.7147 292.35 71.0447 292.53C71.3847 292.71 71.7497 292.8 72.1397 292.8C72.4797 292.8 72.7597 292.73 72.9797 292.59C73.2097 292.45 73.3247 292.245 73.3247 291.975C73.3247 291.755 73.2397 291.585 73.0697 291.465C72.9097 291.345 72.6497 291.21 72.2897 291.06L71.5397 290.745C70.8897 290.475 70.4047 290.18 70.0847 289.86C69.7747 289.54 69.6197 289.12 69.6197 288.6C69.6197 287.94 69.8647 287.42 70.3547 287.04C70.8447 286.66 71.4647 286.47 72.2147 286.47C73.2747 286.47 74.1247 286.85 74.7647 287.61L73.9097 288.585C73.6797 288.345 73.4147 288.16 73.1147 288.03C72.8147 287.9 72.5047 287.835 72.1847 287.835C71.8747 287.835 71.6297 287.895 71.4497 288.015C71.2697 288.135 71.1797 288.31 71.1797 288.54C71.1797 288.73 71.2497 288.885 71.3897 289.005C71.5397 289.125 71.7947 289.26 72.1547 289.41L72.8597 289.695C73.5597 289.985 74.0697 290.3 74.3897 290.64C74.7097 290.97 74.8697 291.395 74.8697 291.915C74.8697 292.625 74.6097 293.18 74.0897 293.58C73.5697 293.97 72.9197 294.165 72.1397 294.165ZM81.0659 292.665V294C80.5759 294.11 80.1409 294.165 79.7609 294.165C78.9109 294.165 78.2459 293.955 77.7659 293.535C77.2859 293.105 77.0459 292.46 77.0459 291.6V288H75.8459V286.635H77.0459V284.7H78.6359V286.635H80.8259V288H78.6359V291.465C78.6359 291.935 78.7559 292.265 78.9959 292.455C79.2459 292.645 79.6109 292.74 80.0909 292.74C80.3109 292.74 80.6359 292.715 81.0659 292.665Z" fill="white"/>
<defs>
<linearGradient id="paint0_linear_1_500" x1="269.069" y1="147.299" x2="268.98" y2="142.56" gradientUnits="userSpaceOnUse">
<stop stop-color="#353957"/>
<stop offset="1" stop-color="#615376"/>
</linearGradient>
</defs>
</svg>
