<svg width="723" height="76" viewBox="0 0 723 76" fill="none" xmlns="http://www.w3.org/2000/svg">
<g clip-path="url(#clip0_1_51)">
<path d="M531.605 16.2702L529.258 15.3186C527.962 14.8428 527.477 14.2084 527.477 13.4154C527.477 12.5431 528.367 12.0673 529.258 12.0673C530.795 12.0673 531.848 13.0189 532.819 14.367L536.138 11.988C535.005 9.68834 532.738 8.02304 529.258 8.02304C525.129 8.02304 522.216 10.3227 522.216 13.8912C522.216 16.6667 524.077 18.4907 527.315 19.8388L529.419 20.7111C530.795 21.3455 531.443 21.742 531.443 22.6936C531.443 23.6452 530.634 24.3589 529.339 24.3589C527.072 24.3589 525.858 22.6936 524.806 21.4248L521.244 24.0417C522.701 26.7379 525.615 28.4825 529.258 28.4825C533.386 28.4825 536.623 26.1828 536.623 22.2971C536.704 19.363 534.924 17.6976 531.605 16.2702Z" fill="white"/>
<path d="M574.664 15.1588L570.374 8.25973H564.546L572.074 20.5512V28.0848H577.335V20.4719L584.782 8.25973H578.954L574.664 15.1588Z" fill="white"/>
<path d="M596.6 19.5996H602.914V16.0311H596.6V12.9384H605.423V8.25973H591.339V28.0848H605.747V23.406H596.6V19.5996Z" fill="white"/>
<path d="M627.361 18.5681L616.272 7.94187H614.168V28.0841H619.51V17.6165L630.518 28.4013H632.623V8.25907H627.361V18.5681Z" fill="white"/>
<path d="M660.469 8.25973H654.317L647.68 16.8241V8.25973H642.418V28.0848H647.68V18.648L655.369 28.0848H661.602L653.508 17.6964L660.469 8.25973Z" fill="white"/>
<path d="M676.169 7.94187C670.18 7.94187 665.404 12.3827 665.404 18.1716C665.404 24.0398 670.18 28.4013 676.169 28.4013C682.159 28.4013 687.097 23.9605 687.097 18.1716C687.097 12.3827 682.24 7.94187 676.169 7.94187ZM676.25 23.7226C673.013 23.7226 670.827 21.5815 670.827 18.1716C670.827 14.841 673.013 12.6206 676.25 12.6206C679.407 12.6206 681.755 14.841 681.755 18.1716C681.755 21.5815 679.326 23.7226 676.25 23.7226Z" fill="white"/>
<path d="M550.87 8.09995L541.642 28.0836H547.308L548.199 25.8632H556.293L557.184 28.0836H562.85L553.379 8.09995H550.87ZM549.413 22.4533L552.084 15.4749H552.246L554.917 22.4533H549.413Z" fill="white"/>
<path d="M540.428 38.1555H534.357L527.639 46.7199V38.1555H522.377V57.9012H527.639V48.4645L535.328 57.9012H541.561L533.467 47.5129L540.428 38.1555Z" fill="white"/>
<path d="M632.056 49.4149H638.288V45.8464H632.056V42.7537H640.798V38.1543H626.794V57.9H641.202V53.2213H632.056V49.4149Z" fill="white"/>
<path d="M662.816 48.384L651.727 37.7578H649.623V57.9H654.884V47.4324L665.973 58.2965H668.078V38.1543H662.816V48.384Z" fill="white"/>
<path d="M695.842 38.1543H689.771L683.053 46.7187V38.1543H677.792V57.9H683.053V48.4633L690.743 57.9H696.975L688.962 47.5117L695.842 38.1543Z" fill="white"/>
<path d="M711.625 37.7578C705.635 37.7578 700.859 42.1986 700.859 47.9875C700.859 53.8557 705.635 58.2172 711.625 58.2172C717.615 58.2172 722.552 53.7764 722.552 47.9875C722.552 42.1986 717.615 37.7578 711.625 37.7578ZM711.625 53.5385C708.387 53.5385 706.202 51.3974 706.202 47.9875C706.202 44.6569 708.387 42.4365 711.625 42.4365C714.782 42.4365 717.129 44.6569 717.129 47.9875C717.129 51.3974 714.782 53.5385 711.625 53.5385Z" fill="white"/>
<path d="M561.471 46.1648H553.701V38.1555H548.439V57.9012H553.701V50.3677H561.471V57.9012H566.732V38.1555H561.471V46.1648Z" fill="white"/>
<path d="M617.402 44.8958C617.402 40.6929 614.002 38.076 609.631 38.076H601.294V57.8217H606.555V51.7156H609.146L613.274 57.8217H619.183L614.245 50.4468C616.188 49.4159 617.402 47.4334 617.402 44.8958ZM609.631 47.2748H606.555V42.5961H609.631C611.088 42.5961 612.06 43.5477 612.06 44.8958C612.06 46.3232 611.169 47.2748 609.631 47.2748Z" fill="white"/>
<path d="M582.44 37.9162L573.212 57.8998H578.878L579.769 55.6794H587.863L588.753 57.8998H594.42L584.949 37.9162H582.44ZM580.983 52.3488L583.573 45.529H583.735L586.406 52.3488H580.983Z" fill="white"/>
<path d="M488.38 30.1466L498.498 18.7274C499.064 20.2341 499.469 21.9787 499.469 23.8819H502.221C502.221 23.1682 502.14 22.5338 502.059 21.8201C501.816 19.9169 501.331 18.1723 500.521 16.507L504.811 12.1455L500.521 8.4184L497.122 12.1455C494.208 9.4493 489.918 7.784 484.737 7.784C479.395 7.784 475.024 9.4493 471.948 12.3041L468.306 8.4977L466.201 10.4802L469.925 14.4452C467.982 17.0621 467.011 19.9962 467.011 23.5647H469.925C469.925 20.6306 470.653 18.4895 472.029 16.507L496.798 43.1518C495.827 48.8614 492.265 53.4608 484.737 53.4608C476.562 53.4608 472.029 47.5133 472.029 40.5349H466.768C466.768 51.0818 473.405 58.4568 484.737 58.4568C496.636 58.4568 502.302 50.4474 502.302 40.2177H497.688L488.38 30.1466ZM484.737 10.3216C488.785 10.3216 492.67 11.6697 495.422 14.2073L484.656 26.1023L473.81 14.3659C476.643 11.749 480.609 10.3216 484.737 10.3216Z" fill="white"/>
</g>
<path d="M427.432 31.5305C429.393 33.6353 430.373 36.3023 430.373 39.5315C430.373 42.7608 429.393 45.4422 427.432 47.5758C425.472 49.6806 422.992 50.733 419.993 50.733C416.966 50.733 414.674 49.6806 413.117 47.5758V50.214H407.754V17.7773H413.593V30.8818C415.149 29.1806 417.283 28.3301 419.993 28.3301C422.992 28.3301 425.472 29.3969 427.432 31.5305ZM424.448 39.4883C424.448 37.7583 423.915 36.3455 422.848 35.2499C421.81 34.1542 420.498 33.6064 418.912 33.6064C417.355 33.6064 416.058 34.1398 415.02 35.2066C414.011 36.2446 413.506 37.6862 413.506 39.5315C413.506 41.3768 414.011 42.8184 415.02 43.8564C416.058 44.8944 417.355 45.4134 418.912 45.4134C420.527 45.4134 421.853 44.8655 422.891 43.7699C423.929 42.6743 424.448 41.2471 424.448 39.4883Z" fill="white"/>
<path d="M449.149 28.8058H455.29L445.041 52.0737C444.06 54.2938 442.892 55.9228 441.537 56.9608C440.182 57.9988 438.51 58.5178 436.52 58.5178C435.31 58.5178 434.055 58.3448 432.758 57.9988V53.1117C433.94 53.227 434.776 53.2847 435.266 53.2847C436.362 53.2847 437.256 53.0684 437.948 52.6359C438.64 52.2034 439.231 51.4538 439.721 50.387L440.37 48.9165L432.152 28.8058H438.337L443.57 42.8617L449.149 28.8058Z" fill="white"/>
<path d="M78.1962 66.3486V74.3974C75.6145 75.0555 72.6278 75.3845 69.2362 75.3845C62.4023 75.3845 56.0999 73.9165 50.329 70.9805C44.6088 68.095 39.7745 63.8428 35.826 58.2239C32.9912 59.0844 30.1817 59.5147 27.3975 59.5147C20.1586 59.6666 13.8816 57.1608 8.56631 51.9974C3.30168 46.834 0.719982 40.6835 0.821225 33.5459C0.719982 26.4083 3.30168 20.2577 8.56631 15.0944C13.8816 9.93096 20.1586 7.4252 27.3975 7.57706C34.6364 7.4252 40.9134 9.93096 46.2287 15.0944C51.5946 20.2577 54.2269 26.4083 54.1256 33.5459C54.1256 37.5956 53.2651 41.3669 51.544 44.8598C49.8228 48.3527 47.4183 51.314 44.3304 53.7439C47.722 58.1985 51.5693 61.4636 55.8721 63.5391C60.2255 65.6146 65.3383 66.6523 71.2104 66.6523C72.6278 66.6523 74.9564 66.5511 78.1962 66.3486ZM27.4734 50.0232C32.08 50.0232 35.9019 48.4792 38.9392 45.3913C42.0271 42.3034 43.5711 38.3549 43.5711 33.5459C43.5711 28.7875 42.0271 24.8643 38.9392 21.7764C35.9019 18.6379 32.08 17.0686 27.4734 17.0686C22.8163 17.0686 18.969 18.6125 15.9317 21.7005C12.8944 24.7884 11.3758 28.7368 11.3758 33.5459C11.3758 38.3549 12.8944 42.3034 15.9317 45.3913C18.969 48.4792 22.8163 50.0232 27.4734 50.0232Z" fill="white"/>
<path d="M61.7432 42.0503V21.0171H71.994V42.8855C71.994 45.0623 72.6521 46.8087 73.9683 48.1249C75.3351 49.441 77.0562 50.0991 79.1317 50.0991C81.1565 50.0991 82.827 49.441 84.1432 48.1249C85.4594 46.7581 86.1174 45.0116 86.1174 42.8855V21.0171H96.3683V42.0503C96.3683 47.2137 94.7231 51.4153 91.4327 54.655C88.1929 57.8948 84.0926 59.5147 79.1317 59.5147C74.0695 59.5147 69.8933 57.9201 66.6029 54.731C63.3631 51.4912 61.7432 47.2643 61.7432 42.0503Z" fill="white"/>
<path d="M106.169 58.6035V21.0171H116.42V58.6035H106.169ZM104.727 7.34927C104.727 5.52689 105.36 4.00825 106.625 2.79333C107.891 1.57842 109.435 0.970958 111.257 0.970958C113.079 0.970958 114.623 1.57842 115.889 2.79333C117.205 4.00825 117.863 5.52689 117.863 7.34927C117.863 9.12102 117.205 10.6144 115.889 11.8293C114.623 13.0442 113.079 13.6516 111.257 13.6516C109.435 13.6516 107.891 13.0442 106.625 11.8293C105.36 10.6144 104.727 9.12102 104.727 7.34927Z" fill="white"/>
<path d="M124.435 39.7723C124.435 34.3052 126.384 29.6733 130.282 25.8767C134.18 22.0801 138.938 20.1818 144.557 20.1818C151.948 20.1818 157.39 23.2697 160.883 29.4455L153.745 34.9886C151.214 31.3438 148.202 29.5215 144.709 29.5215C141.824 29.5215 139.445 30.5086 137.572 32.4828C135.749 34.4064 134.838 36.8363 134.838 39.7723C134.838 42.759 135.749 45.2394 137.572 47.2137C139.445 49.1373 141.824 50.0991 144.709 50.0991C148.202 50.0991 151.214 48.302 153.745 44.7079L160.883 50.175C159.212 53.1111 156.96 55.4144 154.125 57.0849C151.341 58.7048 148.151 59.5147 144.557 59.5147C139.04 59.6159 134.281 57.7176 130.282 53.8198C126.283 49.8713 124.334 45.1888 124.435 39.7723Z" fill="white"/>
<path d="M205.513 58.6035H193.819L178.708 37.7981V58.6035H168.458V1.65435H178.708V37.0388L192.224 21.0171H204.374L190.25 37.6462L205.513 58.6035Z" fill="white"/>
<path d="M211.63 58.6035V8.48825H228.032C236.03 8.387 242.611 10.6903 247.774 15.3981C252.938 20.0553 255.469 26.0539 255.367 33.394C255.469 40.6835 252.912 46.7328 247.698 51.5418C242.484 56.3509 235.929 58.7048 228.032 58.6035H211.63ZM221.881 49.3398H227.956C233.018 49.3398 237.093 47.8971 240.181 45.0116C243.269 42.0756 244.813 38.2031 244.813 33.394C244.813 28.5344 243.294 24.7124 240.257 21.9283C237.22 19.1441 233.119 17.752 227.956 17.752H221.881V49.3398Z" fill="white"/>
<path d="M286.456 21.0171V30.053H283.723C280.584 30.053 278.104 30.8883 276.281 32.5588C274.51 34.2293 273.624 36.6591 273.624 39.8483V58.6035H263.373V21.0171H272.788V25.4971C275.421 22.2067 278.863 20.5615 283.115 20.5615C284.381 20.5615 285.494 20.7133 286.456 21.0171Z" fill="white"/>
<path d="M323.582 36.2794V58.6035H314.166V54.9588C311.23 57.9961 307.408 59.5147 302.7 59.5147C298.752 59.5147 295.588 58.477 293.209 56.4015C290.88 54.326 289.716 51.6178 289.716 48.2767C289.716 44.8851 290.982 42.2275 293.513 40.3039C296.094 38.3296 299.562 37.3425 303.915 37.3425H313.331V35.672C313.331 33.5459 312.723 31.926 311.509 30.8123C310.344 29.648 308.623 29.0659 306.345 29.0659C304.472 29.0659 302.776 29.4709 301.258 30.2808C299.739 31.0907 298.119 32.4069 296.398 34.2293L291.083 27.9269C295.436 22.7635 300.903 20.1818 307.484 20.1818C312.445 20.1818 316.368 21.5992 319.254 24.434C322.139 27.2182 323.582 31.1667 323.582 36.2794ZM313.331 44.5561V44.1005H305.282C301.789 44.1005 300.043 45.366 300.043 47.8971C300.043 49.1626 300.524 50.175 301.486 50.9344C302.498 51.6431 303.814 51.9974 305.434 51.9974C307.712 51.9974 309.585 51.314 311.053 49.9472C312.572 48.5298 313.331 46.7328 313.331 44.5561Z" fill="white"/>
<path d="M345.444 15.7777V21.0171H353.721V29.6733H345.444V58.6035H335.194V29.6733H329.878V21.0171H335.194V14.8666C335.194 10.2094 336.459 6.69119 338.99 4.31198C341.521 1.93277 345.09 0.743164 349.697 0.743164C351.62 0.743164 353.493 1.02158 355.316 1.57842V10.1588C354.202 10.0069 353.189 9.93096 352.278 9.93096C349.899 9.93096 348.153 10.3866 347.039 11.2977C345.976 12.2089 345.444 13.7023 345.444 15.7777Z" fill="white"/>
<path d="M381.619 50.0232V58.6035C379.189 59.211 376.835 59.5147 374.557 59.5147C369.748 59.5147 366.028 58.3251 363.395 55.9459C360.814 53.5667 359.523 50.0485 359.523 45.3913V29.6733H353.6V21.0171H359.523V11.5255H369.774V21.0171H380.404V29.6733H369.774V44.4801C369.774 46.6062 370.305 48.1249 371.368 49.0361C372.482 49.8966 374.279 50.3269 376.759 50.3269C377.62 50.3269 379.24 50.2257 381.619 50.0232Z" fill="white"/>
<defs>
<clipPath id="clip0_1_51">
<rect width="256.347" height="50.8076" fill="white" transform="translate(466.201 7.78418)"/>
</clipPath>
</defs>
</svg>
