<svg width="723" height="76" viewBox="0 0 723 76" fill="none" xmlns="http://www.w3.org/2000/svg">
<g clip-path="url(#clip0_1_26)">
<path d="M531.605 16.1101L529.258 15.1585C527.962 14.6827 527.477 14.0483 527.477 13.2553C527.477 12.383 528.367 11.9072 529.258 11.9072C530.795 11.9072 531.848 12.8588 532.819 14.2069L536.138 11.8279C535.005 9.52819 532.738 7.86289 529.258 7.86289C525.129 7.86289 522.216 10.1626 522.216 13.7311C522.216 16.5066 524.077 18.3305 527.315 19.6786L529.419 20.5509C530.795 21.1853 531.443 21.5818 531.443 22.5334C531.443 23.485 530.634 24.1987 529.339 24.1987C527.072 24.1987 525.858 22.5334 524.806 21.2646L521.244 23.8815C522.701 26.5777 525.615 28.3223 529.258 28.3223C533.386 28.3223 536.623 26.0226 536.623 22.1369C536.704 19.2028 534.924 17.5375 531.605 16.1101Z" fill="#35364E"/>
<path d="M574.664 14.9987L570.374 8.09958H564.546L572.074 20.3911V27.9246H577.335V20.3118L584.782 8.09958H578.954L574.664 14.9987Z" fill="#35364E"/>
<path d="M596.6 19.4395H602.914V15.871H596.6V12.7783H605.423V8.09958H591.339V27.9246H605.747V23.2459H596.6V19.4395Z" fill="#35364E"/>
<path d="M627.361 18.4079L616.272 7.78171H614.168V27.9239H619.51V17.4563L630.518 28.2411H632.623V8.09891H627.361V18.4079Z" fill="#35364E"/>
<path d="M660.469 8.09958H654.317L647.68 16.664V8.09958H642.418V27.9246H647.68V18.4879L655.369 27.9246H661.602L653.508 17.5363L660.469 8.09958Z" fill="#35364E"/>
<path d="M676.169 7.78171C670.18 7.78171 665.404 12.2225 665.404 18.0114C665.404 23.8796 670.18 28.2411 676.169 28.2411C682.159 28.2411 687.097 23.8003 687.097 18.0114C687.097 12.2225 682.24 7.78171 676.169 7.78171ZM676.25 23.5624C673.013 23.5624 670.827 21.4213 670.827 18.0114C670.827 14.6808 673.013 12.4604 676.25 12.4604C679.407 12.4604 681.755 14.6808 681.755 18.0114C681.755 21.4213 679.326 23.5624 676.25 23.5624Z" fill="#35364E"/>
<path d="M550.87 7.93979L541.642 27.9234H547.308L548.199 25.703H556.293L557.184 27.9234H562.85L553.379 7.93979H550.87ZM549.413 22.2931L552.084 15.3147H552.246L554.917 22.2931H549.413Z" fill="#35364E"/>
<path d="M540.428 37.9953H534.357L527.639 46.5597V37.9953H522.377V57.741H527.639V48.3043L535.328 57.741H541.561L533.467 47.3527L540.428 37.9953Z" fill="#35364E"/>
<path d="M632.056 49.2548H638.288V45.6863H632.056V42.5936H640.798V37.9941H626.794V57.7399H641.202V53.0612H632.056V49.2548Z" fill="#35364E"/>
<path d="M662.816 48.2239L651.727 37.5977H649.623V57.7399H654.884V47.2723L665.973 58.1364H668.078V37.9942H662.816V48.2239Z" fill="#35364E"/>
<path d="M695.842 37.9941H689.771L683.053 46.5586V37.9941H677.792V57.7399H683.053V48.3032L690.743 57.7399H696.975L688.962 47.3516L695.842 37.9941Z" fill="#35364E"/>
<path d="M711.625 37.5977C705.635 37.5977 700.859 42.0385 700.859 47.8274C700.859 53.6956 705.635 58.0571 711.625 58.0571C717.615 58.0571 722.552 53.6163 722.552 47.8274C722.552 42.0385 717.615 37.5977 711.625 37.5977ZM711.625 53.3784C708.387 53.3784 706.202 51.2373 706.202 47.8274C706.202 44.4968 708.387 42.2764 711.625 42.2764C714.782 42.2764 717.129 44.4968 717.129 47.8274C717.129 51.2373 714.782 53.3784 711.625 53.3784Z" fill="#35364E"/>
<path d="M561.471 46.0046H553.701V37.9953H548.439V57.741H553.701V50.2075H561.471V57.741H566.732V37.9953H561.471V46.0046Z" fill="#35364E"/>
<path d="M617.402 44.7356C617.402 40.5327 614.002 37.9158 609.631 37.9158H601.294V57.6615H606.555V51.5554H609.146L613.274 57.6615H619.183L614.245 50.2866C616.188 49.2557 617.402 47.2732 617.402 44.7356ZM609.631 47.1146H606.555V42.4359H609.631C611.088 42.4359 612.06 43.3875 612.06 44.7356C612.06 46.163 611.169 47.1146 609.631 47.1146Z" fill="#35364E"/>
<path d="M582.44 37.756L573.212 57.7397H578.878L579.769 55.5193H587.863L588.753 57.7397H594.42L584.949 37.756H582.44ZM580.983 52.1887L583.573 45.3688H583.735L586.406 52.1887H580.983Z" fill="#35364E"/>
<path d="M488.38 29.9865L498.498 18.5673C499.064 20.074 499.469 21.8186 499.469 23.7218H502.221C502.221 23.0081 502.14 22.3737 502.059 21.66C501.816 19.7568 501.331 18.0122 500.521 16.3469L504.811 11.9853L500.521 8.25824L497.122 11.9853C494.208 9.28915 489.918 7.62384 484.737 7.62384C479.395 7.62384 475.024 9.28915 471.948 12.1439L468.306 8.33754L466.201 10.32L469.925 14.2851C467.982 16.902 467.011 19.8361 467.011 23.4046H469.925C469.925 20.4705 470.653 18.3294 472.029 16.3469L496.798 42.9917C495.827 48.7013 492.265 53.3007 484.737 53.3007C476.562 53.3007 472.029 47.3532 472.029 40.3748H466.768C466.768 50.9217 473.405 58.2966 484.737 58.2966C496.636 58.2966 502.302 50.2873 502.302 40.0576H497.688L488.38 29.9865ZM484.737 10.1614C488.785 10.1614 492.67 11.5095 495.422 14.0472L484.656 25.9422L473.81 14.2058C476.643 11.5888 480.609 10.1614 484.737 10.1614Z" fill="#35364E"/>
</g>
<path d="M427.432 31.3703C429.393 33.4751 430.373 36.1421 430.373 39.3714C430.373 42.6006 429.393 45.282 427.432 47.4157C425.472 49.5204 422.992 50.5728 419.993 50.5728C416.966 50.5728 414.674 49.5204 413.117 47.4157V50.0538H407.754V17.6172H413.593V30.7216C415.149 29.0205 417.283 28.1699 419.993 28.1699C422.992 28.1699 425.472 29.2367 427.432 31.3703ZM424.448 39.3281C424.448 37.5982 423.915 36.1854 422.848 35.0897C421.81 33.9941 420.498 33.4463 418.912 33.4463C417.355 33.4463 416.058 33.9797 415.02 35.0465C414.011 36.0845 413.506 37.5261 413.506 39.3714C413.506 41.2166 414.011 42.6583 415.02 43.6963C416.058 44.7342 417.355 45.2532 418.912 45.2532C420.527 45.2532 421.853 44.7054 422.891 43.6098C423.929 42.5141 424.448 41.0869 424.448 39.3281Z" fill="#35364E"/>
<path d="M449.149 28.6456H455.29L445.041 51.9135C444.06 54.1336 442.892 55.7627 441.537 56.8007C440.182 57.8386 438.51 58.3576 436.52 58.3576C435.31 58.3576 434.055 58.1846 432.758 57.8386V52.9515C433.94 53.0668 434.776 53.1245 435.266 53.1245C436.362 53.1245 437.256 52.9083 437.948 52.4758C438.64 52.0433 439.231 51.2936 439.721 50.2268L440.37 48.7564L432.152 28.6456H438.337L443.57 42.7015L449.149 28.6456Z" fill="#35364E"/>
<path d="M78.1962 66.1884V74.2373C75.6145 74.8953 72.6278 75.2244 69.2362 75.2244C62.4023 75.2244 56.0999 73.7564 50.329 70.8203C44.6088 67.9349 39.7745 63.6827 35.826 58.0637C32.9912 58.9243 30.1817 59.3545 27.3975 59.3545C20.1586 59.5064 13.8816 57.0006 8.56631 51.8373C3.30168 46.6739 0.719982 40.5234 0.821225 33.3857C0.719982 26.2481 3.30168 20.0976 8.56631 14.9342C13.8816 9.77081 20.1586 7.26504 27.3975 7.41691C34.6364 7.26504 40.9134 9.77081 46.2287 14.9342C51.5946 20.0976 54.2269 26.2481 54.1256 33.3857C54.1256 37.4354 53.2651 41.2067 51.544 44.6996C49.8228 48.1925 47.4183 51.1539 44.3304 53.5837C47.722 58.0384 51.5693 61.3035 55.8721 63.379C60.2255 65.4544 65.3383 66.4922 71.2104 66.4922C72.6278 66.4922 74.9564 66.3909 78.1962 66.1884ZM27.4734 49.863C32.08 49.863 35.9019 48.3191 38.9392 45.2312C42.0271 42.1432 43.5711 38.1948 43.5711 33.3857C43.5711 28.6273 42.0271 24.7041 38.9392 21.6162C35.9019 18.4777 32.08 16.9084 27.4734 16.9084C22.8163 16.9084 18.969 18.4524 15.9317 21.5403C12.8944 24.6282 11.3758 28.5767 11.3758 33.3857C11.3758 38.1948 12.8944 42.1432 15.9317 45.2312C18.969 48.3191 22.8163 49.863 27.4734 49.863Z" fill="#35364E"/>
<path d="M61.7432 41.8901V20.8569H71.994V42.7254C71.994 44.9021 72.6521 46.6486 73.9683 47.9647C75.3351 49.2809 77.0562 49.9389 79.1317 49.9389C81.1565 49.9389 82.827 49.2809 84.1432 47.9647C85.4594 46.5979 86.1174 44.8515 86.1174 42.7254V20.8569H96.3683V41.8901C96.3683 47.0535 94.7231 51.2551 91.4327 54.4949C88.1929 57.7347 84.0926 59.3545 79.1317 59.3545C74.0695 59.3545 69.8933 57.76 66.6029 54.5708C63.3631 51.331 61.7432 47.1041 61.7432 41.8901Z" fill="#35364E"/>
<path d="M106.169 58.4434V20.8569H116.42V58.4434H106.169ZM104.727 7.18911C104.727 5.36674 105.36 3.84809 106.625 2.63318C107.891 1.41826 109.435 0.810802 111.257 0.810802C113.079 0.810802 114.623 1.41826 115.889 2.63318C117.205 3.84809 117.863 5.36674 117.863 7.18911C117.863 8.96086 117.205 10.4542 115.889 11.6691C114.623 12.884 113.079 13.4915 111.257 13.4915C109.435 13.4915 107.891 12.884 106.625 11.6691C105.36 10.4542 104.727 8.96086 104.727 7.18911Z" fill="#35364E"/>
<path d="M124.435 39.6122C124.435 34.145 126.384 29.5132 130.282 25.7166C134.18 21.92 138.938 20.0217 144.557 20.0217C151.948 20.0217 157.39 23.1096 160.883 29.2854L153.745 34.8284C151.214 31.1837 148.202 29.3613 144.709 29.3613C141.824 29.3613 139.445 30.3484 137.572 32.3227C135.749 34.2463 134.838 36.6761 134.838 39.6122C134.838 42.5988 135.749 45.0793 137.572 47.0535C139.445 48.9771 141.824 49.9389 144.709 49.9389C148.202 49.9389 151.214 48.1419 153.745 44.5478L160.883 50.0149C159.212 52.9509 156.96 55.2542 154.125 56.9247C151.341 58.5446 148.151 59.3545 144.557 59.3545C139.04 59.4558 134.281 57.5575 130.282 53.6596C126.283 49.7112 124.334 45.0287 124.435 39.6122Z" fill="#35364E"/>
<path d="M205.513 58.4434H193.819L178.708 37.6379V58.4434H168.458V1.49419H178.708V36.8786L192.224 20.8569H204.374L190.25 37.4861L205.513 58.4434Z" fill="#35364E"/>
<path d="M211.63 58.4434V8.32809H228.032C236.03 8.22685 242.611 10.5301 247.774 15.2379C252.938 19.8951 255.469 25.8937 255.367 33.2339C255.469 40.5234 252.912 46.5726 247.698 51.3817C242.484 56.1907 235.929 58.5446 228.032 58.4434H211.63ZM221.881 49.1796H227.956C233.018 49.1796 237.093 47.7369 240.181 44.8515C243.269 41.9154 244.813 38.0429 244.813 33.2339C244.813 28.3742 243.294 24.5523 240.257 21.7681C237.22 18.9839 233.119 17.5918 227.956 17.5918H221.881V49.1796Z" fill="#35364E"/>
<path d="M286.456 20.8569V29.8928H283.723C280.584 29.8928 278.104 30.7281 276.281 32.3986C274.51 34.0691 273.624 36.4989 273.624 39.6881V58.4434H263.373V20.8569H272.788V25.3369C275.421 22.0465 278.863 20.4013 283.115 20.4013C284.381 20.4013 285.494 20.5532 286.456 20.8569Z" fill="#35364E"/>
<path d="M323.582 36.1193V58.4434H314.166V54.7986C311.23 57.8359 307.408 59.3545 302.7 59.3545C298.752 59.3545 295.588 58.3168 293.209 56.2413C290.88 54.1658 289.716 51.4576 289.716 48.1166C289.716 44.7249 290.982 42.0673 293.513 40.1437C296.094 38.1695 299.562 37.1823 303.915 37.1823H313.331V35.5118C313.331 33.3857 312.723 31.7658 311.509 30.6522C310.344 29.4879 308.623 28.9057 306.345 28.9057C304.472 28.9057 302.776 29.3107 301.258 30.1206C299.739 30.9306 298.119 32.2467 296.398 34.0691L291.083 27.7667C295.436 22.6034 300.903 20.0217 307.484 20.0217C312.445 20.0217 316.368 21.4391 319.254 24.2739C322.139 27.058 323.582 31.0065 323.582 36.1193ZM313.331 44.3959V43.9403H305.282C301.789 43.9403 300.043 45.2058 300.043 47.7369C300.043 49.0025 300.524 50.0149 301.486 50.7742C302.498 51.4829 303.814 51.8373 305.434 51.8373C307.712 51.8373 309.585 51.1539 311.053 49.7871C312.572 48.3697 313.331 46.5726 313.331 44.3959Z" fill="#35364E"/>
<path d="M345.444 15.6176V20.8569H353.721V29.5132H345.444V58.4434H335.194V29.5132H329.878V20.8569H335.194V14.7064C335.194 10.0492 336.459 6.53103 338.99 4.15182C341.521 1.77261 345.09 0.583008 349.697 0.583008C351.62 0.583008 353.493 0.861425 355.316 1.41826V9.9986C354.202 9.84674 353.189 9.77081 352.278 9.77081C349.899 9.77081 348.153 10.2264 347.039 11.1376C345.976 12.0488 345.444 13.5421 345.444 15.6176Z" fill="#35364E"/>
<path d="M381.619 49.863V58.4434C379.189 59.0508 376.835 59.3545 374.557 59.3545C369.748 59.3545 366.028 58.1649 363.395 55.7857C360.814 53.4065 359.523 49.8883 359.523 45.2312V29.5132H353.6V20.8569H359.523V11.3654H369.774V20.8569H380.404V29.5132H369.774V44.32C369.774 46.4461 370.305 47.9647 371.368 48.8759C372.482 49.7365 374.279 50.1667 376.759 50.1667C377.62 50.1667 379.24 50.0655 381.619 49.863Z" fill="#35364E"/>
<defs>
<clipPath id="clip0_1_26">
<rect width="256.347" height="50.8076" fill="white" transform="translate(466.201 7.62402)"/>
</clipPath>
</defs>
</svg>
