<svg width="238" height="35" viewBox="0 0 238 35" fill="none" xmlns="http://www.w3.org/2000/svg">
<g clip-path="url(#clip0_439_18330)">
<path d="M175.293 10.1125L174.522 9.79997C174.097 9.64372 173.937 9.43537 173.937 9.17495C173.937 8.88848 174.23 8.73222 174.522 8.73222C175.027 8.73222 175.373 9.04474 175.692 9.48746L176.782 8.70618C176.41 7.95095 175.665 7.40405 174.522 7.40405C173.167 7.40405 172.21 8.15929 172.21 9.3312C172.21 10.2427 172.821 10.8417 173.884 11.2844L174.575 11.5709C175.027 11.7792 175.24 11.9094 175.24 12.2219C175.24 12.5344 174.974 12.7688 174.549 12.7688C173.805 12.7688 173.406 12.2219 173.06 11.8053L171.891 12.6647C172.369 13.5501 173.326 14.123 174.522 14.123C175.878 14.123 176.941 13.3678 176.941 12.0917C176.968 11.1281 176.383 10.5812 175.293 10.1125Z" fill="#35364E"/>
<path d="M189.434 9.74764L188.025 7.48193H186.111L188.583 11.5185V13.9926H190.311V11.4925L192.757 7.48193H190.843L189.434 9.74764Z" fill="#35364E"/>
<path d="M196.64 11.206H198.713V10.0341H196.64V9.01845H199.537V7.48193H194.912V13.9926H199.644V12.4561H196.64V11.206Z" fill="#35364E"/>
<path d="M206.741 10.8674L203.099 7.37769H202.408V13.9925H204.163V10.5549L207.778 14.0967H208.469V7.48186H206.741V10.8674Z" fill="#35364E"/>
<path d="M217.613 7.48193H215.593L213.413 10.2945V7.48193H211.686V13.9926H213.413V10.8935L215.939 13.9926H217.986L215.327 10.581L217.613 7.48193Z" fill="#35364E"/>
<path d="M222.77 7.37769C220.803 7.37769 219.234 8.83607 219.234 10.7372C219.234 12.6643 220.803 14.0967 222.77 14.0967C224.737 14.0967 226.358 12.6383 226.358 10.7372C226.358 8.83607 224.763 7.37769 222.77 7.37769ZM222.796 12.5602C221.733 12.5602 221.015 11.857 221.015 10.7372C221.015 9.64339 221.733 8.9142 222.796 8.9142C223.833 8.9142 224.604 9.64339 224.604 10.7372C224.604 11.857 223.807 12.5602 222.796 12.5602Z" fill="#35364E"/>
<path d="M181.62 7.42993L178.59 13.9927H180.451L180.743 13.2635H183.401L183.694 13.9927H185.554L182.444 7.42993H181.62ZM181.142 12.1436L182.019 9.85189H182.072L182.949 12.1436H181.142Z" fill="#35364E"/>
<path d="M178.192 17.3H176.198L173.992 20.1126V17.3H172.264V23.7847H173.992V20.6856L176.517 23.7847H178.564L175.905 20.3731L178.192 17.3Z" fill="#35364E"/>
<path d="M208.283 20.9979H210.329V19.8259H208.283V18.8103H211.153V17.2998H206.555V23.7844H211.286V22.2479H208.283V20.9979Z" fill="#35364E"/>
<path d="M218.384 20.6594L214.742 17.1697H214.051V23.7845H215.779V20.3469L219.42 23.9147H220.112V17.2999H218.384V20.6594Z" fill="#35364E"/>
<path d="M229.229 17.2998H227.235L225.029 20.1124V17.2998H223.301V23.7844H225.029V20.6853L227.554 23.7844H229.601L226.969 20.3728L229.229 17.2998Z" fill="#35364E"/>
<path d="M234.412 17.1697C232.445 17.1697 230.877 18.6281 230.877 20.5292C230.877 22.4563 232.445 23.8887 234.412 23.8887C236.379 23.8887 238.001 22.4303 238.001 20.5292C238.001 18.6281 236.379 17.1697 234.412 17.1697ZM234.412 22.3522C233.349 22.3522 232.631 21.649 232.631 20.5292C232.631 19.4354 233.349 18.7062 234.412 18.7062C235.449 18.7062 236.22 19.4354 236.22 20.5292C236.22 21.649 235.449 22.3522 234.412 22.3522Z" fill="#35364E"/>
<path d="M185.104 19.9304H182.552V17.3H180.824V23.7847H182.552V21.3106H185.104V23.7847H186.832V17.3H185.104V19.9304Z" fill="#35364E"/>
<path d="M203.47 19.5136C203.47 18.1333 202.353 17.2739 200.918 17.2739H198.18V23.7585H199.908V21.7533H200.758L202.114 23.7585H204.054L202.433 21.3366C203.071 20.998 203.47 20.347 203.47 19.5136ZM200.918 20.2949H199.908V18.7584H200.918C201.396 18.7584 201.715 19.0709 201.715 19.5136C201.715 19.9824 201.423 20.2949 200.918 20.2949Z" fill="#35364E"/>
<path d="M191.987 17.2219L188.957 23.7847H190.818L191.11 23.0555H193.768L194.061 23.7847H195.922L192.811 17.2219H191.987ZM191.509 21.9617L192.36 19.722H192.413L193.29 21.9617H191.509Z" fill="#35364E"/>
<path d="M161.098 14.6697L164.421 10.9196C164.607 11.4144 164.74 11.9873 164.74 12.6123H165.644C165.644 12.3779 165.617 12.1696 165.59 11.9352C165.511 11.3102 165.351 10.7373 165.085 10.1904L166.494 8.75803L165.085 7.53402L163.969 8.75803C163.012 7.87258 161.603 7.32568 159.902 7.32568C158.147 7.32568 156.712 7.87258 155.702 8.81011L154.506 7.56007L153.814 8.21113L155.037 9.51326C154.399 10.3727 154.08 11.3362 154.08 12.5082H155.037C155.037 11.5446 155.276 10.8414 155.728 10.1904L163.863 18.9407C163.544 20.8157 162.374 22.3262 159.902 22.3262C157.217 22.3262 155.728 20.373 155.728 18.0813H154.001C154.001 21.5449 156.18 23.9669 159.902 23.9669C163.809 23.9669 165.67 21.3366 165.67 17.9771H164.155L161.098 14.6697ZM159.902 8.15905C161.231 8.15905 162.507 8.60177 163.411 9.43513L159.875 13.3415L156.313 9.48722C157.244 8.62781 158.546 8.15905 159.902 8.15905Z" fill="#35364E"/>
</g>
<path d="M141.08 15.1238C141.724 15.815 142.045 16.6909 142.045 17.7514C142.045 18.8119 141.724 19.6925 141.08 20.3932C140.436 21.0844 139.621 21.43 138.637 21.43C137.642 21.43 136.89 21.0844 136.378 20.3932V21.2596H134.617V10.6072H136.535V14.9107C137.046 14.3521 137.747 14.0728 138.637 14.0728C139.621 14.0728 140.436 14.4231 141.08 15.1238ZM140.1 17.7372C140.1 17.169 139.924 16.7051 139.574 16.3453C139.233 15.9854 138.802 15.8055 138.282 15.8055C137.77 15.8055 137.344 15.9807 137.003 16.3311C136.672 16.6719 136.506 17.1454 136.506 17.7514C136.506 18.3574 136.672 18.8308 137.003 19.1717C137.344 19.5126 137.77 19.683 138.282 19.683C138.812 19.683 139.247 19.5031 139.588 19.1433C139.929 18.7835 140.1 18.3148 140.1 17.7372Z" fill="#35364E"/>
<path d="M148.212 14.229H150.228L146.862 21.8703C146.54 22.5994 146.157 23.1344 145.712 23.4752C145.267 23.8161 144.718 23.9866 144.064 23.9866C143.667 23.9866 143.255 23.9298 142.829 23.8161V22.2112C143.217 22.249 143.491 22.268 143.652 22.268C144.012 22.268 144.306 22.197 144.533 22.0549C144.76 21.9129 144.954 21.6667 145.115 21.3164L145.328 20.8335L142.63 14.229H144.661L146.379 18.845L148.212 14.229Z" fill="#35364E"/>
<path d="M26.3892 26.0469V28.6902C25.5414 28.9063 24.5605 29.0144 23.4467 29.0144C21.2024 29.0144 19.1327 28.5323 17.2375 27.5681C15.3589 26.6205 13.7713 25.224 12.4746 23.3787C11.5436 23.6613 10.621 23.8027 9.70664 23.8027C7.32935 23.8525 5.26793 23.0296 3.52237 21.3339C1.79343 19.6382 0.945591 17.6184 0.97884 15.2743C0.945591 12.9303 1.79343 10.9105 3.52237 9.21476C5.26793 7.51908 7.32935 6.69617 9.70664 6.74604C12.0839 6.69617 14.1453 7.51908 15.8909 9.21476C17.6531 10.9105 18.5176 12.9303 18.4843 15.2743C18.4843 16.6043 18.2017 17.8428 17.6365 18.9899C17.0712 20.137 16.2816 21.1095 15.2675 21.9075C16.3813 23.3704 17.6448 24.4427 19.0579 25.1243C20.4875 25.8059 22.1666 26.1467 24.095 26.1467C24.5605 26.1467 25.3252 26.1134 26.3892 26.0469ZM9.73158 20.6856C11.2444 20.6856 12.4995 20.1785 13.497 19.1645C14.5111 18.1504 15.0181 16.8537 15.0181 15.2743C15.0181 13.7117 14.5111 12.4233 13.497 11.4092C12.4995 10.3785 11.2444 9.86311 9.73158 9.86311C8.20213 9.86311 6.93868 10.3702 5.94122 11.3842C4.94375 12.3983 4.44502 13.695 4.44502 15.2743C4.44502 16.8537 4.94375 18.1504 5.94122 19.1645C6.93868 20.1785 8.20213 20.6856 9.73158 20.6856ZM20.986 18.0672V11.1598H24.3524V18.3415C24.3524 19.0564 24.5685 19.6299 25.0007 20.0622C25.4496 20.4944 26.0148 20.7105 26.6964 20.7105C27.3614 20.7105 27.91 20.4944 28.3422 20.0622C28.7745 19.6133 28.9906 19.0398 28.9906 18.3415V11.1598H32.357V18.0672C32.357 19.7629 31.8167 21.1428 30.7362 22.2067C29.6722 23.2707 28.3256 23.8027 26.6964 23.8027C25.034 23.8027 23.6625 23.279 22.5819 22.2317C21.5179 21.1677 20.986 19.7796 20.986 18.0672ZM35.5758 23.5034V11.1598H38.9422V23.5034H35.5758ZM35.102 6.67123C35.102 6.07276 35.3098 5.57402 35.7254 5.17504C36.141 4.77605 36.6481 4.57656 37.2465 4.57656C37.845 4.57656 38.3521 4.77605 38.7677 5.17504C39.1999 5.57402 39.416 6.07276 39.416 6.67123C39.416 7.25309 39.1999 7.74351 38.7677 8.14249C38.3521 8.54148 37.845 8.74097 37.2465 8.74097C36.6481 8.74097 36.141 8.54148 35.7254 8.14249C35.3098 7.74351 35.102 7.25309 35.102 6.67123ZM41.5744 17.3191C41.5744 15.5237 42.2144 14.0026 43.4945 12.7558C44.7746 11.5089 46.3373 10.8855 48.1826 10.8855C50.6098 10.8855 52.3969 11.8996 53.544 13.9278L51.1999 15.7481C50.3687 14.5512 49.3796 13.9527 48.2325 13.9527C47.2849 13.9527 46.5035 14.2769 45.8884 14.9252C45.29 15.557 44.9907 16.3549 44.9907 17.3191C44.9907 18.3 45.29 19.1146 45.8884 19.7629C46.5035 20.3947 47.2849 20.7105 48.2325 20.7105C49.3796 20.7105 50.3687 20.1204 51.1999 18.94L53.544 20.7355C52.9954 21.6997 52.2556 22.4561 51.3246 23.0047C50.4103 23.5367 49.3629 23.8027 48.1826 23.8027C46.3705 23.8359 44.8078 23.2125 43.4945 21.9324C42.1812 20.6357 41.5412 19.098 41.5744 17.3191ZM68.2006 23.5034H64.3604L59.398 16.6708V23.5034H56.0316V4.80099H59.398V16.4214L63.8367 11.1598H67.8266L63.1884 16.6209L68.2006 23.5034ZM70.2098 23.5034V7.04528H75.5961C78.2227 7.01203 80.3839 7.76844 82.0796 9.31451C83.7753 10.844 84.6065 12.8139 84.5732 15.2245C84.6065 17.6184 83.767 19.605 82.0546 21.1843C80.3423 22.7636 78.1895 23.5367 75.5961 23.5034H70.2098ZM73.5762 20.4612H75.5711C77.2336 20.4612 78.5718 19.9874 79.5859 19.0398C80.6 18.0756 81.1071 16.8038 81.1071 15.2245C81.1071 13.6285 80.6083 12.3734 79.6109 11.4591C78.6134 10.5447 77.2668 10.0875 75.5711 10.0875H73.5762V20.4612ZM94.783 11.1598V14.1273H93.8853C92.8546 14.1273 92.04 14.4016 91.4415 14.9502C90.8597 15.4988 90.5687 16.2967 90.5687 17.3441V23.5034H87.2023V11.1598H90.2944V12.6311C91.1589 11.5505 92.2894 11.0102 93.6858 11.0102C94.1014 11.0102 94.4671 11.0601 94.783 11.1598ZM106.975 16.1721V23.5034H103.883V22.3065C102.919 23.3039 101.664 23.8027 100.118 23.8027C98.821 23.8027 97.782 23.4619 97.0006 22.7803C96.2359 22.0987 95.8535 21.2093 95.8535 20.112C95.8535 18.9982 96.2691 18.1254 97.1004 17.4937C97.9482 16.8454 99.087 16.5212 100.517 16.5212H103.609V15.9726C103.609 15.2743 103.409 14.7424 103.01 14.3766C102.628 13.9943 102.063 13.8031 101.315 13.8031C100.7 13.8031 100.143 13.9361 99.6439 14.2021C99.1452 14.4681 98.6132 14.9003 98.0479 15.4988L96.3024 13.429C97.7321 11.7334 99.5275 10.8855 101.689 10.8855C103.318 10.8855 104.606 11.351 105.554 12.282C106.501 13.1963 106.975 14.493 106.975 16.1721ZM103.609 18.8902V18.7405H100.966C99.8184 18.7405 99.2449 19.1561 99.2449 19.9874C99.2449 20.403 99.4028 20.7355 99.7187 20.9848C100.051 21.2176 100.483 21.3339 101.015 21.3339C101.763 21.3339 102.379 21.1095 102.861 20.6606C103.359 20.1952 103.609 19.605 103.609 18.8902ZM114.155 9.43919V11.1598H116.873V14.0026H114.155V23.5034H110.789V14.0026H109.043V11.1598H110.789V9.13995C110.789 7.61051 111.204 6.45512 112.035 5.67377C112.867 4.89242 114.039 4.50175 115.551 4.50175C116.183 4.50175 116.798 4.59319 117.397 4.77605V7.59389C117.031 7.54401 116.699 7.51908 116.399 7.51908C115.618 7.51908 115.044 7.6687 114.679 7.96793C114.33 8.26717 114.155 8.75759 114.155 9.43919ZM126.035 20.6856V23.5034C125.237 23.7029 124.464 23.8027 123.716 23.8027C122.137 23.8027 120.915 23.412 120.05 22.6306C119.202 21.8493 118.778 20.6939 118.778 19.1645V14.0026H116.833V11.1598H118.778V8.04274H122.145V11.1598H125.636V14.0026H122.145V18.8652C122.145 19.5634 122.319 20.0622 122.669 20.3614C123.034 20.644 123.624 20.7853 124.439 20.7853C124.722 20.7853 125.254 20.7521 126.035 20.6856Z" fill="#35364E"/>
<defs>
<clipPath id="clip0_439_18330">
<rect width="84.1859" height="16.6855" fill="white" transform="translate(153.814 7.32568)"/>
</clipPath>
</defs>
</svg>
