<svg width="24" height="16" viewBox="0 0 24 16" fill="none" xmlns="http://www.w3.org/2000/svg">
<path d="M2 15.0034H22C22.6875 15.0034 23.25 14.4409 23.25 13.7534C23.25 13.0659 22.6875 12.5034 22 12.5034H2C1.3125 12.5034 0.75 13.0659 0.75 13.7534C0.75 14.4409 1.3125 15.0034 2 15.0034ZM2 8.75342H22C22.6875 8.75342 23.25 8.19092 23.25 7.50342C23.25 6.81592 22.6875 6.25342 22 6.25342H2C1.3125 6.25342 0.75 6.81592 0.75 7.50342C0.75 8.19092 1.3125 8.75342 2 8.75342ZM0.75 1.25342C0.75 1.94092 1.3125 2.50342 2 2.50342H22C22.6875 2.50342 23.25 1.94092 23.25 1.25342C23.25 0.565918 22.6875 0.00341797 22 0.00341797H2C1.3125 0.00341797 0.75 0.565918 0.75 1.25342Z" fill="white"/>
</svg>
