<svg width="46" height="61" viewBox="0 0 46 61" fill="none" xmlns="http://www.w3.org/2000/svg">
<path d="M26.4511 27.3223L38.4602 13.764C39.1328 15.5529 39.6131 17.6243 39.6131 19.884H42.8796C42.8796 19.0366 42.7835 18.2834 42.6875 17.436C42.3992 15.1763 41.8228 13.1049 40.8621 11.1276L45.954 5.94905L40.8621 1.52375L36.827 5.94905C33.3683 2.74777 28.2765 0.770508 22.1278 0.770508C15.7869 0.770508 10.599 2.74777 6.94816 6.13736L2.62486 1.61791L0.126953 3.97179L4.54633 8.67956C2.24057 11.7867 1.08769 15.2704 1.08769 19.5074H4.54633C4.54633 16.0237 5.41099 13.4815 7.04424 11.1276L36.4427 42.7638C35.2898 49.543 31.0626 55.004 22.1278 55.004C12.4243 55.004 7.04424 47.9424 7.04424 39.6567H0.799467C0.799467 52.1793 8.67748 60.9358 22.1278 60.9358C36.2505 60.9358 42.9757 51.4261 42.9757 39.2801H37.4995L26.4511 27.3223ZM22.1278 3.78348C26.9314 3.78348 31.5429 5.38412 34.8094 8.39709L22.0317 22.5204L9.15785 8.5854C12.5204 5.47828 17.228 3.78348 22.1278 3.78348Z" fill="#35364E"/>
</svg>
